M48
; DRILL file {KiCad 9.0.4} date 2025-09-01T13:06:24+0200
; FORMAT={-:-/ absolute / metric / decimal}
; #@! TF.CreationDate,2025-09-01T13:06:24+02:00
; #@! TF.GenerationSoftware,Kicad,Pcbnew,9.0.4
; #@! TF.FileFunction,Plated,1,4,PTH
FMAT,2
METRIC
; #@! TA.AperFunction,Plated,PTH,ComponentDrill
T1C0.200
; #@! TA.AperFunction,Plated,PTH,ViaDrill
T2C0.300
; #@! TA.AperFunction,Plated,PTH,ComponentDrill
T3C0.600
; #@! TA.AperFunction,Plated,PTH,ComponentDrill
T4C1.300
%
G90
G05
T1
X121.16Y-83.815
X121.16Y-85.215
X121.86Y-83.115
X121.86Y-84.515
X121.86Y-85.915
X122.56Y-83.815
X122.56Y-85.215
X123.26Y-83.115
X123.26Y-84.515
X123.26Y-85.915
X123.96Y-83.815
X123.96Y-85.215
T2
X116.6Y-93.5
X117.4Y-90.0
X130.29Y-89.875
X130.341Y-88.122
X131.14Y-89.875
X134.8Y-87.3
X135.1Y-92.7
X137.6Y-89.2
X138.9Y-92.7
X139.7Y-79.18
X140.5Y-89.2
X146.865Y-82.055
X148.365Y-80.016
X149.09Y-83.7
X149.865Y-82.1
X151.6Y-72.7
X151.865Y-79.015
X151.865Y-85.515
X152.2Y-73.5
X152.2Y-75.299
X152.4Y-74.4
X152.9Y-86.115
X153.115Y-79.015
X153.615Y-80.015
X154.6Y-86.1
X155.615Y-82.015
X155.615Y-84.015
X159.415Y-82.515
X160.4Y-92.2
X162.565Y-90.9
X164.7Y-92.3
X165.5Y-84.2
X167.0Y-81.2
X167.0Y-92.3
X167.1Y-77.9
X168.07Y-84.587
X168.076Y-90.424
X168.8Y-85.4
X170.1Y-79.7
X170.3Y-85.8
X170.9Y-90.075
X171.2Y-74.0
X172.7Y-90.075
X172.862Y-81.768
X174.9Y-92.5
X174.984Y-83.324
X175.115Y-80.015
X175.115Y-86.015
X175.4Y-76.5
X175.425Y-89.5
X175.585Y-82.723
X177.1Y-90.8
X177.2Y-75.1
T4
X149.7Y-92.0
X156.2Y-92.0
T3
G00X177.27Y-78.66
M15
G01X178.37Y-78.66
M16
G05
G00X177.27Y-87.3
M15
G01X178.37Y-87.3
M16
G05
G00X181.6Y-78.66
M15
G01X182.4Y-78.66
M16
G05
G00X181.6Y-87.3
M15
G01X182.4Y-87.3
M16
G05
M30
