%TF.GenerationSoftware,KiCad,Pcbnew,9.0.4*%
%TF.CreationDate,2025-09-01T13:06:02+02:00*%
%TF.ProjectId,EHT,4548542e-6b69-4636-9164-5f7063625858,rev?*%
%TF.SameCoordinates,Original*%
%TF.FileFunction,Copper,L4,Bot*%
%TF.FilePolarity,Positive*%
%FSLAX46Y46*%
G04 Gerber Fmt 4.6, Leading zero omitted, Abs format (unit mm)*
G04 Created by KiCad (PCBNEW 9.0.4) date 2025-09-01 13:06:02*
%MOMM*%
%LPD*%
G01*
G04 APERTURE LIST*
%TA.AperFunction,ComponentPad*%
%ADD10R,2.250000X2.250000*%
%TD*%
%TA.AperFunction,ComponentPad*%
%ADD11C,2.250000*%
%TD*%
%TA.AperFunction,HeatsinkPad*%
%ADD12O,2.100000X1.000000*%
%TD*%
%TA.AperFunction,HeatsinkPad*%
%ADD13O,1.800000X1.000000*%
%TD*%
%TA.AperFunction,HeatsinkPad*%
%ADD14C,0.600000*%
%TD*%
%TA.AperFunction,ViaPad*%
%ADD15C,0.600000*%
%TD*%
%TA.AperFunction,Conductor*%
%ADD16C,0.200000*%
%TD*%
%TA.AperFunction,Conductor*%
%ADD17C,0.500000*%
%TD*%
G04 APERTURE END LIST*
D10*
%TO.P,SW1,1,1*%
%TO.N,Net-(U7-EN)*%
X149700000Y-92000000D03*
D11*
%TO.P,SW1,2,2*%
%TO.N,GND*%
X156200000Y-92000000D03*
%TD*%
D12*
%TO.P,J1,S1,SHIELD*%
%TO.N,GND*%
X177820000Y-87300000D03*
D13*
X182000000Y-87300000D03*
D12*
X177820000Y-78660000D03*
D13*
X182000000Y-78660000D03*
%TD*%
D14*
%TO.P,U7,41,GND*%
%TO.N,GND*%
X121860000Y-85915000D03*
X123260000Y-85915000D03*
X121160000Y-85215000D03*
X122560000Y-85215000D03*
X123960000Y-85215000D03*
X121860000Y-84515000D03*
X123260000Y-84515000D03*
X121160000Y-83815000D03*
X122560000Y-83815000D03*
X123960000Y-83815000D03*
X121860000Y-83115000D03*
X123260000Y-83115000D03*
%TD*%
D15*
%TO.N,GND*%
X140500000Y-89200000D03*
X171200000Y-74000000D03*
X155615000Y-82015000D03*
X172862200Y-81767800D03*
X154600000Y-86100000D03*
X164700000Y-92300000D03*
X152200000Y-75299000D03*
X175115000Y-86015000D03*
X165500000Y-84200000D03*
X175425000Y-89500000D03*
X153615000Y-80015000D03*
X152400000Y-74400000D03*
X170900000Y-90075000D03*
X152200000Y-73500000D03*
X167100000Y-77900000D03*
X175400000Y-76500000D03*
X160400000Y-92200000D03*
X168075735Y-90424265D03*
X134800000Y-87300000D03*
X151600000Y-72700000D03*
X172700000Y-90075000D03*
X175115000Y-80015000D03*
%TO.N,Net-(U2-SDO{slash}AD0)*%
X146865000Y-82055000D03*
X152900000Y-86115000D03*
%TO.N,Net-(U2-~{CS})*%
X153115000Y-79015000D03*
X149089672Y-83700000D03*
%TO.N,Net-(U2-SCL{slash}SCLK)*%
X149865000Y-82100000D03*
X151865000Y-79015000D03*
%TO.N,D+*%
X130341051Y-88122017D03*
X175584834Y-82722663D03*
X131140000Y-89875000D03*
%TO.N,D-*%
X174983792Y-83323705D03*
X130290000Y-89875000D03*
%TO.N,Net-(SW2A-A)*%
X167000000Y-81200000D03*
X167000000Y-92300000D03*
%TO.N,LED_PWR*%
X174900000Y-92500000D03*
X170300000Y-85800000D03*
X170100000Y-79700000D03*
%TO.N,+1V8*%
X148365005Y-80016000D03*
X155615000Y-84015000D03*
X151865000Y-85515000D03*
%TO.N,+3V3*%
X138900000Y-92700000D03*
X135100000Y-92700000D03*
X159415000Y-82515000D03*
X116600000Y-93500000D03*
X139700000Y-79180000D03*
X162565000Y-90900000D03*
%TO.N,Net-(U7-EN)*%
X137600000Y-89200000D03*
X117400000Y-90000000D03*
%TO.N,Net-(DCHG1-K)*%
X168800000Y-85400000D03*
X177200000Y-75100000D03*
%TO.N,Net-(DPGOOD1-K)*%
X177100000Y-90800000D03*
X168070460Y-84586707D03*
%TD*%
D16*
%TO.N,Net-(U2-SDO{slash}AD0)*%
X152113943Y-86116000D02*
X148316000Y-86116000D01*
X148316000Y-86116000D02*
X146865000Y-84665000D01*
X152114943Y-86115000D02*
X152113943Y-86116000D01*
X146865000Y-84665000D02*
X146865000Y-82055000D01*
X152900000Y-86115000D02*
X152114943Y-86115000D01*
%TO.N,Net-(SW2A-A)*%
X167000000Y-92300000D02*
X167000000Y-81200000D01*
D17*
%TO.N,LED_PWR*%
X174900000Y-90400000D02*
X170300000Y-85800000D01*
D16*
X170100000Y-79700000D02*
X170100000Y-85600000D01*
X170100000Y-85600000D02*
X170300000Y-85800000D01*
D17*
X174900000Y-92500000D02*
X174900000Y-90400000D01*
%TO.N,+3V3*%
X138900000Y-92700000D02*
X139955017Y-93755017D01*
D16*
X152700000Y-77300000D02*
X149700000Y-77300000D01*
D17*
X135100000Y-92700000D02*
X134300000Y-93500000D01*
D16*
X140380000Y-78500000D02*
X139700000Y-79180000D01*
D17*
X139955017Y-93755017D02*
X140800000Y-93755017D01*
D16*
X148500000Y-78500000D02*
X140380000Y-78500000D01*
X149700000Y-77300000D02*
X148500000Y-78500000D01*
D17*
X140800000Y-93755017D02*
X160370702Y-93759298D01*
X134300000Y-93500000D02*
X133600000Y-93500000D01*
X116600000Y-93500000D02*
X133600000Y-93500000D01*
X139700000Y-93500000D02*
X139955017Y-93755017D01*
X133600000Y-93500000D02*
X139700000Y-93500000D01*
X162565000Y-91565000D02*
X162565000Y-90900000D01*
X160370702Y-93759298D02*
X162565000Y-91565000D01*
D16*
X159415000Y-82515000D02*
X157915000Y-82515000D01*
X157915000Y-82515000D02*
X152700000Y-77300000D01*
D17*
%TO.N,Net-(U7-EN)*%
X137600000Y-89200000D02*
X137524000Y-89124000D01*
X118276000Y-89124000D02*
X117400000Y-90000000D01*
X137524000Y-89124000D02*
X118276000Y-89124000D01*
%TD*%
%TA.AperFunction,Conductor*%
%TO.N,GND*%
G36*
X182003032Y-71500648D02*
G01*
X182336929Y-71517052D01*
X182349037Y-71518245D01*
X182452146Y-71533539D01*
X182676699Y-71566849D01*
X182688617Y-71569219D01*
X183009951Y-71649709D01*
X183021588Y-71653240D01*
X183092806Y-71678722D01*
X183333467Y-71764832D01*
X183344688Y-71769479D01*
X183644163Y-71911120D01*
X183654871Y-71916844D01*
X183938988Y-72087137D01*
X183949106Y-72093897D01*
X184215170Y-72291224D01*
X184224576Y-72298944D01*
X184470013Y-72521395D01*
X184478604Y-72529986D01*
X184665755Y-72736475D01*
X184701055Y-72775423D01*
X184708775Y-72784829D01*
X184906102Y-73050893D01*
X184912862Y-73061011D01*
X185041776Y-73276092D01*
X185083148Y-73345116D01*
X185088883Y-73355844D01*
X185111050Y-73402713D01*
X185230514Y-73655297D01*
X185235170Y-73666540D01*
X185346759Y-73978411D01*
X185350292Y-73990055D01*
X185430777Y-74311369D01*
X185433151Y-74323305D01*
X185481754Y-74650962D01*
X185482947Y-74663071D01*
X185499351Y-74996966D01*
X185499500Y-75003051D01*
X185499500Y-90996948D01*
X185499351Y-91003033D01*
X185482947Y-91336928D01*
X185481754Y-91349037D01*
X185433151Y-91676694D01*
X185430777Y-91688630D01*
X185350292Y-92009944D01*
X185346759Y-92021588D01*
X185235170Y-92333459D01*
X185230514Y-92344702D01*
X185088885Y-92644151D01*
X185083148Y-92654883D01*
X184912862Y-92938988D01*
X184906102Y-92949106D01*
X184708775Y-93215170D01*
X184701055Y-93224576D01*
X184478611Y-93470006D01*
X184470006Y-93478611D01*
X184224576Y-93701055D01*
X184215170Y-93708775D01*
X183949106Y-93906102D01*
X183938988Y-93912862D01*
X183654883Y-94083148D01*
X183644151Y-94088885D01*
X183344702Y-94230514D01*
X183333459Y-94235170D01*
X183021588Y-94346759D01*
X183009944Y-94350292D01*
X182688630Y-94430777D01*
X182676694Y-94433151D01*
X182349037Y-94481754D01*
X182336928Y-94482947D01*
X182021989Y-94498419D01*
X182003031Y-94499351D01*
X181996949Y-94499500D01*
X114324000Y-94499500D01*
X114256961Y-94479815D01*
X114211206Y-94427011D01*
X114200000Y-94375500D01*
X114200000Y-93434108D01*
X116099500Y-93434108D01*
X116099500Y-93565891D01*
X116133608Y-93693187D01*
X116138151Y-93701055D01*
X116199500Y-93807314D01*
X116292686Y-93900500D01*
X116391521Y-93957563D01*
X116401425Y-93963281D01*
X116406814Y-93966392D01*
X116534108Y-94000500D01*
X116534110Y-94000500D01*
X116665890Y-94000500D01*
X116665892Y-94000500D01*
X116793186Y-93966392D01*
X116793194Y-93966387D01*
X116800696Y-93963281D01*
X116801249Y-93964618D01*
X116853937Y-93950500D01*
X133540691Y-93950500D01*
X139462035Y-93950500D01*
X139529074Y-93970185D01*
X139549716Y-93986819D01*
X139678404Y-94115507D01*
X139678406Y-94115508D01*
X139678410Y-94115511D01*
X139781005Y-94174744D01*
X139781006Y-94174744D01*
X139781065Y-94174778D01*
X139781131Y-94174816D01*
X139895708Y-94205517D01*
X139895710Y-94205517D01*
X140800021Y-94205517D01*
X160311348Y-94209785D01*
X160311393Y-94209797D01*
X160365911Y-94209797D01*
X160375054Y-94209799D01*
X160429906Y-94209811D01*
X160429906Y-94209810D01*
X160429912Y-94209811D01*
X160429917Y-94209809D01*
X160430005Y-94209798D01*
X160430009Y-94209797D01*
X160430011Y-94209797D01*
X160468839Y-94199392D01*
X160485962Y-94194805D01*
X160485962Y-94194807D01*
X160485979Y-94194800D01*
X160544496Y-94179135D01*
X160544500Y-94179132D01*
X160544531Y-94179124D01*
X160544561Y-94179111D01*
X160544582Y-94179098D01*
X160544589Y-94179097D01*
X160599143Y-94147599D01*
X160647236Y-94119847D01*
X160647241Y-94119841D01*
X160647275Y-94119822D01*
X160647287Y-94119813D01*
X160647295Y-94119806D01*
X160647311Y-94119789D01*
X160647316Y-94119787D01*
X160692565Y-94074536D01*
X160692589Y-94074523D01*
X160692584Y-94074518D01*
X160731130Y-94035990D01*
X160731130Y-94035988D01*
X160737062Y-94030060D01*
X160737197Y-94029904D01*
X162925489Y-91841614D01*
X162984799Y-91738887D01*
X163000146Y-91681610D01*
X163015500Y-91624309D01*
X163015500Y-91153936D01*
X163029618Y-91101246D01*
X163028282Y-91100693D01*
X163031388Y-91093192D01*
X163031392Y-91093186D01*
X163065500Y-90965892D01*
X163065500Y-90834108D01*
X163031392Y-90706814D01*
X162965500Y-90592686D01*
X162872314Y-90499500D01*
X162814968Y-90466391D01*
X162758187Y-90433608D01*
X162694539Y-90416554D01*
X162630892Y-90399500D01*
X162499108Y-90399500D01*
X162371812Y-90433608D01*
X162257686Y-90499500D01*
X162257683Y-90499502D01*
X162164502Y-90592683D01*
X162164500Y-90592686D01*
X162098608Y-90706812D01*
X162064693Y-90833386D01*
X162064500Y-90834108D01*
X162064500Y-90965892D01*
X162073639Y-91000000D01*
X162098608Y-91093186D01*
X162101718Y-91100693D01*
X162100381Y-91101246D01*
X162102035Y-91107422D01*
X162109477Y-91119001D01*
X162114500Y-91153936D01*
X162114500Y-91327034D01*
X162094815Y-91394073D01*
X162078181Y-91414715D01*
X160220469Y-93272426D01*
X160159146Y-93305911D01*
X160132761Y-93308745D01*
X151144337Y-93306779D01*
X151077302Y-93287080D01*
X151031558Y-93234266D01*
X151021630Y-93165105D01*
X151022748Y-93158583D01*
X151025500Y-93144750D01*
X151025500Y-90855249D01*
X151025499Y-90855247D01*
X151013868Y-90796770D01*
X151013867Y-90796769D01*
X150969552Y-90730447D01*
X150903230Y-90686132D01*
X150903229Y-90686131D01*
X150844752Y-90674500D01*
X150844748Y-90674500D01*
X148555252Y-90674500D01*
X148555247Y-90674500D01*
X148496770Y-90686131D01*
X148496769Y-90686132D01*
X148430447Y-90730447D01*
X148386132Y-90796769D01*
X148386131Y-90796770D01*
X148374500Y-90855247D01*
X148374500Y-90855252D01*
X148374500Y-93144748D01*
X148374500Y-93144750D01*
X148374499Y-93144750D01*
X148377127Y-93157959D01*
X148370898Y-93227550D01*
X148328033Y-93282727D01*
X148262143Y-93305969D01*
X148255482Y-93306147D01*
X140866997Y-93304530D01*
X140866997Y-93304529D01*
X140859351Y-93304527D01*
X140859309Y-93304517D01*
X140800222Y-93304517D01*
X140800219Y-93304517D01*
X140800163Y-93304516D01*
X140732875Y-93304502D01*
X140732645Y-93304517D01*
X140192982Y-93304517D01*
X140125943Y-93284832D01*
X140105301Y-93268198D01*
X139398113Y-92561010D01*
X139370841Y-92513771D01*
X139369504Y-92514326D01*
X139366392Y-92506816D01*
X139366392Y-92506814D01*
X139300500Y-92392686D01*
X139207314Y-92299500D01*
X139150250Y-92266554D01*
X139093187Y-92233608D01*
X139029539Y-92216554D01*
X138965892Y-92199500D01*
X138834108Y-92199500D01*
X138706812Y-92233608D01*
X138592686Y-92299500D01*
X138592683Y-92299502D01*
X138499502Y-92392683D01*
X138499500Y-92392686D01*
X138433608Y-92506812D01*
X138417778Y-92565892D01*
X138399500Y-92634108D01*
X138399500Y-92765892D01*
X138433608Y-92893186D01*
X138433609Y-92893189D01*
X138433668Y-92893406D01*
X138432005Y-92963256D01*
X138392843Y-93021119D01*
X138328614Y-93048623D01*
X138313893Y-93049500D01*
X135686107Y-93049500D01*
X135619068Y-93029815D01*
X135573313Y-92977011D01*
X135563369Y-92907853D01*
X135566332Y-92893406D01*
X135566390Y-92893189D01*
X135566392Y-92893186D01*
X135600500Y-92765892D01*
X135600500Y-92634108D01*
X135566392Y-92506814D01*
X135500500Y-92392686D01*
X135407314Y-92299500D01*
X135350250Y-92266554D01*
X135293187Y-92233608D01*
X135229539Y-92216554D01*
X135165892Y-92199500D01*
X135034108Y-92199500D01*
X134906812Y-92233608D01*
X134792686Y-92299500D01*
X134792683Y-92299502D01*
X134699502Y-92392683D01*
X134699498Y-92392689D01*
X134633607Y-92506816D01*
X134630497Y-92514324D01*
X134629161Y-92513770D01*
X134601887Y-92561007D01*
X134255044Y-92907853D01*
X134149716Y-93013181D01*
X134088393Y-93046666D01*
X134062035Y-93049500D01*
X116853937Y-93049500D01*
X116801249Y-93035381D01*
X116800696Y-93036719D01*
X116793188Y-93033609D01*
X116793186Y-93033608D01*
X116665892Y-92999500D01*
X116534108Y-92999500D01*
X116406812Y-93033608D01*
X116292686Y-93099500D01*
X116292683Y-93099502D01*
X116199502Y-93192683D01*
X116199500Y-93192686D01*
X116133608Y-93306812D01*
X116099500Y-93434108D01*
X114200000Y-93434108D01*
X114200000Y-91412648D01*
X143064500Y-91412648D01*
X143064500Y-91617352D01*
X143065602Y-91624308D01*
X143096522Y-91819534D01*
X143159781Y-92014223D01*
X143252715Y-92196613D01*
X143373028Y-92362213D01*
X143517786Y-92506971D01*
X143655898Y-92607313D01*
X143683390Y-92627287D01*
X143799607Y-92686503D01*
X143865776Y-92720218D01*
X143865778Y-92720218D01*
X143865781Y-92720220D01*
X143970137Y-92754127D01*
X144060465Y-92783477D01*
X144161557Y-92799488D01*
X144262648Y-92815500D01*
X144262649Y-92815500D01*
X144467351Y-92815500D01*
X144467352Y-92815500D01*
X144669534Y-92783477D01*
X144864219Y-92720220D01*
X145046610Y-92627287D01*
X145170173Y-92537514D01*
X145212213Y-92506971D01*
X145212215Y-92506968D01*
X145212219Y-92506966D01*
X145356966Y-92362219D01*
X145356968Y-92362215D01*
X145356971Y-92362213D01*
X145441358Y-92246062D01*
X145477287Y-92196610D01*
X145570220Y-92014219D01*
X145633477Y-91819534D01*
X145665500Y-91617352D01*
X145665500Y-91412648D01*
X145633477Y-91210466D01*
X145570220Y-91015781D01*
X145570218Y-91015778D01*
X145570218Y-91015776D01*
X145510028Y-90897648D01*
X145477287Y-90833390D01*
X145450681Y-90796769D01*
X145356971Y-90667786D01*
X145212213Y-90523028D01*
X145046613Y-90402715D01*
X145046612Y-90402714D01*
X145046610Y-90402713D01*
X144989653Y-90373691D01*
X144864223Y-90309781D01*
X144669534Y-90246522D01*
X144483098Y-90216994D01*
X144467352Y-90214500D01*
X144262648Y-90214500D01*
X144246902Y-90216994D01*
X144060465Y-90246522D01*
X143865776Y-90309781D01*
X143683386Y-90402715D01*
X143517786Y-90523028D01*
X143373028Y-90667786D01*
X143252715Y-90833386D01*
X143159781Y-91015776D01*
X143096522Y-91210465D01*
X143074575Y-91349037D01*
X143064500Y-91412648D01*
X114200000Y-91412648D01*
X114200000Y-89934108D01*
X116899500Y-89934108D01*
X116899500Y-90065891D01*
X116933608Y-90193187D01*
X116952618Y-90226112D01*
X116999500Y-90307314D01*
X117092686Y-90400500D01*
X117206814Y-90466392D01*
X117334108Y-90500500D01*
X117334110Y-90500500D01*
X117465890Y-90500500D01*
X117465892Y-90500500D01*
X117593186Y-90466392D01*
X117707314Y-90400500D01*
X117800500Y-90307314D01*
X117866392Y-90193186D01*
X117866393Y-90193180D01*
X117869504Y-90185674D01*
X117870842Y-90186228D01*
X117898111Y-90138990D01*
X118426284Y-89610819D01*
X118487607Y-89577334D01*
X118513965Y-89574500D01*
X129690763Y-89574500D01*
X129757802Y-89594185D01*
X129803557Y-89646989D01*
X129813501Y-89716147D01*
X129810538Y-89730593D01*
X129789500Y-89809108D01*
X129789500Y-89940891D01*
X129823608Y-90068187D01*
X129855477Y-90123384D01*
X129889500Y-90182314D01*
X129982686Y-90275500D01*
X130096814Y-90341392D01*
X130224108Y-90375500D01*
X130224110Y-90375500D01*
X130355890Y-90375500D01*
X130355892Y-90375500D01*
X130483186Y-90341392D01*
X130597314Y-90275500D01*
X130627319Y-90245495D01*
X130688642Y-90212010D01*
X130758334Y-90216994D01*
X130802681Y-90245495D01*
X130832686Y-90275500D01*
X130946814Y-90341392D01*
X131074108Y-90375500D01*
X131074110Y-90375500D01*
X131205890Y-90375500D01*
X131205892Y-90375500D01*
X131333186Y-90341392D01*
X131447314Y-90275500D01*
X131540500Y-90182314D01*
X131606392Y-90068186D01*
X131640500Y-89940892D01*
X131640500Y-89809108D01*
X131619462Y-89730592D01*
X131621125Y-89660743D01*
X131660288Y-89602881D01*
X131724516Y-89575377D01*
X131739237Y-89574500D01*
X137216710Y-89574500D01*
X137283749Y-89594185D01*
X137292197Y-89600125D01*
X137292681Y-89600497D01*
X137397029Y-89660743D01*
X137406814Y-89666392D01*
X137534108Y-89700500D01*
X137534110Y-89700500D01*
X137665890Y-89700500D01*
X137665892Y-89700500D01*
X137793186Y-89666392D01*
X137907314Y-89600500D01*
X138000500Y-89507314D01*
X138066392Y-89393186D01*
X138100500Y-89265892D01*
X138100500Y-89134108D01*
X138066392Y-89006814D01*
X138000500Y-88892686D01*
X137907314Y-88799500D01*
X137793186Y-88733608D01*
X137726168Y-88715650D01*
X137718170Y-88713215D01*
X137706727Y-88709305D01*
X137697887Y-88704201D01*
X137673673Y-88697713D01*
X137669639Y-88696632D01*
X137669630Y-88696629D01*
X137607716Y-88680040D01*
X137583309Y-88673500D01*
X130796744Y-88673500D01*
X130729705Y-88653815D01*
X130683950Y-88601011D01*
X130674006Y-88531853D01*
X130703031Y-88468297D01*
X130709063Y-88461819D01*
X130741551Y-88429331D01*
X130807443Y-88315203D01*
X130841551Y-88187909D01*
X130841551Y-88056125D01*
X130807443Y-87928831D01*
X130741551Y-87814703D01*
X130648365Y-87721517D01*
X130591301Y-87688571D01*
X130534238Y-87655625D01*
X130470590Y-87638571D01*
X130406943Y-87621517D01*
X130275159Y-87621517D01*
X130147863Y-87655625D01*
X130033737Y-87721517D01*
X130033734Y-87721519D01*
X129940553Y-87814700D01*
X129940551Y-87814703D01*
X129874659Y-87928829D01*
X129840551Y-88056125D01*
X129840551Y-88187908D01*
X129874659Y-88315204D01*
X129907605Y-88372267D01*
X129940551Y-88429331D01*
X129940553Y-88429333D01*
X129973039Y-88461819D01*
X130006524Y-88523142D01*
X130001540Y-88592834D01*
X129959668Y-88648767D01*
X129894204Y-88673184D01*
X129885358Y-88673500D01*
X118216691Y-88673500D01*
X118126325Y-88697713D01*
X118126324Y-88697712D01*
X118102116Y-88704199D01*
X118102113Y-88704200D01*
X117999386Y-88763511D01*
X117999383Y-88763513D01*
X117261009Y-89501886D01*
X117213775Y-89529161D01*
X117214328Y-89530495D01*
X117206816Y-89533606D01*
X117092689Y-89599498D01*
X117092683Y-89599502D01*
X116999502Y-89692683D01*
X116999500Y-89692686D01*
X116933608Y-89806812D01*
X116899500Y-89934108D01*
X114200000Y-89934108D01*
X114200000Y-81989108D01*
X146364500Y-81989108D01*
X146364500Y-82120891D01*
X146398608Y-82248187D01*
X146424589Y-82293186D01*
X146464500Y-82362314D01*
X146464502Y-82362316D01*
X146528181Y-82425995D01*
X146561666Y-82487318D01*
X146564500Y-82513676D01*
X146564500Y-84704562D01*
X146578152Y-84755513D01*
X146584979Y-84780990D01*
X146594508Y-84797494D01*
X146597063Y-84801919D01*
X146624540Y-84849511D01*
X148075540Y-86300511D01*
X148131489Y-86356460D01*
X148131491Y-86356461D01*
X148131495Y-86356464D01*
X148199107Y-86395499D01*
X148200011Y-86396021D01*
X148276438Y-86416500D01*
X148276440Y-86416500D01*
X152153971Y-86416500D01*
X152169227Y-86415500D01*
X152441324Y-86415500D01*
X152508363Y-86435185D01*
X152529005Y-86451819D01*
X152592686Y-86515500D01*
X152706814Y-86581392D01*
X152834108Y-86615500D01*
X152834110Y-86615500D01*
X152965890Y-86615500D01*
X152965892Y-86615500D01*
X153093186Y-86581392D01*
X153207314Y-86515500D01*
X153300500Y-86422314D01*
X153366392Y-86308186D01*
X153400500Y-86180892D01*
X153400500Y-86049108D01*
X153366392Y-85921814D01*
X153300500Y-85807686D01*
X153207314Y-85714500D01*
X153150250Y-85681554D01*
X153093187Y-85648608D01*
X153029539Y-85631554D01*
X152965892Y-85614500D01*
X152834108Y-85614500D01*
X152706812Y-85648608D01*
X152592686Y-85714500D01*
X152592682Y-85714503D01*
X152560669Y-85746516D01*
X152499345Y-85780001D01*
X152429654Y-85775015D01*
X152373721Y-85733143D01*
X152349305Y-85667678D01*
X152353213Y-85626746D01*
X152365500Y-85580892D01*
X152365500Y-85449108D01*
X152331392Y-85321814D01*
X152265500Y-85207686D01*
X152172314Y-85114500D01*
X152109548Y-85078262D01*
X152058187Y-85048608D01*
X151994539Y-85031554D01*
X151930892Y-85014500D01*
X151799108Y-85014500D01*
X151671812Y-85048608D01*
X151557686Y-85114500D01*
X151557683Y-85114502D01*
X151464502Y-85207683D01*
X151464500Y-85207686D01*
X151398608Y-85321812D01*
X151382933Y-85380313D01*
X151364500Y-85449108D01*
X151364500Y-85580892D01*
X151382644Y-85648608D01*
X151385538Y-85659407D01*
X151383875Y-85729257D01*
X151344712Y-85787119D01*
X151280484Y-85814623D01*
X151265763Y-85815500D01*
X148491833Y-85815500D01*
X148424794Y-85795815D01*
X148404152Y-85779181D01*
X147201819Y-84576848D01*
X147168334Y-84515525D01*
X147165500Y-84489167D01*
X147165500Y-83634108D01*
X148589172Y-83634108D01*
X148589172Y-83765892D01*
X148595658Y-83790097D01*
X148623280Y-83893187D01*
X148655567Y-83949108D01*
X148689172Y-84007314D01*
X148782358Y-84100500D01*
X148896486Y-84166392D01*
X149023780Y-84200500D01*
X149023782Y-84200500D01*
X149155562Y-84200500D01*
X149155564Y-84200500D01*
X149282858Y-84166392D01*
X149396986Y-84100500D01*
X149490172Y-84007314D01*
X149523777Y-83949108D01*
X155114500Y-83949108D01*
X155114500Y-84080891D01*
X155148608Y-84208187D01*
X155181554Y-84265250D01*
X155214500Y-84322314D01*
X155307686Y-84415500D01*
X155421814Y-84481392D01*
X155549108Y-84515500D01*
X155549110Y-84515500D01*
X155680890Y-84515500D01*
X155680892Y-84515500D01*
X155808186Y-84481392D01*
X155922314Y-84415500D01*
X156015500Y-84322314D01*
X156081392Y-84208186D01*
X156115500Y-84080892D01*
X156115500Y-83949108D01*
X156081392Y-83821814D01*
X156015500Y-83707686D01*
X155922314Y-83614500D01*
X155865250Y-83581554D01*
X155808187Y-83548608D01*
X155744539Y-83531554D01*
X155680892Y-83514500D01*
X155549108Y-83514500D01*
X155421812Y-83548608D01*
X155307686Y-83614500D01*
X155307683Y-83614502D01*
X155214502Y-83707683D01*
X155214500Y-83707686D01*
X155148608Y-83821812D01*
X155114500Y-83949108D01*
X149523777Y-83949108D01*
X149556064Y-83893186D01*
X149590172Y-83765892D01*
X149590172Y-83634108D01*
X149556064Y-83506814D01*
X149490172Y-83392686D01*
X149396986Y-83299500D01*
X149324782Y-83257813D01*
X149282859Y-83233608D01*
X149196542Y-83210480D01*
X149155564Y-83199500D01*
X149023780Y-83199500D01*
X148896484Y-83233608D01*
X148782358Y-83299500D01*
X148782355Y-83299502D01*
X148689174Y-83392683D01*
X148689172Y-83392686D01*
X148623280Y-83506812D01*
X148612081Y-83548608D01*
X148589172Y-83634108D01*
X147165500Y-83634108D01*
X147165500Y-82513676D01*
X147185185Y-82446637D01*
X147201819Y-82425995D01*
X147220501Y-82407313D01*
X147265500Y-82362314D01*
X147331392Y-82248186D01*
X147365500Y-82120892D01*
X147365500Y-82034108D01*
X149364500Y-82034108D01*
X149364500Y-82165891D01*
X149398608Y-82293187D01*
X149415135Y-82321812D01*
X149464500Y-82407314D01*
X149557686Y-82500500D01*
X149671814Y-82566392D01*
X149799108Y-82600500D01*
X149799110Y-82600500D01*
X149930890Y-82600500D01*
X149930892Y-82600500D01*
X150058186Y-82566392D01*
X150172314Y-82500500D01*
X150265500Y-82407314D01*
X150331392Y-82293186D01*
X150365500Y-82165892D01*
X150365500Y-82034108D01*
X150331392Y-81906814D01*
X150265500Y-81792686D01*
X150172314Y-81699500D01*
X150101605Y-81658676D01*
X150058187Y-81633608D01*
X149994539Y-81616554D01*
X149930892Y-81599500D01*
X149799108Y-81599500D01*
X149671812Y-81633608D01*
X149557686Y-81699500D01*
X149557683Y-81699502D01*
X149464502Y-81792683D01*
X149464500Y-81792686D01*
X149398608Y-81906812D01*
X149364500Y-82034108D01*
X147365500Y-82034108D01*
X147365500Y-81989108D01*
X147331392Y-81861814D01*
X147265500Y-81747686D01*
X147172314Y-81654500D01*
X147115250Y-81621554D01*
X147058187Y-81588608D01*
X146992453Y-81570995D01*
X146930892Y-81554500D01*
X146799108Y-81554500D01*
X146671812Y-81588608D01*
X146557686Y-81654500D01*
X146557683Y-81654502D01*
X146464502Y-81747683D01*
X146464500Y-81747686D01*
X146398608Y-81861812D01*
X146364500Y-81989108D01*
X114200000Y-81989108D01*
X114200000Y-79950108D01*
X147864505Y-79950108D01*
X147864505Y-80081892D01*
X147878935Y-80135746D01*
X147898613Y-80209187D01*
X147931559Y-80266250D01*
X147964505Y-80323314D01*
X148057691Y-80416500D01*
X148171819Y-80482392D01*
X148299113Y-80516500D01*
X148299115Y-80516500D01*
X148430895Y-80516500D01*
X148430897Y-80516500D01*
X148558191Y-80482392D01*
X148672319Y-80416500D01*
X148765505Y-80323314D01*
X148831397Y-80209186D01*
X148865505Y-80081892D01*
X148865505Y-79950108D01*
X148831397Y-79822814D01*
X148765505Y-79708686D01*
X148672319Y-79615500D01*
X148583985Y-79564500D01*
X148558192Y-79549608D01*
X148494544Y-79532554D01*
X148430897Y-79515500D01*
X148299113Y-79515500D01*
X148171817Y-79549608D01*
X148057691Y-79615500D01*
X148057688Y-79615502D01*
X147964507Y-79708683D01*
X147964505Y-79708686D01*
X147898613Y-79822812D01*
X147879757Y-79893186D01*
X147864505Y-79950108D01*
X114200000Y-79950108D01*
X114200000Y-79114108D01*
X139199500Y-79114108D01*
X139199500Y-79245891D01*
X139233608Y-79373187D01*
X139244866Y-79392686D01*
X139299500Y-79487314D01*
X139392686Y-79580500D01*
X139506814Y-79646392D01*
X139634108Y-79680500D01*
X139634110Y-79680500D01*
X139765890Y-79680500D01*
X139765892Y-79680500D01*
X139893186Y-79646392D01*
X140007314Y-79580500D01*
X140100500Y-79487314D01*
X140166392Y-79373186D01*
X140200500Y-79245892D01*
X140200500Y-79155832D01*
X140220185Y-79088793D01*
X140236819Y-79068151D01*
X140355863Y-78949108D01*
X151364500Y-78949108D01*
X151364500Y-79080892D01*
X151373400Y-79114108D01*
X151398608Y-79208187D01*
X151431554Y-79265250D01*
X151464500Y-79322314D01*
X151557686Y-79415500D01*
X151671814Y-79481392D01*
X151799108Y-79515500D01*
X151799110Y-79515500D01*
X151930890Y-79515500D01*
X151930892Y-79515500D01*
X152058186Y-79481392D01*
X152172314Y-79415500D01*
X152265500Y-79322314D01*
X152331392Y-79208186D01*
X152365500Y-79080892D01*
X152365500Y-78949108D01*
X152331392Y-78821814D01*
X152327842Y-78815666D01*
X152319086Y-78800500D01*
X152265500Y-78707686D01*
X152172314Y-78614500D01*
X152115250Y-78581554D01*
X152058187Y-78548608D01*
X151994539Y-78531554D01*
X151930892Y-78514500D01*
X151799108Y-78514500D01*
X151671812Y-78548608D01*
X151557686Y-78614500D01*
X151557683Y-78614502D01*
X151464502Y-78707683D01*
X151464500Y-78707686D01*
X151398608Y-78821812D01*
X151366678Y-78940981D01*
X151364500Y-78949108D01*
X140355863Y-78949108D01*
X140451671Y-78853300D01*
X140468152Y-78836819D01*
X140529475Y-78803334D01*
X140555833Y-78800500D01*
X148539560Y-78800500D01*
X148539562Y-78800500D01*
X148615989Y-78780021D01*
X148684511Y-78740460D01*
X148740460Y-78684511D01*
X149788152Y-77636819D01*
X149849475Y-77603334D01*
X149875833Y-77600500D01*
X152524167Y-77600500D01*
X152591206Y-77620185D01*
X152611848Y-77636819D01*
X153278022Y-78302993D01*
X153311507Y-78364316D01*
X153306523Y-78434008D01*
X153264651Y-78489941D01*
X153199187Y-78514358D01*
X153189019Y-78514055D01*
X153189019Y-78514500D01*
X153049108Y-78514500D01*
X152921812Y-78548608D01*
X152807686Y-78614500D01*
X152807683Y-78614502D01*
X152714502Y-78707683D01*
X152714500Y-78707686D01*
X152648608Y-78821812D01*
X152616678Y-78940981D01*
X152614500Y-78949108D01*
X152614500Y-79080892D01*
X152623400Y-79114108D01*
X152648608Y-79208187D01*
X152681554Y-79265250D01*
X152714500Y-79322314D01*
X152807686Y-79415500D01*
X152921814Y-79481392D01*
X153049108Y-79515500D01*
X153049110Y-79515500D01*
X153180890Y-79515500D01*
X153180892Y-79515500D01*
X153308186Y-79481392D01*
X153422314Y-79415500D01*
X153515500Y-79322314D01*
X153581392Y-79208186D01*
X153615500Y-79080892D01*
X153615500Y-78949108D01*
X153615500Y-78940981D01*
X153618716Y-78940981D01*
X153627119Y-78886877D01*
X153673467Y-78834592D01*
X153740725Y-78815666D01*
X153807538Y-78836106D01*
X153827006Y-78851977D01*
X157730489Y-82755460D01*
X157799012Y-82795022D01*
X157875438Y-82815500D01*
X157954562Y-82815500D01*
X158956324Y-82815500D01*
X159023363Y-82835185D01*
X159044005Y-82851819D01*
X159107686Y-82915500D01*
X159221814Y-82981392D01*
X159349108Y-83015500D01*
X159349110Y-83015500D01*
X159480890Y-83015500D01*
X159480892Y-83015500D01*
X159608186Y-82981392D01*
X159722314Y-82915500D01*
X159815500Y-82822314D01*
X159881392Y-82708186D01*
X159915500Y-82580892D01*
X159915500Y-82449108D01*
X159881392Y-82321814D01*
X159815500Y-82207686D01*
X159722314Y-82114500D01*
X159665250Y-82081554D01*
X159608187Y-82048608D01*
X159544539Y-82031554D01*
X159480892Y-82014500D01*
X159349108Y-82014500D01*
X159221812Y-82048608D01*
X159107686Y-82114500D01*
X159107683Y-82114502D01*
X159044005Y-82178181D01*
X158982682Y-82211666D01*
X158956324Y-82214500D01*
X158090833Y-82214500D01*
X158023794Y-82194815D01*
X158003152Y-82178181D01*
X156959079Y-81134108D01*
X166499500Y-81134108D01*
X166499500Y-81265891D01*
X166533608Y-81393187D01*
X166566554Y-81450250D01*
X166599500Y-81507314D01*
X166599502Y-81507316D01*
X166663181Y-81570995D01*
X166696666Y-81632318D01*
X166699500Y-81658676D01*
X166699500Y-91841323D01*
X166679815Y-91908362D01*
X166663182Y-91929004D01*
X166599500Y-91992686D01*
X166533608Y-92106812D01*
X166509547Y-92196610D01*
X166499500Y-92234108D01*
X166499500Y-92365892D01*
X166506680Y-92392689D01*
X166533608Y-92493187D01*
X166545812Y-92514324D01*
X166599500Y-92607314D01*
X166692686Y-92700500D01*
X166806814Y-92766392D01*
X166934108Y-92800500D01*
X166934110Y-92800500D01*
X167065890Y-92800500D01*
X167065892Y-92800500D01*
X167193186Y-92766392D01*
X167307314Y-92700500D01*
X167400500Y-92607314D01*
X167466392Y-92493186D01*
X167500500Y-92365892D01*
X167500500Y-92234108D01*
X167466392Y-92106814D01*
X167400500Y-91992686D01*
X167336818Y-91929004D01*
X167303334Y-91867680D01*
X167300500Y-91841323D01*
X167300500Y-84520815D01*
X167569960Y-84520815D01*
X167569960Y-84652598D01*
X167604068Y-84779894D01*
X167616785Y-84801920D01*
X167669960Y-84894021D01*
X167763146Y-84987207D01*
X167877274Y-85053099D01*
X168004568Y-85087207D01*
X168004570Y-85087207D01*
X168136350Y-85087207D01*
X168136352Y-85087207D01*
X168175938Y-85076600D01*
X168245786Y-85078262D01*
X168303649Y-85117423D01*
X168331154Y-85181651D01*
X168327806Y-85228467D01*
X168309435Y-85297028D01*
X168299500Y-85334108D01*
X168299500Y-85465892D01*
X168306680Y-85492689D01*
X168333608Y-85593187D01*
X168352980Y-85626740D01*
X168399500Y-85707314D01*
X168492686Y-85800500D01*
X168606814Y-85866392D01*
X168734108Y-85900500D01*
X168734110Y-85900500D01*
X168865890Y-85900500D01*
X168865892Y-85900500D01*
X168993186Y-85866392D01*
X169107314Y-85800500D01*
X169200500Y-85707314D01*
X169266392Y-85593186D01*
X169300500Y-85465892D01*
X169300500Y-85334108D01*
X169266392Y-85206814D01*
X169200500Y-85092686D01*
X169107314Y-84999500D01*
X169050250Y-84966554D01*
X168993187Y-84933608D01*
X168905478Y-84910107D01*
X168865892Y-84899500D01*
X168734108Y-84899500D01*
X168734106Y-84899500D01*
X168694520Y-84910107D01*
X168624670Y-84908444D01*
X168566808Y-84869280D01*
X168539305Y-84805051D01*
X168542652Y-84758245D01*
X168570960Y-84652599D01*
X168570960Y-84520815D01*
X168536852Y-84393521D01*
X168470960Y-84279393D01*
X168377774Y-84186207D01*
X168320710Y-84153261D01*
X168263647Y-84120315D01*
X168189691Y-84100499D01*
X168136352Y-84086207D01*
X168004568Y-84086207D01*
X167877272Y-84120315D01*
X167763146Y-84186207D01*
X167763143Y-84186209D01*
X167669962Y-84279390D01*
X167669960Y-84279393D01*
X167604068Y-84393519D01*
X167569960Y-84520815D01*
X167300500Y-84520815D01*
X167300500Y-81658676D01*
X167320185Y-81591637D01*
X167336819Y-81570995D01*
X167353314Y-81554500D01*
X167400500Y-81507314D01*
X167466392Y-81393186D01*
X167500500Y-81265892D01*
X167500500Y-81134108D01*
X167466392Y-81006814D01*
X167400500Y-80892686D01*
X167307314Y-80799500D01*
X167250250Y-80766554D01*
X167193187Y-80733608D01*
X167129539Y-80716554D01*
X167065892Y-80699500D01*
X166934108Y-80699500D01*
X166806812Y-80733608D01*
X166692686Y-80799500D01*
X166692683Y-80799502D01*
X166599502Y-80892683D01*
X166599500Y-80892686D01*
X166533608Y-81006812D01*
X166499500Y-81134108D01*
X156959079Y-81134108D01*
X155459079Y-79634108D01*
X169599500Y-79634108D01*
X169599500Y-79765892D01*
X169614752Y-79822812D01*
X169633608Y-79893187D01*
X169662206Y-79942719D01*
X169699500Y-80007314D01*
X169699502Y-80007316D01*
X169763181Y-80070995D01*
X169796666Y-80132318D01*
X169799500Y-80158676D01*
X169799500Y-85639562D01*
X169803568Y-85654744D01*
X169803568Y-85718922D01*
X169799500Y-85734102D01*
X169799500Y-85865891D01*
X169833608Y-85993187D01*
X169865895Y-86049108D01*
X169899500Y-86107314D01*
X169992686Y-86200500D01*
X170106814Y-86266392D01*
X170106816Y-86266392D01*
X170114326Y-86269504D01*
X170113771Y-86270841D01*
X170161010Y-86298113D01*
X174413181Y-90550284D01*
X174446666Y-90611607D01*
X174449500Y-90637965D01*
X174449500Y-92246062D01*
X174435383Y-92298751D01*
X174436719Y-92299304D01*
X174433608Y-92306814D01*
X174399500Y-92434108D01*
X174399500Y-92565892D01*
X174415950Y-92627284D01*
X174433608Y-92693187D01*
X174449215Y-92720218D01*
X174499500Y-92807314D01*
X174592686Y-92900500D01*
X174706814Y-92966392D01*
X174834108Y-93000500D01*
X174834110Y-93000500D01*
X174965890Y-93000500D01*
X174965892Y-93000500D01*
X175093186Y-92966392D01*
X175207314Y-92900500D01*
X175300500Y-92807314D01*
X175366392Y-92693186D01*
X175400500Y-92565892D01*
X175400500Y-92434108D01*
X175366392Y-92306814D01*
X175366388Y-92306807D01*
X175363281Y-92299304D01*
X175364616Y-92298751D01*
X175350500Y-92246062D01*
X175350500Y-90734108D01*
X176599500Y-90734108D01*
X176599500Y-90865891D01*
X176633608Y-90993187D01*
X176637542Y-91000000D01*
X176699500Y-91107314D01*
X176792686Y-91200500D01*
X176906814Y-91266392D01*
X177034108Y-91300500D01*
X177034110Y-91300500D01*
X177165890Y-91300500D01*
X177165892Y-91300500D01*
X177293186Y-91266392D01*
X177407314Y-91200500D01*
X177500500Y-91107314D01*
X177566392Y-90993186D01*
X177591991Y-90897648D01*
X180699500Y-90897648D01*
X180699500Y-91102351D01*
X180731522Y-91304534D01*
X180794781Y-91499223D01*
X180854971Y-91617351D01*
X180885208Y-91676694D01*
X180887715Y-91681613D01*
X181008028Y-91847213D01*
X181152786Y-91991971D01*
X181307749Y-92104556D01*
X181318390Y-92112287D01*
X181434607Y-92171503D01*
X181500776Y-92205218D01*
X181500778Y-92205218D01*
X181500781Y-92205220D01*
X181588150Y-92233608D01*
X181695465Y-92268477D01*
X181763723Y-92279288D01*
X181897648Y-92300500D01*
X181897649Y-92300500D01*
X182102351Y-92300500D01*
X182102352Y-92300500D01*
X182304534Y-92268477D01*
X182499219Y-92205220D01*
X182681610Y-92112287D01*
X182774590Y-92044732D01*
X182847213Y-91991971D01*
X182847215Y-91991968D01*
X182847219Y-91991966D01*
X182991966Y-91847219D01*
X182991968Y-91847215D01*
X182991971Y-91847213D01*
X183070673Y-91738887D01*
X183112287Y-91681610D01*
X183205220Y-91499219D01*
X183268477Y-91304534D01*
X183300500Y-91102352D01*
X183300500Y-90897648D01*
X183274598Y-90734110D01*
X183268477Y-90695465D01*
X183233105Y-90586603D01*
X183205220Y-90500781D01*
X183205218Y-90500778D01*
X183205218Y-90500776D01*
X183154124Y-90400500D01*
X183112287Y-90318390D01*
X183081124Y-90275497D01*
X182991971Y-90152786D01*
X182847213Y-90008028D01*
X182681613Y-89887715D01*
X182681612Y-89887714D01*
X182681610Y-89887713D01*
X182624653Y-89858691D01*
X182499223Y-89794781D01*
X182304534Y-89731522D01*
X182129995Y-89703878D01*
X182102352Y-89699500D01*
X181897648Y-89699500D01*
X181873329Y-89703351D01*
X181695465Y-89731522D01*
X181500776Y-89794781D01*
X181318386Y-89887715D01*
X181152786Y-90008028D01*
X181008028Y-90152786D01*
X180887715Y-90318386D01*
X180794781Y-90500776D01*
X180731522Y-90695465D01*
X180699500Y-90897648D01*
X177591991Y-90897648D01*
X177600500Y-90865892D01*
X177600500Y-90734108D01*
X177566392Y-90606814D01*
X177500500Y-90492686D01*
X177407314Y-90399500D01*
X177350250Y-90366554D01*
X177293187Y-90333608D01*
X177229539Y-90316554D01*
X177165892Y-90299500D01*
X177034108Y-90299500D01*
X176906812Y-90333608D01*
X176792686Y-90399500D01*
X176792683Y-90399502D01*
X176699502Y-90492683D01*
X176699500Y-90492686D01*
X176633608Y-90606812D01*
X176599500Y-90734108D01*
X175350500Y-90734108D01*
X175350500Y-90340693D01*
X175350500Y-90340691D01*
X175319799Y-90226114D01*
X175294511Y-90182314D01*
X175294511Y-90182313D01*
X175260493Y-90123392D01*
X175260487Y-90123384D01*
X170937920Y-85800817D01*
X177794500Y-85800817D01*
X177794500Y-85939183D01*
X177808971Y-85993187D01*
X177830312Y-86072835D01*
X177830313Y-86072838D01*
X177899492Y-86192661D01*
X177899494Y-86192664D01*
X177899495Y-86192665D01*
X177997335Y-86290505D01*
X177997336Y-86290506D01*
X177997338Y-86290507D01*
X178027961Y-86308187D01*
X178117164Y-86359688D01*
X178250817Y-86395500D01*
X178250819Y-86395500D01*
X178389181Y-86395500D01*
X178389183Y-86395500D01*
X178522836Y-86359688D01*
X178642665Y-86290505D01*
X178740505Y-86192665D01*
X178809688Y-86072836D01*
X178845500Y-85939183D01*
X178845500Y-85800817D01*
X178809688Y-85667164D01*
X178759879Y-85580892D01*
X178740507Y-85547338D01*
X178740503Y-85547333D01*
X178642666Y-85449496D01*
X178642661Y-85449492D01*
X178522838Y-85380313D01*
X178522837Y-85380312D01*
X178522836Y-85380312D01*
X178389183Y-85344500D01*
X178250817Y-85344500D01*
X178117164Y-85380312D01*
X178117161Y-85380313D01*
X177997338Y-85449492D01*
X177997333Y-85449496D01*
X177899496Y-85547333D01*
X177899492Y-85547338D01*
X177830313Y-85667161D01*
X177830312Y-85667164D01*
X177794500Y-85800817D01*
X170937920Y-85800817D01*
X170798113Y-85661010D01*
X170770841Y-85613771D01*
X170769504Y-85614326D01*
X170766392Y-85606815D01*
X170766392Y-85606814D01*
X170700500Y-85492686D01*
X170607314Y-85399500D01*
X170541421Y-85361456D01*
X170493185Y-85333607D01*
X170493186Y-85333607D01*
X170492399Y-85333397D01*
X170491810Y-85333038D01*
X170485682Y-85330500D01*
X170486078Y-85329543D01*
X170432741Y-85297028D01*
X170402216Y-85234179D01*
X170400500Y-85213624D01*
X170400500Y-83257813D01*
X174483292Y-83257813D01*
X174483292Y-83389596D01*
X174517400Y-83516892D01*
X174535712Y-83548608D01*
X174583292Y-83631019D01*
X174676478Y-83724205D01*
X174790606Y-83790097D01*
X174917900Y-83824205D01*
X174917902Y-83824205D01*
X175049682Y-83824205D01*
X175049684Y-83824205D01*
X175176978Y-83790097D01*
X175291106Y-83724205D01*
X175384292Y-83631019D01*
X175450184Y-83516891D01*
X175484292Y-83389597D01*
X175484292Y-83347163D01*
X175503977Y-83280124D01*
X175556781Y-83234369D01*
X175608292Y-83223163D01*
X175650724Y-83223163D01*
X175650726Y-83223163D01*
X175778020Y-83189055D01*
X175892148Y-83123163D01*
X175985334Y-83029977D01*
X176051226Y-82915849D01*
X176085334Y-82788555D01*
X176085334Y-82656771D01*
X176051226Y-82529477D01*
X175985334Y-82415349D01*
X175892148Y-82322163D01*
X175835084Y-82289217D01*
X175778021Y-82256271D01*
X175714373Y-82239217D01*
X175650726Y-82222163D01*
X175518942Y-82222163D01*
X175391646Y-82256271D01*
X175277520Y-82322163D01*
X175277517Y-82322165D01*
X175184336Y-82415346D01*
X175184334Y-82415349D01*
X175118442Y-82529475D01*
X175084334Y-82656771D01*
X175084334Y-82699205D01*
X175064649Y-82766244D01*
X175011845Y-82811999D01*
X174960334Y-82823205D01*
X174917900Y-82823205D01*
X174790604Y-82857313D01*
X174676478Y-82923205D01*
X174676475Y-82923207D01*
X174583294Y-83016388D01*
X174583292Y-83016391D01*
X174517400Y-83130517D01*
X174483292Y-83257813D01*
X170400500Y-83257813D01*
X170400500Y-80158676D01*
X170407232Y-80135746D01*
X170409632Y-80111972D01*
X170417851Y-80099582D01*
X170420185Y-80091637D01*
X170427442Y-80081502D01*
X170431827Y-80075986D01*
X170486997Y-80020817D01*
X177794500Y-80020817D01*
X177794500Y-80159183D01*
X177807899Y-80209187D01*
X177830312Y-80292835D01*
X177830313Y-80292838D01*
X177899492Y-80412661D01*
X177899494Y-80412664D01*
X177899495Y-80412665D01*
X177997335Y-80510505D01*
X177997336Y-80510506D01*
X177997338Y-80510507D01*
X178057249Y-80545096D01*
X178117164Y-80579688D01*
X178250817Y-80615500D01*
X178250819Y-80615500D01*
X178389181Y-80615500D01*
X178389183Y-80615500D01*
X178522836Y-80579688D01*
X178642665Y-80510505D01*
X178740505Y-80412665D01*
X178809688Y-80292836D01*
X178845500Y-80159183D01*
X178845500Y-80020817D01*
X178809688Y-79887164D01*
X178740505Y-79767335D01*
X178642665Y-79669495D01*
X178642664Y-79669494D01*
X178642661Y-79669492D01*
X178522838Y-79600313D01*
X178522837Y-79600312D01*
X178522836Y-79600312D01*
X178389183Y-79564500D01*
X178250817Y-79564500D01*
X178117164Y-79600312D01*
X178117161Y-79600313D01*
X177997338Y-79669492D01*
X177997333Y-79669496D01*
X177899496Y-79767333D01*
X177899492Y-79767338D01*
X177830313Y-79887161D01*
X177830312Y-79887164D01*
X177794500Y-80020817D01*
X170486997Y-80020817D01*
X170500500Y-80007314D01*
X170566392Y-79893186D01*
X170600500Y-79765892D01*
X170600500Y-79634108D01*
X170566392Y-79506814D01*
X170500500Y-79392686D01*
X170407314Y-79299500D01*
X170350250Y-79266554D01*
X170293187Y-79233608D01*
X170229539Y-79216554D01*
X170165892Y-79199500D01*
X170034108Y-79199500D01*
X169906812Y-79233608D01*
X169792686Y-79299500D01*
X169792683Y-79299502D01*
X169699502Y-79392683D01*
X169699500Y-79392686D01*
X169633608Y-79506812D01*
X169608555Y-79600313D01*
X169599500Y-79634108D01*
X155459079Y-79634108D01*
X152884512Y-77059541D01*
X152884504Y-77059535D01*
X152815995Y-77019982D01*
X152815990Y-77019979D01*
X152790513Y-77013152D01*
X152739562Y-76999500D01*
X149660438Y-76999500D01*
X149622224Y-77009739D01*
X149584009Y-77019979D01*
X149584004Y-77019982D01*
X149515495Y-77059535D01*
X149515487Y-77059541D01*
X148411848Y-78163181D01*
X148350525Y-78196666D01*
X148324167Y-78199500D01*
X140340438Y-78199500D01*
X140302224Y-78209739D01*
X140264009Y-78219979D01*
X140264004Y-78219982D01*
X140195495Y-78259535D01*
X140195487Y-78259541D01*
X139811847Y-78643181D01*
X139750524Y-78676666D01*
X139724166Y-78679500D01*
X139634108Y-78679500D01*
X139506812Y-78713608D01*
X139392686Y-78779500D01*
X139392683Y-78779502D01*
X139299502Y-78872683D01*
X139299500Y-78872686D01*
X139233608Y-78986812D01*
X139199500Y-79114108D01*
X114200000Y-79114108D01*
X114200000Y-74412648D01*
X143064500Y-74412648D01*
X143064500Y-74617351D01*
X143096522Y-74819534D01*
X143159781Y-75014223D01*
X143204686Y-75102352D01*
X143237061Y-75165892D01*
X143252715Y-75196613D01*
X143373028Y-75362213D01*
X143517786Y-75506971D01*
X143672749Y-75619556D01*
X143683390Y-75627287D01*
X143790005Y-75681610D01*
X143865776Y-75720218D01*
X143865778Y-75720218D01*
X143865781Y-75720220D01*
X143970137Y-75754127D01*
X144060465Y-75783477D01*
X144161557Y-75799488D01*
X144262648Y-75815500D01*
X144262649Y-75815500D01*
X144467351Y-75815500D01*
X144467352Y-75815500D01*
X144669534Y-75783477D01*
X144864219Y-75720220D01*
X145046610Y-75627287D01*
X145139590Y-75559732D01*
X145212213Y-75506971D01*
X145212215Y-75506968D01*
X145212219Y-75506966D01*
X145356966Y-75362219D01*
X145356968Y-75362215D01*
X145356971Y-75362213D01*
X145409732Y-75289590D01*
X145477287Y-75196610D01*
X145560086Y-75034108D01*
X176699500Y-75034108D01*
X176699500Y-75165891D01*
X176733608Y-75293187D01*
X176766554Y-75350250D01*
X176799500Y-75407314D01*
X176892686Y-75500500D01*
X177006814Y-75566392D01*
X177134108Y-75600500D01*
X177134110Y-75600500D01*
X177265890Y-75600500D01*
X177265892Y-75600500D01*
X177393186Y-75566392D01*
X177507314Y-75500500D01*
X177600500Y-75407314D01*
X177666392Y-75293186D01*
X177700500Y-75165892D01*
X177700500Y-75034108D01*
X177666392Y-74906814D01*
X177661100Y-74897648D01*
X180699500Y-74897648D01*
X180699500Y-75102351D01*
X180731522Y-75304534D01*
X180794781Y-75499223D01*
X180887715Y-75681613D01*
X181008028Y-75847213D01*
X181152786Y-75991971D01*
X181307749Y-76104556D01*
X181318390Y-76112287D01*
X181434607Y-76171503D01*
X181500776Y-76205218D01*
X181500778Y-76205218D01*
X181500781Y-76205220D01*
X181605137Y-76239127D01*
X181695465Y-76268477D01*
X181796557Y-76284488D01*
X181897648Y-76300500D01*
X181897649Y-76300500D01*
X182102351Y-76300500D01*
X182102352Y-76300500D01*
X182304534Y-76268477D01*
X182499219Y-76205220D01*
X182681610Y-76112287D01*
X182774590Y-76044732D01*
X182847213Y-75991971D01*
X182847215Y-75991968D01*
X182847219Y-75991966D01*
X182991966Y-75847219D01*
X182991968Y-75847215D01*
X182991971Y-75847213D01*
X183084235Y-75720220D01*
X183112287Y-75681610D01*
X183205220Y-75499219D01*
X183268477Y-75304534D01*
X183300500Y-75102352D01*
X183300500Y-74897648D01*
X183268477Y-74695466D01*
X183205220Y-74500781D01*
X183205218Y-74500778D01*
X183205218Y-74500776D01*
X183159987Y-74412007D01*
X183112287Y-74318390D01*
X183104556Y-74307749D01*
X182991971Y-74152786D01*
X182847213Y-74008028D01*
X182681613Y-73887715D01*
X182681612Y-73887714D01*
X182681610Y-73887713D01*
X182624653Y-73858691D01*
X182499223Y-73794781D01*
X182304534Y-73731522D01*
X182129995Y-73703878D01*
X182102352Y-73699500D01*
X181897648Y-73699500D01*
X181873329Y-73703351D01*
X181695465Y-73731522D01*
X181500776Y-73794781D01*
X181318386Y-73887715D01*
X181152786Y-74008028D01*
X181008028Y-74152786D01*
X180887715Y-74318386D01*
X180794781Y-74500776D01*
X180731522Y-74695465D01*
X180699500Y-74897648D01*
X177661100Y-74897648D01*
X177600500Y-74792686D01*
X177507314Y-74699500D01*
X177423244Y-74650962D01*
X177393187Y-74633608D01*
X177329539Y-74616554D01*
X177265892Y-74599500D01*
X177134108Y-74599500D01*
X177006812Y-74633608D01*
X176892686Y-74699500D01*
X176892683Y-74699502D01*
X176799502Y-74792683D01*
X176799500Y-74792686D01*
X176733608Y-74906812D01*
X176699500Y-75034108D01*
X145560086Y-75034108D01*
X145570220Y-75014219D01*
X145633477Y-74819534D01*
X145665500Y-74617352D01*
X145665500Y-74412648D01*
X145633477Y-74210466D01*
X145570220Y-74015781D01*
X145570218Y-74015778D01*
X145570218Y-74015776D01*
X145504967Y-73887715D01*
X145477287Y-73833390D01*
X145449236Y-73794781D01*
X145356971Y-73667786D01*
X145212213Y-73523028D01*
X145046613Y-73402715D01*
X145046612Y-73402714D01*
X145046610Y-73402713D01*
X144989653Y-73373691D01*
X144864223Y-73309781D01*
X144669534Y-73246522D01*
X144494995Y-73218878D01*
X144467352Y-73214500D01*
X144262648Y-73214500D01*
X144238329Y-73218351D01*
X144060465Y-73246522D01*
X143865776Y-73309781D01*
X143683386Y-73402715D01*
X143517786Y-73523028D01*
X143373028Y-73667786D01*
X143252715Y-73833386D01*
X143159781Y-74015776D01*
X143096522Y-74210465D01*
X143064500Y-74412648D01*
X114200000Y-74412648D01*
X114200000Y-71624500D01*
X114219685Y-71557461D01*
X114272489Y-71511706D01*
X114324000Y-71500500D01*
X181934108Y-71500500D01*
X181996949Y-71500500D01*
X182003032Y-71500648D01*
G37*
%TD.AperFunction*%
%TD*%
M02*
