%TF.GenerationSoftware,KiCad,Pcbnew,9.0.4*%
%TF.CreationDate,2025-09-01T13:06:02+02:00*%
%TF.ProjectId,EHT,4548542e-6b69-4636-9164-5f7063625858,rev?*%
%TF.SameCoordinates,Original*%
%TF.FileFunction,Legend,Top*%
%TF.FilePolarity,Positive*%
%FSLAX46Y46*%
G04 Gerber Fmt 4.6, Leading zero omitted, Abs format (unit mm)*
G04 Created by KiCad (PCBNEW 9.0.4) date 2025-09-01 13:06:02*
%MOMM*%
%LPD*%
G01*
G04 APERTURE LIST*
%ADD10C,0.150000*%
%ADD11C,0.120000*%
G04 APERTURE END LIST*
D10*
X167254819Y-81461904D02*
X168064342Y-81461904D01*
X168064342Y-81461904D02*
X168159580Y-81414285D01*
X168159580Y-81414285D02*
X168207200Y-81366666D01*
X168207200Y-81366666D02*
X168254819Y-81271428D01*
X168254819Y-81271428D02*
X168254819Y-81080952D01*
X168254819Y-81080952D02*
X168207200Y-80985714D01*
X168207200Y-80985714D02*
X168159580Y-80938095D01*
X168159580Y-80938095D02*
X168064342Y-80890476D01*
X168064342Y-80890476D02*
X167254819Y-80890476D01*
X167254819Y-80509523D02*
X167254819Y-79890476D01*
X167254819Y-79890476D02*
X167635771Y-80223809D01*
X167635771Y-80223809D02*
X167635771Y-80080952D01*
X167635771Y-80080952D02*
X167683390Y-79985714D01*
X167683390Y-79985714D02*
X167731009Y-79938095D01*
X167731009Y-79938095D02*
X167826247Y-79890476D01*
X167826247Y-79890476D02*
X168064342Y-79890476D01*
X168064342Y-79890476D02*
X168159580Y-79938095D01*
X168159580Y-79938095D02*
X168207200Y-79985714D01*
X168207200Y-79985714D02*
X168254819Y-80080952D01*
X168254819Y-80080952D02*
X168254819Y-80366666D01*
X168254819Y-80366666D02*
X168207200Y-80461904D01*
X168207200Y-80461904D02*
X168159580Y-80509523D01*
X171554819Y-75666666D02*
X171078628Y-75999999D01*
X171554819Y-76238094D02*
X170554819Y-76238094D01*
X170554819Y-76238094D02*
X170554819Y-75857142D01*
X170554819Y-75857142D02*
X170602438Y-75761904D01*
X170602438Y-75761904D02*
X170650057Y-75714285D01*
X170650057Y-75714285D02*
X170745295Y-75666666D01*
X170745295Y-75666666D02*
X170888152Y-75666666D01*
X170888152Y-75666666D02*
X170983390Y-75714285D01*
X170983390Y-75714285D02*
X171031009Y-75761904D01*
X171031009Y-75761904D02*
X171078628Y-75857142D01*
X171078628Y-75857142D02*
X171078628Y-76238094D01*
X170554819Y-75333332D02*
X170554819Y-74714285D01*
X170554819Y-74714285D02*
X170935771Y-75047618D01*
X170935771Y-75047618D02*
X170935771Y-74904761D01*
X170935771Y-74904761D02*
X170983390Y-74809523D01*
X170983390Y-74809523D02*
X171031009Y-74761904D01*
X171031009Y-74761904D02*
X171126247Y-74714285D01*
X171126247Y-74714285D02*
X171364342Y-74714285D01*
X171364342Y-74714285D02*
X171459580Y-74761904D01*
X171459580Y-74761904D02*
X171507200Y-74809523D01*
X171507200Y-74809523D02*
X171554819Y-74904761D01*
X171554819Y-74904761D02*
X171554819Y-75190475D01*
X171554819Y-75190475D02*
X171507200Y-75285713D01*
X171507200Y-75285713D02*
X171459580Y-75333332D01*
X169754819Y-75666666D02*
X169278628Y-75999999D01*
X169754819Y-76238094D02*
X168754819Y-76238094D01*
X168754819Y-76238094D02*
X168754819Y-75857142D01*
X168754819Y-75857142D02*
X168802438Y-75761904D01*
X168802438Y-75761904D02*
X168850057Y-75714285D01*
X168850057Y-75714285D02*
X168945295Y-75666666D01*
X168945295Y-75666666D02*
X169088152Y-75666666D01*
X169088152Y-75666666D02*
X169183390Y-75714285D01*
X169183390Y-75714285D02*
X169231009Y-75761904D01*
X169231009Y-75761904D02*
X169278628Y-75857142D01*
X169278628Y-75857142D02*
X169278628Y-76238094D01*
X169088152Y-74809523D02*
X169754819Y-74809523D01*
X168707200Y-75047618D02*
X169421485Y-75285713D01*
X169421485Y-75285713D02*
X169421485Y-74666666D01*
X149554819Y-84361904D02*
X150364342Y-84361904D01*
X150364342Y-84361904D02*
X150459580Y-84314285D01*
X150459580Y-84314285D02*
X150507200Y-84266666D01*
X150507200Y-84266666D02*
X150554819Y-84171428D01*
X150554819Y-84171428D02*
X150554819Y-83980952D01*
X150554819Y-83980952D02*
X150507200Y-83885714D01*
X150507200Y-83885714D02*
X150459580Y-83838095D01*
X150459580Y-83838095D02*
X150364342Y-83790476D01*
X150364342Y-83790476D02*
X149554819Y-83790476D01*
X149650057Y-83361904D02*
X149602438Y-83314285D01*
X149602438Y-83314285D02*
X149554819Y-83219047D01*
X149554819Y-83219047D02*
X149554819Y-82980952D01*
X149554819Y-82980952D02*
X149602438Y-82885714D01*
X149602438Y-82885714D02*
X149650057Y-82838095D01*
X149650057Y-82838095D02*
X149745295Y-82790476D01*
X149745295Y-82790476D02*
X149840533Y-82790476D01*
X149840533Y-82790476D02*
X149983390Y-82838095D01*
X149983390Y-82838095D02*
X150554819Y-83409523D01*
X150554819Y-83409523D02*
X150554819Y-82790476D01*
X173154819Y-75716666D02*
X172678628Y-76049999D01*
X173154819Y-76288094D02*
X172154819Y-76288094D01*
X172154819Y-76288094D02*
X172154819Y-75907142D01*
X172154819Y-75907142D02*
X172202438Y-75811904D01*
X172202438Y-75811904D02*
X172250057Y-75764285D01*
X172250057Y-75764285D02*
X172345295Y-75716666D01*
X172345295Y-75716666D02*
X172488152Y-75716666D01*
X172488152Y-75716666D02*
X172583390Y-75764285D01*
X172583390Y-75764285D02*
X172631009Y-75811904D01*
X172631009Y-75811904D02*
X172678628Y-75907142D01*
X172678628Y-75907142D02*
X172678628Y-76288094D01*
X173154819Y-74764285D02*
X173154819Y-75335713D01*
X173154819Y-75049999D02*
X172154819Y-75049999D01*
X172154819Y-75049999D02*
X172297676Y-75145237D01*
X172297676Y-75145237D02*
X172392914Y-75240475D01*
X172392914Y-75240475D02*
X172440533Y-75335713D01*
X167448809Y-73059580D02*
X167401190Y-73107200D01*
X167401190Y-73107200D02*
X167258333Y-73154819D01*
X167258333Y-73154819D02*
X167163095Y-73154819D01*
X167163095Y-73154819D02*
X167020238Y-73107200D01*
X167020238Y-73107200D02*
X166925000Y-73011961D01*
X166925000Y-73011961D02*
X166877381Y-72916723D01*
X166877381Y-72916723D02*
X166829762Y-72726247D01*
X166829762Y-72726247D02*
X166829762Y-72583390D01*
X166829762Y-72583390D02*
X166877381Y-72392914D01*
X166877381Y-72392914D02*
X166925000Y-72297676D01*
X166925000Y-72297676D02*
X167020238Y-72202438D01*
X167020238Y-72202438D02*
X167163095Y-72154819D01*
X167163095Y-72154819D02*
X167258333Y-72154819D01*
X167258333Y-72154819D02*
X167401190Y-72202438D01*
X167401190Y-72202438D02*
X167448809Y-72250057D01*
X168210714Y-72631009D02*
X168353571Y-72678628D01*
X168353571Y-72678628D02*
X168401190Y-72726247D01*
X168401190Y-72726247D02*
X168448809Y-72821485D01*
X168448809Y-72821485D02*
X168448809Y-72964342D01*
X168448809Y-72964342D02*
X168401190Y-73059580D01*
X168401190Y-73059580D02*
X168353571Y-73107200D01*
X168353571Y-73107200D02*
X168258333Y-73154819D01*
X168258333Y-73154819D02*
X167877381Y-73154819D01*
X167877381Y-73154819D02*
X167877381Y-72154819D01*
X167877381Y-72154819D02*
X168210714Y-72154819D01*
X168210714Y-72154819D02*
X168305952Y-72202438D01*
X168305952Y-72202438D02*
X168353571Y-72250057D01*
X168353571Y-72250057D02*
X168401190Y-72345295D01*
X168401190Y-72345295D02*
X168401190Y-72440533D01*
X168401190Y-72440533D02*
X168353571Y-72535771D01*
X168353571Y-72535771D02*
X168305952Y-72583390D01*
X168305952Y-72583390D02*
X168210714Y-72631009D01*
X168210714Y-72631009D02*
X167877381Y-72631009D01*
X168829762Y-72869104D02*
X169305952Y-72869104D01*
X168734524Y-73154819D02*
X169067857Y-72154819D01*
X169067857Y-72154819D02*
X169401190Y-73154819D01*
X169591667Y-72154819D02*
X170163095Y-72154819D01*
X169877381Y-73154819D02*
X169877381Y-72154819D01*
X171020238Y-73154819D02*
X170448810Y-73154819D01*
X170734524Y-73154819D02*
X170734524Y-72154819D01*
X170734524Y-72154819D02*
X170639286Y-72297676D01*
X170639286Y-72297676D02*
X170544048Y-72392914D01*
X170544048Y-72392914D02*
X170448810Y-72440533D01*
X173059580Y-90541666D02*
X173107200Y-90589285D01*
X173107200Y-90589285D02*
X173154819Y-90732142D01*
X173154819Y-90732142D02*
X173154819Y-90827380D01*
X173154819Y-90827380D02*
X173107200Y-90970237D01*
X173107200Y-90970237D02*
X173011961Y-91065475D01*
X173011961Y-91065475D02*
X172916723Y-91113094D01*
X172916723Y-91113094D02*
X172726247Y-91160713D01*
X172726247Y-91160713D02*
X172583390Y-91160713D01*
X172583390Y-91160713D02*
X172392914Y-91113094D01*
X172392914Y-91113094D02*
X172297676Y-91065475D01*
X172297676Y-91065475D02*
X172202438Y-90970237D01*
X172202438Y-90970237D02*
X172154819Y-90827380D01*
X172154819Y-90827380D02*
X172154819Y-90732142D01*
X172154819Y-90732142D02*
X172202438Y-90589285D01*
X172202438Y-90589285D02*
X172250057Y-90541666D01*
X173154819Y-89589285D02*
X173154819Y-90160713D01*
X173154819Y-89874999D02*
X172154819Y-89874999D01*
X172154819Y-89874999D02*
X172297676Y-89970237D01*
X172297676Y-89970237D02*
X172392914Y-90065475D01*
X172392914Y-90065475D02*
X172440533Y-90160713D01*
X157754819Y-86461904D02*
X158564342Y-86461904D01*
X158564342Y-86461904D02*
X158659580Y-86414285D01*
X158659580Y-86414285D02*
X158707200Y-86366666D01*
X158707200Y-86366666D02*
X158754819Y-86271428D01*
X158754819Y-86271428D02*
X158754819Y-86080952D01*
X158754819Y-86080952D02*
X158707200Y-85985714D01*
X158707200Y-85985714D02*
X158659580Y-85938095D01*
X158659580Y-85938095D02*
X158564342Y-85890476D01*
X158564342Y-85890476D02*
X157754819Y-85890476D01*
X157754819Y-84985714D02*
X157754819Y-85176190D01*
X157754819Y-85176190D02*
X157802438Y-85271428D01*
X157802438Y-85271428D02*
X157850057Y-85319047D01*
X157850057Y-85319047D02*
X157992914Y-85414285D01*
X157992914Y-85414285D02*
X158183390Y-85461904D01*
X158183390Y-85461904D02*
X158564342Y-85461904D01*
X158564342Y-85461904D02*
X158659580Y-85414285D01*
X158659580Y-85414285D02*
X158707200Y-85366666D01*
X158707200Y-85366666D02*
X158754819Y-85271428D01*
X158754819Y-85271428D02*
X158754819Y-85080952D01*
X158754819Y-85080952D02*
X158707200Y-84985714D01*
X158707200Y-84985714D02*
X158659580Y-84938095D01*
X158659580Y-84938095D02*
X158564342Y-84890476D01*
X158564342Y-84890476D02*
X158326247Y-84890476D01*
X158326247Y-84890476D02*
X158231009Y-84938095D01*
X158231009Y-84938095D02*
X158183390Y-84985714D01*
X158183390Y-84985714D02*
X158135771Y-85080952D01*
X158135771Y-85080952D02*
X158135771Y-85271428D01*
X158135771Y-85271428D02*
X158183390Y-85366666D01*
X158183390Y-85366666D02*
X158231009Y-85414285D01*
X158231009Y-85414285D02*
X158326247Y-85461904D01*
X171254819Y-90541666D02*
X170778628Y-90874999D01*
X171254819Y-91113094D02*
X170254819Y-91113094D01*
X170254819Y-91113094D02*
X170254819Y-90732142D01*
X170254819Y-90732142D02*
X170302438Y-90636904D01*
X170302438Y-90636904D02*
X170350057Y-90589285D01*
X170350057Y-90589285D02*
X170445295Y-90541666D01*
X170445295Y-90541666D02*
X170588152Y-90541666D01*
X170588152Y-90541666D02*
X170683390Y-90589285D01*
X170683390Y-90589285D02*
X170731009Y-90636904D01*
X170731009Y-90636904D02*
X170778628Y-90732142D01*
X170778628Y-90732142D02*
X170778628Y-91113094D01*
X170350057Y-90160713D02*
X170302438Y-90113094D01*
X170302438Y-90113094D02*
X170254819Y-90017856D01*
X170254819Y-90017856D02*
X170254819Y-89779761D01*
X170254819Y-89779761D02*
X170302438Y-89684523D01*
X170302438Y-89684523D02*
X170350057Y-89636904D01*
X170350057Y-89636904D02*
X170445295Y-89589285D01*
X170445295Y-89589285D02*
X170540533Y-89589285D01*
X170540533Y-89589285D02*
X170683390Y-89636904D01*
X170683390Y-89636904D02*
X171254819Y-90208332D01*
X171254819Y-90208332D02*
X171254819Y-89589285D01*
X136138095Y-76854819D02*
X136138095Y-77664342D01*
X136138095Y-77664342D02*
X136185714Y-77759580D01*
X136185714Y-77759580D02*
X136233333Y-77807200D01*
X136233333Y-77807200D02*
X136328571Y-77854819D01*
X136328571Y-77854819D02*
X136519047Y-77854819D01*
X136519047Y-77854819D02*
X136614285Y-77807200D01*
X136614285Y-77807200D02*
X136661904Y-77759580D01*
X136661904Y-77759580D02*
X136709523Y-77664342D01*
X136709523Y-77664342D02*
X136709523Y-76854819D01*
X137661904Y-76854819D02*
X137185714Y-76854819D01*
X137185714Y-76854819D02*
X137138095Y-77331009D01*
X137138095Y-77331009D02*
X137185714Y-77283390D01*
X137185714Y-77283390D02*
X137280952Y-77235771D01*
X137280952Y-77235771D02*
X137519047Y-77235771D01*
X137519047Y-77235771D02*
X137614285Y-77283390D01*
X137614285Y-77283390D02*
X137661904Y-77331009D01*
X137661904Y-77331009D02*
X137709523Y-77426247D01*
X137709523Y-77426247D02*
X137709523Y-77664342D01*
X137709523Y-77664342D02*
X137661904Y-77759580D01*
X137661904Y-77759580D02*
X137614285Y-77807200D01*
X137614285Y-77807200D02*
X137519047Y-77854819D01*
X137519047Y-77854819D02*
X137280952Y-77854819D01*
X137280952Y-77854819D02*
X137185714Y-77807200D01*
X137185714Y-77807200D02*
X137138095Y-77759580D01*
X173951786Y-91354819D02*
X173951786Y-90354819D01*
X173951786Y-90354819D02*
X174189881Y-90354819D01*
X174189881Y-90354819D02*
X174332738Y-90402438D01*
X174332738Y-90402438D02*
X174427976Y-90497676D01*
X174427976Y-90497676D02*
X174475595Y-90592914D01*
X174475595Y-90592914D02*
X174523214Y-90783390D01*
X174523214Y-90783390D02*
X174523214Y-90926247D01*
X174523214Y-90926247D02*
X174475595Y-91116723D01*
X174475595Y-91116723D02*
X174427976Y-91211961D01*
X174427976Y-91211961D02*
X174332738Y-91307200D01*
X174332738Y-91307200D02*
X174189881Y-91354819D01*
X174189881Y-91354819D02*
X173951786Y-91354819D01*
X174951786Y-91354819D02*
X174951786Y-90354819D01*
X174951786Y-90354819D02*
X175332738Y-90354819D01*
X175332738Y-90354819D02*
X175427976Y-90402438D01*
X175427976Y-90402438D02*
X175475595Y-90450057D01*
X175475595Y-90450057D02*
X175523214Y-90545295D01*
X175523214Y-90545295D02*
X175523214Y-90688152D01*
X175523214Y-90688152D02*
X175475595Y-90783390D01*
X175475595Y-90783390D02*
X175427976Y-90831009D01*
X175427976Y-90831009D02*
X175332738Y-90878628D01*
X175332738Y-90878628D02*
X174951786Y-90878628D01*
X176475595Y-90402438D02*
X176380357Y-90354819D01*
X176380357Y-90354819D02*
X176237500Y-90354819D01*
X176237500Y-90354819D02*
X176094643Y-90402438D01*
X176094643Y-90402438D02*
X175999405Y-90497676D01*
X175999405Y-90497676D02*
X175951786Y-90592914D01*
X175951786Y-90592914D02*
X175904167Y-90783390D01*
X175904167Y-90783390D02*
X175904167Y-90926247D01*
X175904167Y-90926247D02*
X175951786Y-91116723D01*
X175951786Y-91116723D02*
X175999405Y-91211961D01*
X175999405Y-91211961D02*
X176094643Y-91307200D01*
X176094643Y-91307200D02*
X176237500Y-91354819D01*
X176237500Y-91354819D02*
X176332738Y-91354819D01*
X176332738Y-91354819D02*
X176475595Y-91307200D01*
X176475595Y-91307200D02*
X176523214Y-91259580D01*
X176523214Y-91259580D02*
X176523214Y-90926247D01*
X176523214Y-90926247D02*
X176332738Y-90926247D01*
X177142262Y-90354819D02*
X177332738Y-90354819D01*
X177332738Y-90354819D02*
X177427976Y-90402438D01*
X177427976Y-90402438D02*
X177523214Y-90497676D01*
X177523214Y-90497676D02*
X177570833Y-90688152D01*
X177570833Y-90688152D02*
X177570833Y-91021485D01*
X177570833Y-91021485D02*
X177523214Y-91211961D01*
X177523214Y-91211961D02*
X177427976Y-91307200D01*
X177427976Y-91307200D02*
X177332738Y-91354819D01*
X177332738Y-91354819D02*
X177142262Y-91354819D01*
X177142262Y-91354819D02*
X177047024Y-91307200D01*
X177047024Y-91307200D02*
X176951786Y-91211961D01*
X176951786Y-91211961D02*
X176904167Y-91021485D01*
X176904167Y-91021485D02*
X176904167Y-90688152D01*
X176904167Y-90688152D02*
X176951786Y-90497676D01*
X176951786Y-90497676D02*
X177047024Y-90402438D01*
X177047024Y-90402438D02*
X177142262Y-90354819D01*
X178189881Y-90354819D02*
X178380357Y-90354819D01*
X178380357Y-90354819D02*
X178475595Y-90402438D01*
X178475595Y-90402438D02*
X178570833Y-90497676D01*
X178570833Y-90497676D02*
X178618452Y-90688152D01*
X178618452Y-90688152D02*
X178618452Y-91021485D01*
X178618452Y-91021485D02*
X178570833Y-91211961D01*
X178570833Y-91211961D02*
X178475595Y-91307200D01*
X178475595Y-91307200D02*
X178380357Y-91354819D01*
X178380357Y-91354819D02*
X178189881Y-91354819D01*
X178189881Y-91354819D02*
X178094643Y-91307200D01*
X178094643Y-91307200D02*
X177999405Y-91211961D01*
X177999405Y-91211961D02*
X177951786Y-91021485D01*
X177951786Y-91021485D02*
X177951786Y-90688152D01*
X177951786Y-90688152D02*
X177999405Y-90497676D01*
X177999405Y-90497676D02*
X178094643Y-90402438D01*
X178094643Y-90402438D02*
X178189881Y-90354819D01*
X179047024Y-91354819D02*
X179047024Y-90354819D01*
X179047024Y-90354819D02*
X179285119Y-90354819D01*
X179285119Y-90354819D02*
X179427976Y-90402438D01*
X179427976Y-90402438D02*
X179523214Y-90497676D01*
X179523214Y-90497676D02*
X179570833Y-90592914D01*
X179570833Y-90592914D02*
X179618452Y-90783390D01*
X179618452Y-90783390D02*
X179618452Y-90926247D01*
X179618452Y-90926247D02*
X179570833Y-91116723D01*
X179570833Y-91116723D02*
X179523214Y-91211961D01*
X179523214Y-91211961D02*
X179427976Y-91307200D01*
X179427976Y-91307200D02*
X179285119Y-91354819D01*
X179285119Y-91354819D02*
X179047024Y-91354819D01*
X180570833Y-91354819D02*
X179999405Y-91354819D01*
X180285119Y-91354819D02*
X180285119Y-90354819D01*
X180285119Y-90354819D02*
X180189881Y-90497676D01*
X180189881Y-90497676D02*
X180094643Y-90592914D01*
X180094643Y-90592914D02*
X179999405Y-90640533D01*
X148642857Y-77331009D02*
X148785714Y-77378628D01*
X148785714Y-77378628D02*
X148833333Y-77426247D01*
X148833333Y-77426247D02*
X148880952Y-77521485D01*
X148880952Y-77521485D02*
X148880952Y-77664342D01*
X148880952Y-77664342D02*
X148833333Y-77759580D01*
X148833333Y-77759580D02*
X148785714Y-77807200D01*
X148785714Y-77807200D02*
X148690476Y-77854819D01*
X148690476Y-77854819D02*
X148309524Y-77854819D01*
X148309524Y-77854819D02*
X148309524Y-76854819D01*
X148309524Y-76854819D02*
X148642857Y-76854819D01*
X148642857Y-76854819D02*
X148738095Y-76902438D01*
X148738095Y-76902438D02*
X148785714Y-76950057D01*
X148785714Y-76950057D02*
X148833333Y-77045295D01*
X148833333Y-77045295D02*
X148833333Y-77140533D01*
X148833333Y-77140533D02*
X148785714Y-77235771D01*
X148785714Y-77235771D02*
X148738095Y-77283390D01*
X148738095Y-77283390D02*
X148642857Y-77331009D01*
X148642857Y-77331009D02*
X148309524Y-77331009D01*
X149261905Y-77569104D02*
X149738095Y-77569104D01*
X149166667Y-77854819D02*
X149500000Y-76854819D01*
X149500000Y-76854819D02*
X149833333Y-77854819D01*
X150023810Y-76854819D02*
X150595238Y-76854819D01*
X150309524Y-77854819D02*
X150309524Y-76854819D01*
X150928572Y-77473866D02*
X151690477Y-77473866D01*
X155042857Y-77331009D02*
X155185714Y-77378628D01*
X155185714Y-77378628D02*
X155233333Y-77426247D01*
X155233333Y-77426247D02*
X155280952Y-77521485D01*
X155280952Y-77521485D02*
X155280952Y-77664342D01*
X155280952Y-77664342D02*
X155233333Y-77759580D01*
X155233333Y-77759580D02*
X155185714Y-77807200D01*
X155185714Y-77807200D02*
X155090476Y-77854819D01*
X155090476Y-77854819D02*
X154709524Y-77854819D01*
X154709524Y-77854819D02*
X154709524Y-76854819D01*
X154709524Y-76854819D02*
X155042857Y-76854819D01*
X155042857Y-76854819D02*
X155138095Y-76902438D01*
X155138095Y-76902438D02*
X155185714Y-76950057D01*
X155185714Y-76950057D02*
X155233333Y-77045295D01*
X155233333Y-77045295D02*
X155233333Y-77140533D01*
X155233333Y-77140533D02*
X155185714Y-77235771D01*
X155185714Y-77235771D02*
X155138095Y-77283390D01*
X155138095Y-77283390D02*
X155042857Y-77331009D01*
X155042857Y-77331009D02*
X154709524Y-77331009D01*
X155661905Y-77569104D02*
X156138095Y-77569104D01*
X155566667Y-77854819D02*
X155900000Y-76854819D01*
X155900000Y-76854819D02*
X156233333Y-77854819D01*
X156423810Y-76854819D02*
X156995238Y-76854819D01*
X156709524Y-77854819D02*
X156709524Y-76854819D01*
X157328572Y-77473866D02*
X158090477Y-77473866D01*
X157709524Y-77854819D02*
X157709524Y-77092914D01*
X161800595Y-74839819D02*
X161800595Y-75649342D01*
X161800595Y-75649342D02*
X161848214Y-75744580D01*
X161848214Y-75744580D02*
X161895833Y-75792200D01*
X161895833Y-75792200D02*
X161991071Y-75839819D01*
X161991071Y-75839819D02*
X162181547Y-75839819D01*
X162181547Y-75839819D02*
X162276785Y-75792200D01*
X162276785Y-75792200D02*
X162324404Y-75744580D01*
X162324404Y-75744580D02*
X162372023Y-75649342D01*
X162372023Y-75649342D02*
X162372023Y-74839819D01*
X163276785Y-75173152D02*
X163276785Y-75839819D01*
X163038690Y-74792200D02*
X162800595Y-75506485D01*
X162800595Y-75506485D02*
X163419642Y-75506485D01*
X174879819Y-83313333D02*
X175594104Y-83313333D01*
X175594104Y-83313333D02*
X175736961Y-83360952D01*
X175736961Y-83360952D02*
X175832200Y-83456190D01*
X175832200Y-83456190D02*
X175879819Y-83599047D01*
X175879819Y-83599047D02*
X175879819Y-83694285D01*
X175879819Y-82313333D02*
X175879819Y-82884761D01*
X175879819Y-82599047D02*
X174879819Y-82599047D01*
X174879819Y-82599047D02*
X175022676Y-82694285D01*
X175022676Y-82694285D02*
X175117914Y-82789523D01*
X175117914Y-82789523D02*
X175165533Y-82884761D01*
X169454819Y-90566666D02*
X168978628Y-90899999D01*
X169454819Y-91138094D02*
X168454819Y-91138094D01*
X168454819Y-91138094D02*
X168454819Y-90757142D01*
X168454819Y-90757142D02*
X168502438Y-90661904D01*
X168502438Y-90661904D02*
X168550057Y-90614285D01*
X168550057Y-90614285D02*
X168645295Y-90566666D01*
X168645295Y-90566666D02*
X168788152Y-90566666D01*
X168788152Y-90566666D02*
X168883390Y-90614285D01*
X168883390Y-90614285D02*
X168931009Y-90661904D01*
X168931009Y-90661904D02*
X168978628Y-90757142D01*
X168978628Y-90757142D02*
X168978628Y-91138094D01*
X168454819Y-89661904D02*
X168454819Y-90138094D01*
X168454819Y-90138094D02*
X168931009Y-90185713D01*
X168931009Y-90185713D02*
X168883390Y-90138094D01*
X168883390Y-90138094D02*
X168835771Y-90042856D01*
X168835771Y-90042856D02*
X168835771Y-89804761D01*
X168835771Y-89804761D02*
X168883390Y-89709523D01*
X168883390Y-89709523D02*
X168931009Y-89661904D01*
X168931009Y-89661904D02*
X169026247Y-89614285D01*
X169026247Y-89614285D02*
X169264342Y-89614285D01*
X169264342Y-89614285D02*
X169359580Y-89661904D01*
X169359580Y-89661904D02*
X169407200Y-89709523D01*
X169407200Y-89709523D02*
X169454819Y-89804761D01*
X169454819Y-89804761D02*
X169454819Y-90042856D01*
X169454819Y-90042856D02*
X169407200Y-90138094D01*
X169407200Y-90138094D02*
X169359580Y-90185713D01*
X174738095Y-75654819D02*
X174738095Y-74654819D01*
X174738095Y-74654819D02*
X174976190Y-74654819D01*
X174976190Y-74654819D02*
X175119047Y-74702438D01*
X175119047Y-74702438D02*
X175214285Y-74797676D01*
X175214285Y-74797676D02*
X175261904Y-74892914D01*
X175261904Y-74892914D02*
X175309523Y-75083390D01*
X175309523Y-75083390D02*
X175309523Y-75226247D01*
X175309523Y-75226247D02*
X175261904Y-75416723D01*
X175261904Y-75416723D02*
X175214285Y-75511961D01*
X175214285Y-75511961D02*
X175119047Y-75607200D01*
X175119047Y-75607200D02*
X174976190Y-75654819D01*
X174976190Y-75654819D02*
X174738095Y-75654819D01*
X176309523Y-75559580D02*
X176261904Y-75607200D01*
X176261904Y-75607200D02*
X176119047Y-75654819D01*
X176119047Y-75654819D02*
X176023809Y-75654819D01*
X176023809Y-75654819D02*
X175880952Y-75607200D01*
X175880952Y-75607200D02*
X175785714Y-75511961D01*
X175785714Y-75511961D02*
X175738095Y-75416723D01*
X175738095Y-75416723D02*
X175690476Y-75226247D01*
X175690476Y-75226247D02*
X175690476Y-75083390D01*
X175690476Y-75083390D02*
X175738095Y-74892914D01*
X175738095Y-74892914D02*
X175785714Y-74797676D01*
X175785714Y-74797676D02*
X175880952Y-74702438D01*
X175880952Y-74702438D02*
X176023809Y-74654819D01*
X176023809Y-74654819D02*
X176119047Y-74654819D01*
X176119047Y-74654819D02*
X176261904Y-74702438D01*
X176261904Y-74702438D02*
X176309523Y-74750057D01*
X176738095Y-75654819D02*
X176738095Y-74654819D01*
X176738095Y-75131009D02*
X177309523Y-75131009D01*
X177309523Y-75654819D02*
X177309523Y-74654819D01*
X178309523Y-74702438D02*
X178214285Y-74654819D01*
X178214285Y-74654819D02*
X178071428Y-74654819D01*
X178071428Y-74654819D02*
X177928571Y-74702438D01*
X177928571Y-74702438D02*
X177833333Y-74797676D01*
X177833333Y-74797676D02*
X177785714Y-74892914D01*
X177785714Y-74892914D02*
X177738095Y-75083390D01*
X177738095Y-75083390D02*
X177738095Y-75226247D01*
X177738095Y-75226247D02*
X177785714Y-75416723D01*
X177785714Y-75416723D02*
X177833333Y-75511961D01*
X177833333Y-75511961D02*
X177928571Y-75607200D01*
X177928571Y-75607200D02*
X178071428Y-75654819D01*
X178071428Y-75654819D02*
X178166666Y-75654819D01*
X178166666Y-75654819D02*
X178309523Y-75607200D01*
X178309523Y-75607200D02*
X178357142Y-75559580D01*
X178357142Y-75559580D02*
X178357142Y-75226247D01*
X178357142Y-75226247D02*
X178166666Y-75226247D01*
X179309523Y-75654819D02*
X178738095Y-75654819D01*
X179023809Y-75654819D02*
X179023809Y-74654819D01*
X179023809Y-74654819D02*
X178928571Y-74797676D01*
X178928571Y-74797676D02*
X178833333Y-74892914D01*
X178833333Y-74892914D02*
X178738095Y-74940533D01*
X132261904Y-94060180D02*
X132261904Y-93250657D01*
X132261904Y-93250657D02*
X132214285Y-93155419D01*
X132214285Y-93155419D02*
X132166666Y-93107800D01*
X132166666Y-93107800D02*
X132071428Y-93060180D01*
X132071428Y-93060180D02*
X131880952Y-93060180D01*
X131880952Y-93060180D02*
X131785714Y-93107800D01*
X131785714Y-93107800D02*
X131738095Y-93155419D01*
X131738095Y-93155419D02*
X131690476Y-93250657D01*
X131690476Y-93250657D02*
X131690476Y-94060180D01*
X131309523Y-94060180D02*
X130642857Y-94060180D01*
X130642857Y-94060180D02*
X131071428Y-93060180D01*
D11*
%TO.C,U3*%
X168655000Y-81305000D02*
X169130000Y-81305000D01*
X168655000Y-81780000D02*
X168655000Y-81305000D01*
X168655000Y-84050000D02*
X168655000Y-84525000D01*
X168655000Y-84525000D02*
X169130000Y-84525000D01*
X171400000Y-81305000D02*
X171635000Y-81305000D01*
X171875000Y-81780000D02*
X171875000Y-81605000D01*
X171875000Y-84050000D02*
X171875000Y-84525000D01*
X171875000Y-84525000D02*
X171400000Y-84525000D01*
X172205000Y-81545000D02*
X171875000Y-81305000D01*
X172205000Y-81065000D01*
X172205000Y-81545000D01*
G36*
X172205000Y-81545000D02*
G01*
X171875000Y-81305000D01*
X172205000Y-81065000D01*
X172205000Y-81545000D01*
G37*
%TO.C,SW1*%
X149850000Y-90150000D02*
X149850000Y-90610000D01*
X149850000Y-90610000D02*
X148850000Y-90610000D01*
X149850000Y-93390000D02*
X149850000Y-93850000D01*
X149850000Y-93850000D02*
X156050000Y-93850000D01*
X156050000Y-90150000D02*
X149850000Y-90150000D01*
X156050000Y-90150000D02*
X156050000Y-90610000D01*
X156050000Y-93390000D02*
X156050000Y-93850000D01*
X151450000Y-91450000D02*
X154300000Y-91450000D01*
X154300000Y-92500000D01*
X151450000Y-92500000D01*
X151450000Y-91450000D01*
%TO.C,COUT1*%
X164815580Y-90390000D02*
X164534420Y-90390000D01*
X164815580Y-91410000D02*
X164534420Y-91410000D01*
%TO.C,R_CC1*%
X177637258Y-88977500D02*
X177162742Y-88977500D01*
X177637258Y-90022500D02*
X177162742Y-90022500D01*
%TO.C,R3*%
X170477500Y-77687742D02*
X170477500Y-78162258D01*
X171522500Y-77687742D02*
X171522500Y-78162258D01*
%TO.C,R4*%
X168777500Y-78162258D02*
X168777500Y-77687742D01*
X169822500Y-78162258D02*
X169822500Y-77687742D01*
%TO.C,C_BP7*%
X137990000Y-76840580D02*
X137990000Y-76559420D01*
X139010000Y-76840580D02*
X139010000Y-76559420D01*
%TO.C,SW2*%
X167720000Y-92220000D02*
X168300000Y-92220000D01*
X168300000Y-91570000D02*
X168300000Y-92220000D01*
X168300000Y-91570000D02*
X173820000Y-91570000D01*
X168300000Y-94230000D02*
X168300000Y-93520000D01*
X168300000Y-94230000D02*
X173820000Y-94230000D01*
X173820000Y-91570000D02*
X173820000Y-92280000D01*
X173820000Y-94230000D02*
X173820000Y-93520000D01*
%TO.C,C_BP2*%
X160565580Y-90390000D02*
X160284420Y-90390000D01*
X160565580Y-91410000D02*
X160284420Y-91410000D01*
%TO.C,U2*%
X151265000Y-84615000D02*
X151265000Y-84365000D01*
X151265000Y-84615000D02*
X151515000Y-84615000D01*
X154465000Y-81415000D02*
X154215000Y-81415000D01*
X154465000Y-81415000D02*
X154465000Y-81665000D01*
X154465000Y-84615000D02*
X154215000Y-84615000D01*
X154465000Y-84615000D02*
X154465000Y-84365000D01*
X151265000Y-81415000D02*
X151025000Y-81085000D01*
X151505000Y-81085000D01*
X151265000Y-81415000D01*
G36*
X151265000Y-81415000D02*
G01*
X151025000Y-81085000D01*
X151505000Y-81085000D01*
X151265000Y-81415000D01*
G37*
%TO.C,R1*%
X172177500Y-78162258D02*
X172177500Y-77687742D01*
X173222500Y-78162258D02*
X173222500Y-77687742D01*
%TO.C,CBAT1*%
X168759420Y-73490000D02*
X169040580Y-73490000D01*
X168759420Y-74510000D02*
X169040580Y-74510000D01*
%TO.C,C1*%
X172190000Y-88265580D02*
X172190000Y-87984420D01*
X173210000Y-88265580D02*
X173210000Y-87984420D01*
%TO.C,C2*%
X153490000Y-87884420D02*
X153490000Y-88165580D01*
X154510000Y-87884420D02*
X154510000Y-88165580D01*
%TO.C,U6*%
X159155000Y-83755000D02*
X160415000Y-83755000D01*
X159155000Y-87515000D02*
X159155000Y-83755000D01*
X165975000Y-83755000D02*
X164715000Y-83755000D01*
X165975000Y-87515000D02*
X165975000Y-83755000D01*
X159255000Y-88795000D02*
X158925000Y-89035000D01*
X158925000Y-88555000D01*
X159255000Y-88795000D01*
G36*
X159255000Y-88795000D02*
G01*
X158925000Y-89035000D01*
X158925000Y-88555000D01*
X159255000Y-88795000D01*
G37*
%TO.C,R2*%
X170277500Y-87887742D02*
X170277500Y-88362258D01*
X171322500Y-87887742D02*
X171322500Y-88362258D01*
%TO.C,C_BP6*%
X140390000Y-76865580D02*
X140390000Y-76584420D01*
X141410000Y-76865580D02*
X141410000Y-76584420D01*
%TO.C,U5*%
X139725000Y-78555000D02*
X137775000Y-78555000D01*
X139725000Y-78555000D02*
X141675000Y-78555000D01*
X139725000Y-87425000D02*
X137775000Y-87425000D01*
X139725000Y-87425000D02*
X141675000Y-87425000D01*
X137025000Y-78620000D02*
X136785000Y-78290000D01*
X137265000Y-78290000D01*
X137025000Y-78620000D01*
G36*
X137025000Y-78620000D02*
G01*
X136785000Y-78290000D01*
X137265000Y-78290000D01*
X137025000Y-78620000D01*
G37*
%TO.C,C_BP3*%
X151290000Y-87884420D02*
X151290000Y-88165580D01*
X152310000Y-87884420D02*
X152310000Y-88165580D01*
%TO.C,REN1*%
X137627500Y-90987742D02*
X137627500Y-91462258D01*
X138672500Y-90987742D02*
X138672500Y-91462258D01*
%TO.C,DPGOOD1*%
X176237500Y-93460000D02*
X178922500Y-93460000D01*
X178922500Y-91540000D02*
X176237500Y-91540000D01*
X178922500Y-93460000D02*
X178922500Y-91540000D01*
%TO.C,CIN2*%
X164990000Y-77784420D02*
X164990000Y-78065580D01*
X166010000Y-77784420D02*
X166010000Y-78065580D01*
%TO.C,BAT-*%
X151450000Y-74500000D02*
G75*
G02*
X147950000Y-74500000I-1750000J0D01*
G01*
X147950000Y-74500000D02*
G75*
G02*
X151450000Y-74500000I1750000J0D01*
G01*
%TO.C,C_BP5*%
X135290000Y-91365580D02*
X135290000Y-91084420D01*
X136310000Y-91365580D02*
X136310000Y-91084420D01*
%TO.C,D3*%
X176075000Y-84405000D02*
X174765000Y-84405000D01*
X176075000Y-85625000D02*
X174765000Y-85625000D01*
X176075000Y-85625000D02*
X176075000Y-84405000D01*
%TO.C,C_BP4*%
X157259420Y-83490000D02*
X157540580Y-83490000D01*
X157259420Y-84510000D02*
X157540580Y-84510000D01*
%TO.C,BAT+*%
X157950000Y-74500000D02*
G75*
G02*
X154450000Y-74500000I-1750000J0D01*
G01*
X154450000Y-74500000D02*
G75*
G02*
X157950000Y-74500000I1750000J0D01*
G01*
%TO.C,R_CC2*%
X177662258Y-75977500D02*
X177187742Y-75977500D01*
X177662258Y-77022500D02*
X177187742Y-77022500D01*
%TO.C,C_BP1*%
X166490000Y-84884420D02*
X166490000Y-85165580D01*
X167510000Y-84884420D02*
X167510000Y-85165580D01*
%TO.C,CEN1*%
X139990000Y-91365580D02*
X139990000Y-91084420D01*
X141010000Y-91365580D02*
X141010000Y-91084420D01*
%TO.C,U4*%
X162562500Y-76390000D02*
X161762500Y-76390000D01*
X162562500Y-76390000D02*
X163362500Y-76390000D01*
X162562500Y-79510000D02*
X161762500Y-79510000D01*
X162562500Y-79510000D02*
X163362500Y-79510000D01*
X164102500Y-79790000D02*
X163622500Y-79790000D01*
X163862500Y-79460000D01*
X164102500Y-79790000D01*
G36*
X164102500Y-79790000D02*
G01*
X163622500Y-79790000D01*
X163862500Y-79460000D01*
X164102500Y-79790000D01*
G37*
%TO.C,J1*%
X180825000Y-78310000D02*
X179125000Y-78310000D01*
X180825000Y-87650000D02*
X179125000Y-87650000D01*
%TO.C,D1*%
X172815000Y-83625000D02*
X174630000Y-83625000D01*
X174630000Y-82405000D02*
X172815000Y-82405000D01*
X174630000Y-83625000D02*
X174630000Y-82405000D01*
%TO.C,D2*%
X176075000Y-80405000D02*
X174765000Y-80405000D01*
X176075000Y-81625000D02*
X174765000Y-81625000D01*
X176075000Y-81625000D02*
X176075000Y-80405000D01*
%TO.C,R5*%
X168377500Y-87887742D02*
X168377500Y-88362258D01*
X169422500Y-87887742D02*
X169422500Y-88362258D01*
%TO.C,COUT2*%
X159190000Y-78065580D02*
X159190000Y-77784420D01*
X160210000Y-78065580D02*
X160210000Y-77784420D01*
%TO.C,DCHG1*%
X176262500Y-74460000D02*
X178947500Y-74460000D01*
X178947500Y-72540000D02*
X176262500Y-72540000D01*
X178947500Y-74460000D02*
X178947500Y-72540000D01*
%TO.C,CIN1*%
X166490000Y-88265580D02*
X166490000Y-87984420D01*
X167510000Y-88265580D02*
X167510000Y-87984420D01*
%TO.C,U7*%
X107200000Y-92215000D02*
X113400000Y-92215000D01*
X107200000Y-92215000D02*
X107200000Y-73815000D01*
X132050000Y-92215000D02*
X133050000Y-92215000D01*
X133050000Y-92215000D02*
X133050000Y-90715000D01*
X107200000Y-73815000D02*
X113400000Y-73815000D01*
X133050000Y-73815000D02*
X133050000Y-75315000D01*
X133050000Y-73815000D02*
X132050000Y-73815000D01*
X114075000Y-92715000D02*
X113575000Y-92215000D01*
X114075000Y-92215000D01*
X114075000Y-92715000D01*
G36*
X114075000Y-92715000D02*
G01*
X113575000Y-92215000D01*
X114075000Y-92215000D01*
X114075000Y-92715000D01*
G37*
%TD*%
M02*
