%TF.GenerationSoftware,KiCad,Pcbnew,9.0.4*%
%TF.CreationDate,2025-09-01T13:06:02+02:00*%
%TF.ProjectId,EHT,4548542e-6b69-4636-9164-5f7063625858,rev?*%
%TF.SameCoordinates,Original*%
%TF.FileFunction,Soldermask,Top*%
%TF.FilePolarity,Negative*%
%FSLAX46Y46*%
G04 Gerber Fmt 4.6, Leading zero omitted, Abs format (unit mm)*
G04 Created by KiCad (PCBNEW 9.0.4) date 2025-09-01 13:06:02*
%MOMM*%
%LPD*%
G01*
G04 APERTURE LIST*
G04 Aperture macros list*
%AMRoundRect*
0 Rectangle with rounded corners*
0 $1 Rounding radius*
0 $2 $3 $4 $5 $6 $7 $8 $9 X,Y pos of 4 corners*
0 Add a 4 corners polygon primitive as box body*
4,1,4,$2,$3,$4,$5,$6,$7,$8,$9,$2,$3,0*
0 Add four circle primitives for the rounded corners*
1,1,$1+$1,$2,$3*
1,1,$1+$1,$4,$5*
1,1,$1+$1,$6,$7*
1,1,$1+$1,$8,$9*
0 Add four rect primitives between the rounded corners*
20,1,$1+$1,$2,$3,$4,$5,0*
20,1,$1+$1,$4,$5,$6,$7,0*
20,1,$1+$1,$6,$7,$8,$9,0*
20,1,$1+$1,$8,$9,$2,$3,0*%
G04 Aperture macros list end*
%ADD10RoundRect,0.062500X-0.062500X0.375000X-0.062500X-0.375000X0.062500X-0.375000X0.062500X0.375000X0*%
%ADD11RoundRect,0.062500X-0.375000X0.062500X-0.375000X-0.062500X0.375000X-0.062500X0.375000X0.062500X0*%
%ADD12R,1.600000X1.600000*%
%ADD13R,2.250000X2.250000*%
%ADD14C,2.250000*%
%ADD15RoundRect,0.225000X0.225000X0.250000X-0.225000X0.250000X-0.225000X-0.250000X0.225000X-0.250000X0*%
%ADD16RoundRect,0.200000X0.200000X0.275000X-0.200000X0.275000X-0.200000X-0.275000X0.200000X-0.275000X0*%
%ADD17RoundRect,0.200000X-0.275000X0.200000X-0.275000X-0.200000X0.275000X-0.200000X0.275000X0.200000X0*%
%ADD18RoundRect,0.200000X0.275000X-0.200000X0.275000X0.200000X-0.275000X0.200000X-0.275000X-0.200000X0*%
%ADD19RoundRect,0.225000X0.250000X-0.225000X0.250000X0.225000X-0.250000X0.225000X-0.250000X-0.225000X0*%
%ADD20C,2.200000*%
%ADD21RoundRect,0.190000X-0.610000X-0.190000X0.610000X-0.190000X0.610000X0.190000X-0.610000X0.190000X0*%
%ADD22RoundRect,0.050000X-0.225000X-0.050000X0.225000X-0.050000X0.225000X0.050000X-0.225000X0.050000X0*%
%ADD23RoundRect,0.050000X0.050000X-0.225000X0.050000X0.225000X-0.050000X0.225000X-0.050000X-0.225000X0*%
%ADD24RoundRect,0.225000X-0.225000X-0.250000X0.225000X-0.250000X0.225000X0.250000X-0.225000X0.250000X0*%
%ADD25RoundRect,0.225000X-0.250000X0.225000X-0.250000X-0.225000X0.250000X-0.225000X0.250000X0.225000X0*%
%ADD26RoundRect,0.375000X0.375000X-0.625000X0.375000X0.625000X-0.375000X0.625000X-0.375000X-0.625000X0*%
%ADD27RoundRect,0.500000X1.400000X-0.500000X1.400000X0.500000X-1.400000X0.500000X-1.400000X-0.500000X0*%
%ADD28RoundRect,0.150000X-0.825000X-0.150000X0.825000X-0.150000X0.825000X0.150000X-0.825000X0.150000X0*%
%ADD29RoundRect,0.243750X0.243750X0.456250X-0.243750X0.456250X-0.243750X-0.456250X0.243750X-0.456250X0*%
%ADD30C,3.000000*%
%ADD31RoundRect,0.050000X0.150000X0.300000X-0.150000X0.300000X-0.150000X-0.300000X0.150000X-0.300000X0*%
%ADD32RoundRect,0.150000X0.512500X0.150000X-0.512500X0.150000X-0.512500X-0.150000X0.512500X-0.150000X0*%
%ADD33C,0.650000*%
%ADD34RoundRect,0.150000X0.425000X-0.150000X0.425000X0.150000X-0.425000X0.150000X-0.425000X-0.150000X0*%
%ADD35RoundRect,0.075000X0.500000X-0.075000X0.500000X0.075000X-0.500000X0.075000X-0.500000X-0.075000X0*%
%ADD36O,2.100000X1.000000*%
%ADD37O,1.800000X1.000000*%
%ADD38RoundRect,0.075000X0.390000X0.275000X-0.390000X0.275000X-0.390000X-0.275000X0.390000X-0.275000X0*%
%ADD39RoundRect,0.075000X0.075000X0.275000X-0.075000X0.275000X-0.075000X-0.275000X0.075000X-0.275000X0*%
%ADD40R,0.900000X1.500000*%
%ADD41R,1.500000X0.900000*%
%ADD42C,0.600000*%
%ADD43R,3.900000X3.900000*%
G04 APERTURE END LIST*
D10*
%TO.C,U3*%
X171015000Y-81477500D03*
X170515000Y-81477500D03*
X170015000Y-81477500D03*
X169515000Y-81477500D03*
D11*
X168827500Y-82165000D03*
X168827500Y-82665000D03*
X168827500Y-83165000D03*
X168827500Y-83665000D03*
D10*
X169515000Y-84352500D03*
X170015000Y-84352500D03*
X170515000Y-84352500D03*
X171015000Y-84352500D03*
D11*
X171702500Y-83665000D03*
X171702500Y-83165000D03*
X171702500Y-82665000D03*
X171702500Y-82165000D03*
D12*
X170265000Y-82915000D03*
%TD*%
D13*
%TO.C,SW1*%
X149700000Y-92000000D03*
D14*
X156200000Y-92000000D03*
%TD*%
D15*
%TO.C,COUT1*%
X165450000Y-90900000D03*
X163900000Y-90900000D03*
%TD*%
D16*
%TO.C,R_CC1*%
X178225000Y-89500000D03*
X176575000Y-89500000D03*
%TD*%
D17*
%TO.C,R3*%
X171000000Y-77100000D03*
X171000000Y-78750000D03*
%TD*%
D18*
%TO.C,R4*%
X169300000Y-78750000D03*
X169300000Y-77100000D03*
%TD*%
D19*
%TO.C,C_BP7*%
X138500000Y-77475000D03*
X138500000Y-75925000D03*
%TD*%
D20*
%TO.C,H4*%
X182000000Y-91000000D03*
%TD*%
D21*
%TO.C,SW2*%
X168520000Y-92900000D03*
X173600000Y-92900000D03*
%TD*%
D15*
%TO.C,C_BP2*%
X161200000Y-90900000D03*
X159650000Y-90900000D03*
%TD*%
D20*
%TO.C,H2*%
X144365000Y-74515000D03*
%TD*%
D22*
%TO.C,U2*%
X151365000Y-82015000D03*
X151365000Y-82415000D03*
X151365000Y-82815000D03*
X151365000Y-83215000D03*
X151365000Y-83615000D03*
X151365000Y-84015000D03*
D23*
X151865000Y-84515000D03*
X152265000Y-84515000D03*
X152665000Y-84515000D03*
X153065000Y-84515000D03*
X153465000Y-84515000D03*
X153865000Y-84515000D03*
D22*
X154365000Y-84015000D03*
X154365000Y-83615000D03*
X154365000Y-83215000D03*
X154365000Y-82815000D03*
X154365000Y-82415000D03*
X154365000Y-82015000D03*
D23*
X153865000Y-81515000D03*
X153465000Y-81515000D03*
X153065000Y-81515000D03*
X152665000Y-81515000D03*
X152265000Y-81515000D03*
X151865000Y-81515000D03*
%TD*%
D18*
%TO.C,R1*%
X172700000Y-78750000D03*
X172700000Y-77100000D03*
%TD*%
D24*
%TO.C,CBAT1*%
X168125000Y-74000000D03*
X169675000Y-74000000D03*
%TD*%
D19*
%TO.C,C1*%
X172700000Y-88900000D03*
X172700000Y-87350000D03*
%TD*%
D25*
%TO.C,C2*%
X154000000Y-87250000D03*
X154000000Y-88800000D03*
%TD*%
D26*
%TO.C,U6*%
X160265000Y-88815000D03*
X162565000Y-88815000D03*
D27*
X162565000Y-82515000D03*
D26*
X164865000Y-88815000D03*
%TD*%
D17*
%TO.C,R2*%
X170800000Y-87300000D03*
X170800000Y-88950000D03*
%TD*%
D19*
%TO.C,C_BP6*%
X140900000Y-77500000D03*
X140900000Y-75950000D03*
%TD*%
D28*
%TO.C,U5*%
X137250000Y-79180000D03*
X137250000Y-80450000D03*
X137250000Y-81720000D03*
X137250000Y-82990000D03*
X137250000Y-84260000D03*
X137250000Y-85530000D03*
X137250000Y-86800000D03*
X142200000Y-86800000D03*
X142200000Y-85530000D03*
X142200000Y-84260000D03*
X142200000Y-82990000D03*
X142200000Y-81720000D03*
X142200000Y-80450000D03*
X142200000Y-79180000D03*
%TD*%
D20*
%TO.C,H3*%
X182000000Y-75000000D03*
%TD*%
D25*
%TO.C,C_BP3*%
X151800000Y-87250000D03*
X151800000Y-88800000D03*
%TD*%
D17*
%TO.C,REN1*%
X138150000Y-90400000D03*
X138150000Y-92050000D03*
%TD*%
D29*
%TO.C,DPGOOD1*%
X178175000Y-92500000D03*
X176300000Y-92500000D03*
%TD*%
D20*
%TO.C,H1*%
X144365000Y-91515000D03*
%TD*%
D25*
%TO.C,CIN2*%
X165500000Y-77150000D03*
X165500000Y-78700000D03*
%TD*%
D30*
%TO.C,BAT-*%
X149700000Y-74500000D03*
%TD*%
D19*
%TO.C,C_BP5*%
X135800000Y-92000000D03*
X135800000Y-90450000D03*
%TD*%
D31*
%TO.C,D3*%
X175615000Y-85015000D03*
X174915000Y-85015000D03*
%TD*%
D24*
%TO.C,C_BP4*%
X156625000Y-84000000D03*
X158175000Y-84000000D03*
%TD*%
D30*
%TO.C,BAT+*%
X156200000Y-74500000D03*
%TD*%
D16*
%TO.C,R_CC2*%
X178250000Y-76500000D03*
X176600000Y-76500000D03*
%TD*%
D25*
%TO.C,C_BP1*%
X167000000Y-84250000D03*
X167000000Y-85800000D03*
%TD*%
D19*
%TO.C,CEN1*%
X140500000Y-92000000D03*
X140500000Y-90450000D03*
%TD*%
D32*
%TO.C,U4*%
X163700000Y-78900000D03*
X163700000Y-77950000D03*
X163700000Y-77000000D03*
X161425000Y-77000000D03*
X161425000Y-78900000D03*
%TD*%
D33*
%TO.C,J1*%
X178320000Y-85870000D03*
X178320000Y-80090000D03*
D34*
X177245000Y-86180000D03*
X177245000Y-85380000D03*
D35*
X177245000Y-84230000D03*
X177245000Y-83230000D03*
X177245000Y-82730000D03*
X177245000Y-81730000D03*
D34*
X177245000Y-80580000D03*
X177245000Y-79780000D03*
X177245000Y-79780000D03*
X177245000Y-80580000D03*
D35*
X177245000Y-81230000D03*
X177245000Y-82230000D03*
X177245000Y-83730000D03*
X177245000Y-84730000D03*
D34*
X177245000Y-85380000D03*
X177245000Y-86180000D03*
D36*
X177820000Y-87300000D03*
D37*
X182000000Y-87300000D03*
D36*
X177820000Y-78660000D03*
D37*
X182000000Y-78660000D03*
%TD*%
D38*
%TO.C,D1*%
X173900000Y-83015000D03*
D39*
X173015000Y-83015000D03*
%TD*%
D31*
%TO.C,D2*%
X175615000Y-81015000D03*
X174915000Y-81015000D03*
%TD*%
D17*
%TO.C,R5*%
X168900000Y-87300000D03*
X168900000Y-88950000D03*
%TD*%
D19*
%TO.C,COUT2*%
X159700000Y-78700000D03*
X159700000Y-77150000D03*
%TD*%
D29*
%TO.C,DCHG1*%
X178200000Y-73500000D03*
X176325000Y-73500000D03*
%TD*%
D19*
%TO.C,CIN1*%
X167000000Y-88900000D03*
X167000000Y-87350000D03*
%TD*%
D40*
%TO.C,U7*%
X114840000Y-91765000D03*
X116110000Y-91765000D03*
X117380000Y-91765000D03*
X118650000Y-91765000D03*
X119920000Y-91765000D03*
X121190000Y-91765000D03*
X122460000Y-91765000D03*
X123730000Y-91765000D03*
X125000000Y-91765000D03*
X126270000Y-91765000D03*
X127540000Y-91765000D03*
X128810000Y-91765000D03*
X130080000Y-91765000D03*
X131350000Y-91765000D03*
D41*
X132600000Y-90000000D03*
X132600000Y-88730000D03*
X132600000Y-87460000D03*
X132600000Y-86190000D03*
X132600000Y-84920000D03*
X132600000Y-83650000D03*
X132600000Y-82380000D03*
X132600000Y-81110000D03*
X132600000Y-79840000D03*
X132600000Y-78570000D03*
X132600000Y-77300000D03*
X132600000Y-76030000D03*
D40*
X131350000Y-74265000D03*
X130080000Y-74265000D03*
X128810000Y-74265000D03*
X127540000Y-74265000D03*
X126270000Y-74265000D03*
X125000000Y-74265000D03*
X123730000Y-74265000D03*
X122460000Y-74265000D03*
X121190000Y-74265000D03*
X119920000Y-74265000D03*
X118650000Y-74265000D03*
X117380000Y-74265000D03*
X116110000Y-74265000D03*
X114840000Y-74265000D03*
D42*
X121860000Y-85915000D03*
X123260000Y-85915000D03*
X121160000Y-85215000D03*
X122560000Y-85215000D03*
X123960000Y-85215000D03*
X121860000Y-84515000D03*
D43*
X122560000Y-84515000D03*
D42*
X123260000Y-84515000D03*
X121160000Y-83815000D03*
X122560000Y-83815000D03*
X123960000Y-83815000D03*
X121860000Y-83115000D03*
X123260000Y-83115000D03*
%TD*%
M02*
