%TF.GenerationSoftware,KiCad,Pcbnew,9.0.4*%
%TF.CreationDate,2025-09-01T13:06:02+02:00*%
%TF.ProjectId,EHT,4548542e-6b69-4636-9164-5f7063625858,rev?*%
%TF.SameCoordinates,Original*%
%TF.FileFunction,Copper,L1,Top*%
%TF.FilePolarity,Positive*%
%FSLAX46Y46*%
G04 Gerber Fmt 4.6, Leading zero omitted, Abs format (unit mm)*
G04 Created by KiCad (PCBNEW 9.0.4) date 2025-09-01 13:06:02*
%MOMM*%
%LPD*%
G01*
G04 APERTURE LIST*
G04 Aperture macros list*
%AMRoundRect*
0 Rectangle with rounded corners*
0 $1 Rounding radius*
0 $2 $3 $4 $5 $6 $7 $8 $9 X,Y pos of 4 corners*
0 Add a 4 corners polygon primitive as box body*
4,1,4,$2,$3,$4,$5,$6,$7,$8,$9,$2,$3,0*
0 Add four circle primitives for the rounded corners*
1,1,$1+$1,$2,$3*
1,1,$1+$1,$4,$5*
1,1,$1+$1,$6,$7*
1,1,$1+$1,$8,$9*
0 Add four rect primitives between the rounded corners*
20,1,$1+$1,$2,$3,$4,$5,0*
20,1,$1+$1,$4,$5,$6,$7,0*
20,1,$1+$1,$6,$7,$8,$9,0*
20,1,$1+$1,$8,$9,$2,$3,0*%
G04 Aperture macros list end*
%TA.AperFunction,SMDPad,CuDef*%
%ADD10RoundRect,0.062500X-0.062500X0.375000X-0.062500X-0.375000X0.062500X-0.375000X0.062500X0.375000X0*%
%TD*%
%TA.AperFunction,SMDPad,CuDef*%
%ADD11RoundRect,0.062500X-0.375000X0.062500X-0.375000X-0.062500X0.375000X-0.062500X0.375000X0.062500X0*%
%TD*%
%TA.AperFunction,HeatsinkPad*%
%ADD12R,1.600000X1.600000*%
%TD*%
%TA.AperFunction,ComponentPad*%
%ADD13R,2.250000X2.250000*%
%TD*%
%TA.AperFunction,ComponentPad*%
%ADD14C,2.250000*%
%TD*%
%TA.AperFunction,SMDPad,CuDef*%
%ADD15RoundRect,0.225000X0.225000X0.250000X-0.225000X0.250000X-0.225000X-0.250000X0.225000X-0.250000X0*%
%TD*%
%TA.AperFunction,SMDPad,CuDef*%
%ADD16RoundRect,0.200000X0.200000X0.275000X-0.200000X0.275000X-0.200000X-0.275000X0.200000X-0.275000X0*%
%TD*%
%TA.AperFunction,SMDPad,CuDef*%
%ADD17RoundRect,0.200000X-0.275000X0.200000X-0.275000X-0.200000X0.275000X-0.200000X0.275000X0.200000X0*%
%TD*%
%TA.AperFunction,SMDPad,CuDef*%
%ADD18RoundRect,0.200000X0.275000X-0.200000X0.275000X0.200000X-0.275000X0.200000X-0.275000X-0.200000X0*%
%TD*%
%TA.AperFunction,SMDPad,CuDef*%
%ADD19RoundRect,0.225000X0.250000X-0.225000X0.250000X0.225000X-0.250000X0.225000X-0.250000X-0.225000X0*%
%TD*%
%TA.AperFunction,SMDPad,CuDef*%
%ADD20RoundRect,0.190000X-0.610000X-0.190000X0.610000X-0.190000X0.610000X0.190000X-0.610000X0.190000X0*%
%TD*%
%TA.AperFunction,SMDPad,CuDef*%
%ADD21RoundRect,0.050000X-0.225000X-0.050000X0.225000X-0.050000X0.225000X0.050000X-0.225000X0.050000X0*%
%TD*%
%TA.AperFunction,SMDPad,CuDef*%
%ADD22RoundRect,0.050000X0.050000X-0.225000X0.050000X0.225000X-0.050000X0.225000X-0.050000X-0.225000X0*%
%TD*%
%TA.AperFunction,SMDPad,CuDef*%
%ADD23RoundRect,0.225000X-0.225000X-0.250000X0.225000X-0.250000X0.225000X0.250000X-0.225000X0.250000X0*%
%TD*%
%TA.AperFunction,SMDPad,CuDef*%
%ADD24RoundRect,0.225000X-0.250000X0.225000X-0.250000X-0.225000X0.250000X-0.225000X0.250000X0.225000X0*%
%TD*%
%TA.AperFunction,SMDPad,CuDef*%
%ADD25RoundRect,0.375000X0.375000X-0.625000X0.375000X0.625000X-0.375000X0.625000X-0.375000X-0.625000X0*%
%TD*%
%TA.AperFunction,SMDPad,CuDef*%
%ADD26RoundRect,0.500000X1.400000X-0.500000X1.400000X0.500000X-1.400000X0.500000X-1.400000X-0.500000X0*%
%TD*%
%TA.AperFunction,SMDPad,CuDef*%
%ADD27RoundRect,0.150000X-0.825000X-0.150000X0.825000X-0.150000X0.825000X0.150000X-0.825000X0.150000X0*%
%TD*%
%TA.AperFunction,SMDPad,CuDef*%
%ADD28RoundRect,0.243750X0.243750X0.456250X-0.243750X0.456250X-0.243750X-0.456250X0.243750X-0.456250X0*%
%TD*%
%TA.AperFunction,SMDPad,CuDef*%
%ADD29C,3.000000*%
%TD*%
%TA.AperFunction,SMDPad,CuDef*%
%ADD30RoundRect,0.050000X0.150000X0.300000X-0.150000X0.300000X-0.150000X-0.300000X0.150000X-0.300000X0*%
%TD*%
%TA.AperFunction,SMDPad,CuDef*%
%ADD31RoundRect,0.150000X0.512500X0.150000X-0.512500X0.150000X-0.512500X-0.150000X0.512500X-0.150000X0*%
%TD*%
%TA.AperFunction,SMDPad,CuDef*%
%ADD32RoundRect,0.150000X0.425000X-0.150000X0.425000X0.150000X-0.425000X0.150000X-0.425000X-0.150000X0*%
%TD*%
%TA.AperFunction,SMDPad,CuDef*%
%ADD33RoundRect,0.075000X0.500000X-0.075000X0.500000X0.075000X-0.500000X0.075000X-0.500000X-0.075000X0*%
%TD*%
%TA.AperFunction,HeatsinkPad*%
%ADD34O,2.100000X1.000000*%
%TD*%
%TA.AperFunction,HeatsinkPad*%
%ADD35O,1.800000X1.000000*%
%TD*%
%TA.AperFunction,SMDPad,CuDef*%
%ADD36RoundRect,0.075000X0.390000X0.275000X-0.390000X0.275000X-0.390000X-0.275000X0.390000X-0.275000X0*%
%TD*%
%TA.AperFunction,SMDPad,CuDef*%
%ADD37RoundRect,0.075000X0.075000X0.275000X-0.075000X0.275000X-0.075000X-0.275000X0.075000X-0.275000X0*%
%TD*%
%TA.AperFunction,SMDPad,CuDef*%
%ADD38R,0.900000X1.500000*%
%TD*%
%TA.AperFunction,SMDPad,CuDef*%
%ADD39R,1.500000X0.900000*%
%TD*%
%TA.AperFunction,HeatsinkPad*%
%ADD40C,0.600000*%
%TD*%
%TA.AperFunction,HeatsinkPad*%
%ADD41R,3.900000X3.900000*%
%TD*%
%TA.AperFunction,ViaPad*%
%ADD42C,0.600000*%
%TD*%
%TA.AperFunction,Conductor*%
%ADD43C,0.200000*%
%TD*%
%TA.AperFunction,Conductor*%
%ADD44C,0.500000*%
%TD*%
G04 APERTURE END LIST*
D10*
%TO.P,U3,1,TS*%
%TO.N,Net-(U3-TS)*%
X171015000Y-81477500D03*
%TO.P,U3,2,BAT*%
%TO.N,Net-(BT1-+)*%
X170515000Y-81477500D03*
%TO.P,U3,3,BAT*%
X170015000Y-81477500D03*
%TO.P,U3,4,~{CE}*%
%TO.N,GND*%
X169515000Y-81477500D03*
D11*
%TO.P,U3,5,EN2*%
%TO.N,Net-(SW2A-A)*%
X168827500Y-82165000D03*
%TO.P,U3,6,EN1*%
%TO.N,GND*%
X168827500Y-82665000D03*
%TO.P,U3,7,~{PGOOD}*%
%TO.N,Net-(DPGOOD1-K)*%
X168827500Y-83165000D03*
%TO.P,U3,8,VSS*%
%TO.N,GND*%
X168827500Y-83665000D03*
D10*
%TO.P,U3,9,~{CHG}*%
%TO.N,Net-(DCHG1-K)*%
X169515000Y-84352500D03*
%TO.P,U3,10,OUT*%
%TO.N,LED_PWR*%
X170015000Y-84352500D03*
%TO.P,U3,11,OUT*%
X170515000Y-84352500D03*
%TO.P,U3,12,ILIM*%
%TO.N,Net-(U3-ILIM)*%
X171015000Y-84352500D03*
D11*
%TO.P,U3,13,IN*%
%TO.N,+5V*%
X171702500Y-83665000D03*
%TO.P,U3,14,TMR*%
%TO.N,GND*%
X171702500Y-83165000D03*
%TO.P,U3,15,ITERM*%
%TO.N,unconnected-(U3-ITERM-Pad15)*%
X171702500Y-82665000D03*
%TO.P,U3,16,ISET*%
%TO.N,Net-(U3-ISET)*%
X171702500Y-82165000D03*
D12*
%TO.P,U3,17,VSS*%
%TO.N,GND*%
X170265000Y-82915000D03*
%TD*%
D13*
%TO.P,SW1,1,1*%
%TO.N,Net-(U7-EN)*%
X149700000Y-92000000D03*
D14*
%TO.P,SW1,2,2*%
%TO.N,GND*%
X156200000Y-92000000D03*
%TD*%
D15*
%TO.P,COUT1,1*%
%TO.N,GND*%
X165450000Y-90900000D03*
%TO.P,COUT1,2*%
%TO.N,+3V3*%
X163900000Y-90900000D03*
%TD*%
D16*
%TO.P,R_CC1,1*%
%TO.N,Net-(J1-CC1)*%
X178225000Y-89500000D03*
%TO.P,R_CC1,2*%
%TO.N,GND*%
X176575000Y-89500000D03*
%TD*%
D17*
%TO.P,R3,1*%
%TO.N,GND*%
X171000000Y-77100000D03*
%TO.P,R3,2*%
%TO.N,Net-(U3-TS)*%
X171000000Y-78750000D03*
%TD*%
D18*
%TO.P,R4,1*%
%TO.N,LED_PWR*%
X169300000Y-78750000D03*
%TO.P,R4,2*%
%TO.N,Net-(DCHG1-A)*%
X169300000Y-77100000D03*
%TD*%
D19*
%TO.P,C_BP7,1*%
%TO.N,+3V3*%
X138500000Y-77475000D03*
%TO.P,C_BP7,2*%
%TO.N,GND*%
X138500000Y-75925000D03*
%TD*%
D20*
%TO.P,SW2,1,A*%
%TO.N,Net-(SW2A-A)*%
X168520000Y-92900000D03*
%TO.P,SW2,2,B*%
%TO.N,LED_PWR*%
X173600000Y-92900000D03*
%TD*%
D15*
%TO.P,C_BP2,1*%
%TO.N,+3V3*%
X161200000Y-90900000D03*
%TO.P,C_BP2,2*%
%TO.N,GND*%
X159650000Y-90900000D03*
%TD*%
D21*
%TO.P,U2,1,NC*%
%TO.N,unconnected-(U2-NC-Pad1)*%
X151365000Y-82015000D03*
%TO.P,U2,2,NC*%
%TO.N,unconnected-(U2-NC-Pad2)*%
X151365000Y-82415000D03*
%TO.P,U2,3,NC*%
%TO.N,unconnected-(U2-NC-Pad3)*%
X151365000Y-82815000D03*
%TO.P,U2,4,NC*%
%TO.N,unconnected-(U2-NC-Pad4)*%
X151365000Y-83215000D03*
%TO.P,U2,5,NC*%
%TO.N,unconnected-(U2-NC-Pad5)*%
X151365000Y-83615000D03*
%TO.P,U2,6,NC*%
%TO.N,unconnected-(U2-NC-Pad6)*%
X151365000Y-84015000D03*
D22*
%TO.P,U2,7,AUX_CL*%
%TO.N,unconnected-(U2-AUX_CL-Pad7)*%
X151865000Y-84515000D03*
%TO.P,U2,8,VDDIO*%
%TO.N,+1V8*%
X152265000Y-84515000D03*
%TO.P,U2,9,SDO/AD0*%
%TO.N,Net-(U2-SDO{slash}AD0)*%
X152665000Y-84515000D03*
%TO.P,U2,10,REGOUT*%
%TO.N,Net-(U2-REGOUT)*%
X153065000Y-84515000D03*
%TO.P,U2,11,FSYNC*%
%TO.N,GND*%
X153465000Y-84515000D03*
%TO.P,U2,12,INT1*%
%TO.N,INT1*%
X153865000Y-84515000D03*
D21*
%TO.P,U2,13,VDD*%
%TO.N,+1V8*%
X154365000Y-84015000D03*
%TO.P,U2,14,NC*%
%TO.N,unconnected-(U2-NC-Pad14)*%
X154365000Y-83615000D03*
%TO.P,U2,15,NC*%
%TO.N,unconnected-(U2-NC-Pad15)*%
X154365000Y-83215000D03*
%TO.P,U2,16,NC*%
%TO.N,unconnected-(U2-NC-Pad16)*%
X154365000Y-82815000D03*
%TO.P,U2,17,NC*%
%TO.N,unconnected-(U2-NC-Pad17)*%
X154365000Y-82415000D03*
%TO.P,U2,18,GND*%
%TO.N,GND*%
X154365000Y-82015000D03*
D22*
%TO.P,U2,19,RESV*%
%TO.N,unconnected-(U2-RESV-Pad19)*%
X153865000Y-81515000D03*
%TO.P,U2,20,GND*%
%TO.N,GND*%
X153465000Y-81515000D03*
%TO.P,U2,21,AUX_DA*%
%TO.N,unconnected-(U2-AUX_DA-Pad21)*%
X153065000Y-81515000D03*
%TO.P,U2,22,~{CS}*%
%TO.N,Net-(U2-~{CS})*%
X152665000Y-81515000D03*
%TO.P,U2,23,SCL/SCLK*%
%TO.N,Net-(U2-SCL{slash}SCLK)*%
X152265000Y-81515000D03*
%TO.P,U2,24,SDA/SDI*%
%TO.N,Net-(U2-SDA{slash}SDI)*%
X151865000Y-81515000D03*
%TD*%
D18*
%TO.P,R1,1*%
%TO.N,Net-(U3-ISET)*%
X172700000Y-78750000D03*
%TO.P,R1,2*%
%TO.N,GND*%
X172700000Y-77100000D03*
%TD*%
D23*
%TO.P,CBAT1,1*%
%TO.N,Net-(BT1-+)*%
X168125000Y-74000000D03*
%TO.P,CBAT1,2*%
%TO.N,GND*%
X169675000Y-74000000D03*
%TD*%
D19*
%TO.P,C1,1*%
%TO.N,GND*%
X172700000Y-88900000D03*
%TO.P,C1,2*%
%TO.N,+5V*%
X172700000Y-87350000D03*
%TD*%
D24*
%TO.P,C2,1*%
%TO.N,Net-(U2-REGOUT)*%
X154000000Y-87250000D03*
%TO.P,C2,2*%
%TO.N,GND*%
X154000000Y-88800000D03*
%TD*%
D25*
%TO.P,U6,1,GND*%
%TO.N,GND*%
X160265000Y-88815000D03*
%TO.P,U6,2,VO*%
%TO.N,+3V3*%
X162565000Y-88815000D03*
D26*
X162565000Y-82515000D03*
D25*
%TO.P,U6,3,VI*%
%TO.N,Net-(SW2A-A)*%
X164865000Y-88815000D03*
%TD*%
D17*
%TO.P,R2,1*%
%TO.N,Net-(U3-ILIM)*%
X170800000Y-87300000D03*
%TO.P,R2,2*%
%TO.N,GND*%
X170800000Y-88950000D03*
%TD*%
D19*
%TO.P,C_BP6,1*%
%TO.N,+1V8*%
X140900000Y-77500000D03*
%TO.P,C_BP6,2*%
%TO.N,GND*%
X140900000Y-75950000D03*
%TD*%
D27*
%TO.P,U5,1,VCCA*%
%TO.N,+3V3*%
X137250000Y-79180000D03*
%TO.P,U5,2,A1*%
%TO.N,SDA*%
X137250000Y-80450000D03*
%TO.P,U5,3,A2*%
%TO.N,SDO*%
X137250000Y-81720000D03*
%TO.P,U5,4,A3*%
%TO.N,SCL*%
X137250000Y-82990000D03*
%TO.P,U5,5,A4*%
%TO.N,CS*%
X137250000Y-84260000D03*
%TO.P,U5,6,NC*%
%TO.N,unconnected-(U5-NC-Pad6)*%
X137250000Y-85530000D03*
%TO.P,U5,7,GND*%
%TO.N,GND*%
X137250000Y-86800000D03*
%TO.P,U5,8,OE*%
%TO.N,+3V3*%
X142200000Y-86800000D03*
%TO.P,U5,9,NC*%
%TO.N,unconnected-(U5-NC-Pad9)*%
X142200000Y-85530000D03*
%TO.P,U5,10,B4*%
%TO.N,Net-(U2-~{CS})*%
X142200000Y-84260000D03*
%TO.P,U5,11,B3*%
%TO.N,Net-(U2-SCL{slash}SCLK)*%
X142200000Y-82990000D03*
%TO.P,U5,12,B2*%
%TO.N,Net-(U2-SDO{slash}AD0)*%
X142200000Y-81720000D03*
%TO.P,U5,13,B1*%
%TO.N,Net-(U2-SDA{slash}SDI)*%
X142200000Y-80450000D03*
%TO.P,U5,14,VCCB*%
%TO.N,+1V8*%
X142200000Y-79180000D03*
%TD*%
D24*
%TO.P,C_BP3,1*%
%TO.N,+1V8*%
X151800000Y-87250000D03*
%TO.P,C_BP3,2*%
%TO.N,GND*%
X151800000Y-88800000D03*
%TD*%
D17*
%TO.P,REN1,1*%
%TO.N,Net-(U7-EN)*%
X138150000Y-90400000D03*
%TO.P,REN1,2*%
%TO.N,+3V3*%
X138150000Y-92050000D03*
%TD*%
D28*
%TO.P,DPGOOD1,1,K*%
%TO.N,Net-(DPGOOD1-K)*%
X178175000Y-92500000D03*
%TO.P,DPGOOD1,2,A*%
%TO.N,Net-(DPGOOD1-A)*%
X176300000Y-92500000D03*
%TD*%
D24*
%TO.P,CIN2,1*%
%TO.N,GND*%
X165500000Y-77150000D03*
%TO.P,CIN2,2*%
%TO.N,Net-(SW2A-A)*%
X165500000Y-78700000D03*
%TD*%
D29*
%TO.P,BAT-,1*%
%TO.N,GND*%
X149700000Y-74500000D03*
%TD*%
D19*
%TO.P,C_BP5,1*%
%TO.N,+3V3*%
X135800000Y-92000000D03*
%TO.P,C_BP5,2*%
%TO.N,GND*%
X135800000Y-90450000D03*
%TD*%
D30*
%TO.P,D3,1,K*%
%TO.N,D-*%
X175615000Y-85015000D03*
%TO.P,D3,2,A*%
%TO.N,GND*%
X174915000Y-85015000D03*
%TD*%
D23*
%TO.P,C_BP4,1*%
%TO.N,+1V8*%
X156625000Y-84000000D03*
%TO.P,C_BP4,2*%
%TO.N,GND*%
X158175000Y-84000000D03*
%TD*%
D29*
%TO.P,BAT+,1*%
%TO.N,Net-(BT1-+)*%
X156200000Y-74500000D03*
%TD*%
D16*
%TO.P,R_CC2,1*%
%TO.N,Net-(J1-CC2)*%
X178250000Y-76500000D03*
%TO.P,R_CC2,2*%
%TO.N,GND*%
X176600000Y-76500000D03*
%TD*%
D24*
%TO.P,C_BP1,1*%
%TO.N,GND*%
X167000000Y-84250000D03*
%TO.P,C_BP1,2*%
%TO.N,Net-(SW2A-A)*%
X167000000Y-85800000D03*
%TD*%
D19*
%TO.P,CEN1,1*%
%TO.N,Net-(U7-EN)*%
X140500000Y-92000000D03*
%TO.P,CEN1,2*%
%TO.N,GND*%
X140500000Y-90450000D03*
%TD*%
D31*
%TO.P,U4,1,IN*%
%TO.N,Net-(SW2A-A)*%
X163700000Y-78900000D03*
%TO.P,U4,2,GND*%
%TO.N,GND*%
X163700000Y-77950000D03*
%TO.P,U4,3,EN*%
%TO.N,Net-(SW2A-A)*%
X163700000Y-77000000D03*
%TO.P,U4,4,NC*%
%TO.N,unconnected-(U4-NC-Pad4)*%
X161425000Y-77000000D03*
%TO.P,U4,5,OUT*%
%TO.N,+1V8*%
X161425000Y-78900000D03*
%TD*%
D32*
%TO.P,J1,A1,GND*%
%TO.N,GND*%
X177245000Y-86180000D03*
%TO.P,J1,A4,VBUS*%
%TO.N,+5V*%
X177245000Y-85380000D03*
D33*
%TO.P,J1,A5,CC1*%
%TO.N,Net-(J1-CC1)*%
X177245000Y-84230000D03*
%TO.P,J1,A6,D+*%
%TO.N,D+*%
X177245000Y-83230000D03*
%TO.P,J1,A7,D-*%
%TO.N,D-*%
X177245000Y-82730000D03*
%TO.P,J1,A8,SBU1*%
%TO.N,unconnected-(J1-SBU1-PadA8)*%
X177245000Y-81730000D03*
D32*
%TO.P,J1,A9,VBUS*%
%TO.N,+5V*%
X177245000Y-80580000D03*
%TO.P,J1,A12,GND*%
%TO.N,GND*%
X177245000Y-79780000D03*
%TO.P,J1,B1,GND*%
X177245000Y-79780000D03*
%TO.P,J1,B4,VBUS*%
%TO.N,+5V*%
X177245000Y-80580000D03*
D33*
%TO.P,J1,B5,CC2*%
%TO.N,Net-(J1-CC2)*%
X177245000Y-81230000D03*
%TO.P,J1,B6,D+*%
%TO.N,D+*%
X177245000Y-82230000D03*
%TO.P,J1,B7,D-*%
%TO.N,D-*%
X177245000Y-83730000D03*
%TO.P,J1,B8,SBU2*%
%TO.N,unconnected-(J1-SBU2-PadB8)*%
X177245000Y-84730000D03*
D32*
%TO.P,J1,B9,VBUS*%
%TO.N,+5V*%
X177245000Y-85380000D03*
%TO.P,J1,B12,GND*%
%TO.N,GND*%
X177245000Y-86180000D03*
D34*
%TO.P,J1,S1,SHIELD*%
X177820000Y-87300000D03*
D35*
X182000000Y-87300000D03*
D34*
X177820000Y-78660000D03*
D35*
X182000000Y-78660000D03*
%TD*%
D36*
%TO.P,D1,1,K*%
%TO.N,+5V*%
X173900000Y-83015000D03*
D37*
%TO.P,D1,2,A*%
%TO.N,GND*%
X173015000Y-83015000D03*
%TD*%
D30*
%TO.P,D2,1,K*%
%TO.N,D+*%
X175615000Y-81015000D03*
%TO.P,D2,2,A*%
%TO.N,GND*%
X174915000Y-81015000D03*
%TD*%
D17*
%TO.P,R5,1*%
%TO.N,LED_PWR*%
X168900000Y-87300000D03*
%TO.P,R5,2*%
%TO.N,Net-(DPGOOD1-A)*%
X168900000Y-88950000D03*
%TD*%
D19*
%TO.P,COUT2,1*%
%TO.N,+1V8*%
X159700000Y-78700000D03*
%TO.P,COUT2,2*%
%TO.N,GND*%
X159700000Y-77150000D03*
%TD*%
D28*
%TO.P,DCHG1,1,K*%
%TO.N,Net-(DCHG1-K)*%
X178200000Y-73500000D03*
%TO.P,DCHG1,2,A*%
%TO.N,Net-(DCHG1-A)*%
X176325000Y-73500000D03*
%TD*%
D19*
%TO.P,CIN1,1*%
%TO.N,GND*%
X167000000Y-88900000D03*
%TO.P,CIN1,2*%
%TO.N,Net-(SW2A-A)*%
X167000000Y-87350000D03*
%TD*%
D38*
%TO.P,U7,1,GND*%
%TO.N,GND*%
X114840000Y-91765000D03*
%TO.P,U7,2,3V3*%
%TO.N,+3V3*%
X116110000Y-91765000D03*
%TO.P,U7,3,EN*%
%TO.N,Net-(U7-EN)*%
X117380000Y-91765000D03*
%TO.P,U7,4,IO4*%
%TO.N,INT1*%
X118650000Y-91765000D03*
%TO.P,U7,5,IO5*%
%TO.N,unconnected-(U7-IO5-Pad5)*%
X119920000Y-91765000D03*
%TO.P,U7,6,IO6*%
%TO.N,unconnected-(U7-IO6-Pad6)*%
X121190000Y-91765000D03*
%TO.P,U7,7,IO7*%
%TO.N,unconnected-(U7-IO7-Pad7)*%
X122460000Y-91765000D03*
%TO.P,U7,8,IO15*%
%TO.N,unconnected-(U7-IO15-Pad8)*%
X123730000Y-91765000D03*
%TO.P,U7,9,IO16*%
%TO.N,unconnected-(U7-IO16-Pad9)*%
X125000000Y-91765000D03*
%TO.P,U7,10,IO17*%
%TO.N,unconnected-(U7-IO17-Pad10)*%
X126270000Y-91765000D03*
%TO.P,U7,11,IO18*%
%TO.N,unconnected-(U7-IO18-Pad11)*%
X127540000Y-91765000D03*
%TO.P,U7,12,IO8*%
%TO.N,unconnected-(U7-IO8-Pad12)*%
X128810000Y-91765000D03*
%TO.P,U7,13,USB_D-*%
%TO.N,D-*%
X130080000Y-91765000D03*
%TO.P,U7,14,USB_D+*%
%TO.N,D+*%
X131350000Y-91765000D03*
D39*
%TO.P,U7,15,IO3*%
%TO.N,unconnected-(U7-IO3-Pad15)*%
X132600000Y-90000000D03*
%TO.P,U7,16,IO46*%
%TO.N,unconnected-(U7-IO46-Pad16)*%
X132600000Y-88730000D03*
%TO.P,U7,17,IO9*%
%TO.N,unconnected-(U7-IO9-Pad17)*%
X132600000Y-87460000D03*
%TO.P,U7,18,IO10*%
%TO.N,CS*%
X132600000Y-86190000D03*
%TO.P,U7,19,IO11*%
%TO.N,SDO*%
X132600000Y-84920000D03*
%TO.P,U7,20,IO12*%
%TO.N,SDA*%
X132600000Y-83650000D03*
%TO.P,U7,21,IO13*%
%TO.N,unconnected-(U7-IO13-Pad21)*%
X132600000Y-82380000D03*
%TO.P,U7,22,IO14*%
%TO.N,SCL*%
X132600000Y-81110000D03*
%TO.P,U7,23,IO21*%
%TO.N,unconnected-(U7-IO21-Pad23)*%
X132600000Y-79840000D03*
%TO.P,U7,24,IO47*%
%TO.N,unconnected-(U7-IO47-Pad24)*%
X132600000Y-78570000D03*
%TO.P,U7,25,IO48*%
%TO.N,unconnected-(U7-IO48-Pad25)*%
X132600000Y-77300000D03*
%TO.P,U7,26,IO45*%
%TO.N,unconnected-(U7-IO45-Pad26)*%
X132600000Y-76030000D03*
D38*
%TO.P,U7,27,IO0*%
%TO.N,unconnected-(U7-IO0-Pad27)*%
X131350000Y-74265000D03*
%TO.P,U7,28,IO35*%
%TO.N,unconnected-(U7-IO35-Pad28)*%
X130080000Y-74265000D03*
%TO.P,U7,29,IO36*%
%TO.N,unconnected-(U7-IO36-Pad29)*%
X128810000Y-74265000D03*
%TO.P,U7,30,IO37*%
%TO.N,unconnected-(U7-IO37-Pad30)*%
X127540000Y-74265000D03*
%TO.P,U7,31,IO38*%
%TO.N,unconnected-(U7-IO38-Pad31)*%
X126270000Y-74265000D03*
%TO.P,U7,32,IO39*%
%TO.N,unconnected-(U7-IO39-Pad32)*%
X125000000Y-74265000D03*
%TO.P,U7,33,IO40*%
%TO.N,unconnected-(U7-IO40-Pad33)*%
X123730000Y-74265000D03*
%TO.P,U7,34,IO41*%
%TO.N,unconnected-(U7-IO41-Pad34)*%
X122460000Y-74265000D03*
%TO.P,U7,35,IO42*%
%TO.N,unconnected-(U7-IO42-Pad35)*%
X121190000Y-74265000D03*
%TO.P,U7,36,RXD0*%
%TO.N,unconnected-(U7-RXD0-Pad36)*%
X119920000Y-74265000D03*
%TO.P,U7,37,TXD0*%
%TO.N,unconnected-(U7-TXD0-Pad37)*%
X118650000Y-74265000D03*
%TO.P,U7,38,IO2*%
%TO.N,unconnected-(U7-IO2-Pad38)*%
X117380000Y-74265000D03*
%TO.P,U7,39,IO1*%
%TO.N,unconnected-(U7-IO1-Pad39)*%
X116110000Y-74265000D03*
%TO.P,U7,40,GND*%
%TO.N,GND*%
X114840000Y-74265000D03*
D40*
%TO.P,U7,41,GND*%
X121860000Y-85915000D03*
X123260000Y-85915000D03*
X121160000Y-85215000D03*
X122560000Y-85215000D03*
X123960000Y-85215000D03*
X121860000Y-84515000D03*
D41*
X122560000Y-84515000D03*
D40*
X123260000Y-84515000D03*
X121160000Y-83815000D03*
X122560000Y-83815000D03*
X123960000Y-83815000D03*
X121860000Y-83115000D03*
X123260000Y-83115000D03*
%TD*%
D42*
%TO.N,GND*%
X140500000Y-89200000D03*
X171200000Y-74000000D03*
X155615000Y-82015000D03*
X172862200Y-81767800D03*
X154600000Y-86100000D03*
X164700000Y-92300000D03*
X152200000Y-75299000D03*
X175115000Y-86015000D03*
X165500000Y-84200000D03*
X175425000Y-89500000D03*
X153615000Y-80015000D03*
X152400000Y-74400000D03*
X170900000Y-90075000D03*
X152200000Y-73500000D03*
X167100000Y-77900000D03*
X175400000Y-76500000D03*
X160400000Y-92200000D03*
X168075735Y-90424265D03*
X134800000Y-87300000D03*
X151600000Y-72700000D03*
X172700000Y-90075000D03*
X175115000Y-80015000D03*
%TO.N,Net-(U2-SDO{slash}AD0)*%
X146865000Y-82055000D03*
X152900000Y-86115000D03*
%TO.N,Net-(U2-~{CS})*%
X153115000Y-79015000D03*
X149089672Y-83700000D03*
%TO.N,Net-(U2-SCL{slash}SCLK)*%
X149865000Y-82100000D03*
X151865000Y-79015000D03*
%TO.N,D+*%
X130341051Y-88122017D03*
X175584834Y-82722663D03*
X131140000Y-89875000D03*
%TO.N,D-*%
X174983792Y-83323705D03*
X130290000Y-89875000D03*
%TO.N,Net-(SW2A-A)*%
X167000000Y-81200000D03*
X167000000Y-92300000D03*
%TO.N,LED_PWR*%
X174900000Y-92500000D03*
X170300000Y-85800000D03*
X170100000Y-79700000D03*
%TO.N,+1V8*%
X148365005Y-80016000D03*
X155615000Y-84015000D03*
X151865000Y-85515000D03*
%TO.N,+3V3*%
X138900000Y-92700000D03*
X135100000Y-92700000D03*
X159415000Y-82515000D03*
X116600000Y-93500000D03*
X139700000Y-79180000D03*
X162565000Y-90900000D03*
%TO.N,Net-(U7-EN)*%
X137600000Y-89200000D03*
X117400000Y-90000000D03*
%TO.N,Net-(DCHG1-K)*%
X168800000Y-85400000D03*
X177200000Y-75100000D03*
%TO.N,Net-(DPGOOD1-K)*%
X177100000Y-90800000D03*
X168070460Y-84586707D03*
%TD*%
D43*
%TO.N,Net-(J1-CC1)*%
X179750000Y-87975000D02*
X178225000Y-89500000D01*
X179750000Y-84950000D02*
X179750000Y-87975000D01*
X179030000Y-84230000D02*
X179750000Y-84950000D01*
X177245000Y-84230000D02*
X179030000Y-84230000D01*
%TO.N,Net-(J1-CC2)*%
X179020000Y-81230000D02*
X177245000Y-81230000D01*
X179750000Y-80500000D02*
X179020000Y-81230000D01*
D44*
%TO.N,GND*%
X177245000Y-79335000D02*
X177245000Y-79780000D01*
D43*
%TO.N,D-*%
X175762900Y-83730000D02*
X175615000Y-83877900D01*
X175615000Y-83877900D02*
X175615000Y-85015000D01*
X175762900Y-83730000D02*
X175356605Y-83323705D01*
X177245000Y-83730000D02*
X175762900Y-83730000D01*
X178121000Y-82997176D02*
X177853824Y-82730000D01*
X177853824Y-82730000D02*
X177245000Y-82730000D01*
X177853824Y-83730000D02*
X178121000Y-83462824D01*
X178121000Y-83462824D02*
X178121000Y-82997176D01*
X177245000Y-83730000D02*
X177853824Y-83730000D01*
%TO.N,D+*%
X176537176Y-83231000D02*
X177245000Y-83231000D01*
X176369000Y-83062824D02*
X176537176Y-83231000D01*
X175830000Y-83230000D02*
X175584834Y-82984834D01*
X177245000Y-83230000D02*
X175830000Y-83230000D01*
X176480000Y-82230000D02*
X177245000Y-82230000D01*
X175615000Y-81365000D02*
X176480000Y-82230000D01*
X176636176Y-82230000D02*
X177245000Y-82230000D01*
X176369000Y-83062824D02*
X176369000Y-82497176D01*
X176369000Y-82497176D02*
X176636176Y-82230000D01*
X175584834Y-82722663D02*
X175584834Y-82984834D01*
D44*
%TO.N,+5V*%
X176615900Y-85380000D02*
X177245000Y-85380000D01*
X176159000Y-85836900D02*
X176615900Y-85380000D01*
X176159000Y-86471000D02*
X176159000Y-85836900D01*
X176615900Y-80580000D02*
X177245000Y-80580000D01*
X176159000Y-80123100D02*
X176615900Y-80580000D01*
X176159000Y-79559000D02*
X176159000Y-80123100D01*
D43*
%TO.N,GND*%
X176600000Y-76500000D02*
X175400000Y-76500000D01*
X173015000Y-83015000D02*
X173015000Y-81915000D01*
X152300000Y-74500000D02*
X149700000Y-74500000D01*
X151500000Y-73500000D02*
X150500000Y-74500000D01*
X153465000Y-84515000D02*
X153465000Y-84965000D01*
D44*
X160400000Y-92200000D02*
X159650000Y-91450000D01*
D43*
X169589000Y-81551500D02*
X169589000Y-82239000D01*
D44*
X165450000Y-91550000D02*
X164700000Y-92300000D01*
D43*
X166350000Y-77150000D02*
X167100000Y-77900000D01*
X174915000Y-85015000D02*
X174915000Y-85815000D01*
X165500000Y-77150000D02*
X166350000Y-77150000D01*
X153465000Y-80165000D02*
X153615000Y-80015000D01*
D44*
X177245000Y-86825000D02*
X177820000Y-87400000D01*
D43*
X168827500Y-82665000D02*
X170015000Y-82665000D01*
X153465000Y-81515000D02*
X153465000Y-80165000D01*
X169566000Y-83614000D02*
X170265000Y-82915000D01*
X150499000Y-75299000D02*
X152200000Y-75299000D01*
X170015000Y-82665000D02*
X170265000Y-82915000D01*
X149700000Y-73800000D02*
X149700000Y-74500000D01*
X167000000Y-88900000D02*
X167000000Y-89348530D01*
X174915000Y-85815000D02*
X175115000Y-86015000D01*
X172865000Y-83165000D02*
X171702500Y-83165000D01*
X150500000Y-74500000D02*
X149700000Y-74500000D01*
X168827500Y-83665000D02*
X168878500Y-83614000D01*
D44*
X177245000Y-79335000D02*
X177820000Y-78760000D01*
D43*
X164700000Y-77950000D02*
X165500000Y-77150000D01*
D44*
X177245000Y-86280000D02*
X177245000Y-86825000D01*
X159650000Y-91450000D02*
X159650000Y-90900000D01*
X169675000Y-74000000D02*
X171200000Y-74000000D01*
D43*
X176575000Y-89500000D02*
X175425000Y-89500000D01*
X163700000Y-77950000D02*
X164700000Y-77950000D01*
X153465000Y-84965000D02*
X154600000Y-86100000D01*
X169589000Y-82239000D02*
X170265000Y-82915000D01*
X174915000Y-80215000D02*
X175115000Y-80015000D01*
X152200000Y-73500000D02*
X151500000Y-73500000D01*
X137250000Y-86800000D02*
X135300000Y-86800000D01*
X151600000Y-72700000D02*
X150800000Y-72700000D01*
X172865000Y-81765000D02*
X172862200Y-81767800D01*
X170900000Y-88975000D02*
X170900000Y-90075000D01*
X168878500Y-83614000D02*
X169566000Y-83614000D01*
X172700000Y-88925000D02*
X172700000Y-90075000D01*
X174915000Y-81015000D02*
X174915000Y-80215000D01*
X167000000Y-89348530D02*
X168075735Y-90424265D01*
X149700000Y-74500000D02*
X150499000Y-75299000D01*
X140500000Y-89200000D02*
X140500000Y-90450000D01*
X154365000Y-82015000D02*
X155615000Y-82015000D01*
X152400000Y-74400000D02*
X152300000Y-74500000D01*
X165550000Y-84250000D02*
X165500000Y-84200000D01*
X171702500Y-83165000D02*
X170515000Y-83165000D01*
X170515000Y-83165000D02*
X170265000Y-82915000D01*
X150800000Y-72700000D02*
X149700000Y-73800000D01*
X167000000Y-84250000D02*
X165550000Y-84250000D01*
X173015000Y-81915000D02*
X172865000Y-81765000D01*
X135300000Y-86800000D02*
X134800000Y-87300000D01*
X169515000Y-81477500D02*
X169589000Y-81551500D01*
X173015000Y-83015000D02*
X172865000Y-83165000D01*
D44*
X165450000Y-90900000D02*
X165450000Y-91550000D01*
D43*
%TO.N,Net-(U3-ILIM)*%
X171015000Y-84352500D02*
X171000000Y-84367500D01*
X171015000Y-84352500D02*
X171015000Y-87310000D01*
X171015000Y-87310000D02*
X171000000Y-87325000D01*
%TO.N,Net-(U3-ISET)*%
X171702500Y-82165000D02*
X171702500Y-82040001D01*
X172700000Y-81042501D02*
X172700000Y-78800000D01*
X171702500Y-82040001D02*
X172700000Y-81042501D01*
D44*
%TO.N,+5V*%
X177185000Y-85415000D02*
X177185000Y-85445000D01*
X175865000Y-86765000D02*
X174365000Y-86765000D01*
X174365000Y-86765000D02*
X173900000Y-86300000D01*
X172700000Y-84425956D02*
X172015044Y-83741000D01*
X173616000Y-83816000D02*
X173900000Y-84100000D01*
X171777500Y-83816000D02*
X173309956Y-83816000D01*
X174365000Y-79265000D02*
X173900000Y-79730000D01*
X172700000Y-84425956D02*
X173309956Y-83816000D01*
X176159000Y-86471000D02*
X175865000Y-86765000D01*
X173309956Y-83816000D02*
X173900000Y-83225956D01*
X173900000Y-86300000D02*
X173900000Y-84100000D01*
X176159000Y-79559000D02*
X175865000Y-79265000D01*
X171750000Y-83788500D02*
X171777500Y-83816000D01*
X173900000Y-83225956D02*
X173900000Y-83015000D01*
X175865000Y-79265000D02*
X174365000Y-79265000D01*
X172700000Y-87350000D02*
X172700000Y-84425956D01*
X173900000Y-79730000D02*
X173900000Y-83015000D01*
X173309956Y-83816000D02*
X173616000Y-83816000D01*
X173900000Y-84100000D02*
X173900000Y-83015000D01*
X172015044Y-83741000D02*
X171702500Y-83741000D01*
%TO.N,Net-(BT1-+)*%
X168326000Y-74201000D02*
X168326000Y-74800000D01*
X169100000Y-80400000D02*
X169700000Y-80400000D01*
X169700000Y-80400000D02*
X170300000Y-81000000D01*
X168026000Y-74500000D02*
X168326000Y-74800000D01*
X156200000Y-74500000D02*
X168026000Y-74500000D01*
X168326000Y-74800000D02*
X168326000Y-79626000D01*
X170300000Y-81000000D02*
X170300000Y-81664000D01*
X168125000Y-74000000D02*
X168326000Y-74201000D01*
X168326000Y-79626000D02*
X169100000Y-80400000D01*
D43*
%TO.N,Net-(U2-REGOUT)*%
X154000000Y-86100000D02*
X153065000Y-85165000D01*
X153065000Y-85165000D02*
X153065000Y-84515000D01*
X154000000Y-87250000D02*
X154000000Y-86100000D01*
%TO.N,Net-(U3-TS)*%
X171015000Y-81477500D02*
X171015000Y-78815000D01*
X171015000Y-78815000D02*
X171000000Y-78800000D01*
%TO.N,SDO*%
X132600000Y-84920000D02*
X133580000Y-84920000D01*
X136780000Y-81720000D02*
X137250000Y-81720000D01*
X133580000Y-84920000D02*
X136780000Y-81720000D01*
%TO.N,INT1*%
X118650000Y-92715000D02*
X118650000Y-91765000D01*
X151079000Y-93700000D02*
X119635000Y-93700000D01*
X153865000Y-84515000D02*
X155400000Y-86050000D01*
X119635000Y-93700000D02*
X118650000Y-92715000D01*
X155400000Y-86050000D02*
X155400000Y-89379000D01*
X155400000Y-89379000D02*
X151079000Y-93700000D01*
%TO.N,SCL*%
X138265968Y-79849000D02*
X138526000Y-80109032D01*
X138526000Y-82688999D02*
X138224999Y-82990000D01*
X133590000Y-81110000D02*
X134851000Y-79849000D01*
X134851000Y-79849000D02*
X138265968Y-79849000D01*
X132600000Y-81110000D02*
X133590000Y-81110000D01*
X138224999Y-82990000D02*
X137250000Y-82990000D01*
X138526000Y-80109032D02*
X138526000Y-82688999D01*
%TO.N,SDA*%
X133450000Y-83650000D02*
X136650000Y-80450000D01*
X136650000Y-80450000D02*
X137250000Y-80450000D01*
X132600000Y-83650000D02*
X133450000Y-83650000D01*
%TO.N,CS*%
X135540000Y-84260000D02*
X137250000Y-84260000D01*
X132600000Y-86190000D02*
X133610000Y-86190000D01*
X133610000Y-86190000D02*
X135540000Y-84260000D01*
%TO.N,Net-(U2-SDA{slash}SDI)*%
X142650000Y-80900000D02*
X151250000Y-80900000D01*
X142200000Y-80450000D02*
X142650000Y-80900000D01*
X151250000Y-80900000D02*
X151865000Y-81515000D01*
%TO.N,Net-(U2-SDO{slash}AD0)*%
X152665000Y-85880000D02*
X152900000Y-86115000D01*
X152665000Y-84515000D02*
X152665000Y-85880000D01*
X146865000Y-82055000D02*
X146530000Y-81720000D01*
X146530000Y-81720000D02*
X142200000Y-81720000D01*
%TO.N,Net-(U2-~{CS})*%
X152665000Y-79465000D02*
X153115000Y-79015000D01*
X152665000Y-81515000D02*
X152665000Y-79465000D01*
X149089672Y-84125003D02*
X148954675Y-84260000D01*
X149089672Y-83700000D02*
X149089672Y-84125003D01*
X148954675Y-84260000D02*
X142200000Y-84260000D01*
%TO.N,Net-(U2-SCL{slash}SCLK)*%
X149865000Y-82100000D02*
X148975000Y-82990000D01*
X152265000Y-79415000D02*
X151865000Y-79015000D01*
X142889999Y-83325000D02*
X141915000Y-83325000D01*
X152265000Y-81515000D02*
X152265000Y-79415000D01*
X148975000Y-82990000D02*
X142200000Y-82990000D01*
%TO.N,D+*%
X175615000Y-81365000D02*
X175615000Y-81015000D01*
X175615000Y-81015000D02*
X175615000Y-81308824D01*
X130940001Y-91355001D02*
X130940001Y-90074999D01*
%TO.N,D-*%
X174983792Y-83323705D02*
X175356605Y-83323705D01*
X177185000Y-82765000D02*
X177160001Y-82789999D01*
X130489999Y-91355001D02*
X130489999Y-90074999D01*
%TO.N,Net-(J1-CC2)*%
X178234000Y-76484000D02*
X178250000Y-76500000D01*
X179750000Y-78000000D02*
X178250000Y-76500000D01*
X179750000Y-80500000D02*
X179750000Y-78000000D01*
%TO.N,Net-(SW2A-A)*%
X167000000Y-81200000D02*
X165500000Y-79700000D01*
X162600000Y-78462499D02*
X163037501Y-78900000D01*
D44*
X168520000Y-92900000D02*
X168520000Y-92470000D01*
D43*
X167600000Y-92900000D02*
X167000000Y-92300000D01*
X162600000Y-77400000D02*
X162600000Y-78462499D01*
X166100000Y-85800000D02*
X167000000Y-85800000D01*
X164885000Y-88815000D02*
X166350000Y-87350000D01*
X168035000Y-82165000D02*
X168827500Y-82165000D01*
X168520000Y-92900000D02*
X167600000Y-92900000D01*
X164865000Y-88815000D02*
X164885000Y-88815000D01*
D44*
X168520000Y-92470000D02*
X164865000Y-88815000D01*
D43*
X163700000Y-78900000D02*
X165300000Y-78900000D01*
X167070000Y-81200000D02*
X168035000Y-82165000D01*
X164865000Y-87035000D02*
X166100000Y-85800000D01*
X168374202Y-82165000D02*
X168827500Y-82165000D01*
X165300000Y-78900000D02*
X165500000Y-78700000D01*
X166350000Y-87350000D02*
X167000000Y-87350000D01*
X165500000Y-79700000D02*
X165500000Y-78700000D01*
X164865000Y-88815000D02*
X164865000Y-87035000D01*
X163000000Y-77000000D02*
X162600000Y-77400000D01*
X163700000Y-77000000D02*
X163000000Y-77000000D01*
X167000000Y-81200000D02*
X167070000Y-81200000D01*
X163037501Y-78900000D02*
X163700000Y-78900000D01*
D44*
%TO.N,LED_PWR*%
X174500000Y-92900000D02*
X174900000Y-92500000D01*
D43*
X169300000Y-78750000D02*
X169300000Y-78900000D01*
X168900000Y-87200000D02*
X170300000Y-85800000D01*
D44*
X170300000Y-85800000D02*
X170300000Y-84300000D01*
D43*
X168900000Y-87300000D02*
X168900000Y-87200000D01*
D44*
X173600000Y-92900000D02*
X174500000Y-92900000D01*
D43*
X169300000Y-78900000D02*
X170100000Y-79700000D01*
%TO.N,+1V8*%
X142280000Y-79100000D02*
X142200000Y-79180000D01*
X142200000Y-77800000D02*
X142200000Y-79180000D01*
X147450000Y-79100000D02*
X142280000Y-79100000D01*
X156535000Y-84015000D02*
X156550000Y-84000000D01*
X141900000Y-77500000D02*
X142200000Y-77800000D01*
X148164310Y-79814310D02*
X147450000Y-79100000D01*
X155615000Y-84015000D02*
X156610000Y-84015000D01*
X152265000Y-85115000D02*
X151865000Y-85515000D01*
X156625000Y-82575000D02*
X156625000Y-84000000D01*
X148365005Y-80016000D02*
X148164310Y-79815305D01*
X161425000Y-78900000D02*
X159900000Y-78900000D01*
X159700000Y-79500000D02*
X156625000Y-82575000D01*
X148164310Y-79815305D02*
X148164310Y-79814310D01*
X151865000Y-87215000D02*
X151900000Y-87250000D01*
X159700000Y-78700000D02*
X159700000Y-79500000D01*
X140900000Y-77500000D02*
X141900000Y-77500000D01*
X159900000Y-78900000D02*
X159700000Y-78700000D01*
X152265000Y-84515000D02*
X152265000Y-85115000D01*
X155615000Y-84015000D02*
X154365000Y-84015000D01*
X151865000Y-85515000D02*
X151865000Y-87215000D01*
X156610000Y-84015000D02*
X156625000Y-84000000D01*
D44*
%TO.N,+3V3*%
X138250000Y-92050000D02*
X138900000Y-92700000D01*
X162565000Y-90900000D02*
X161200000Y-90900000D01*
X162565000Y-82515000D02*
X162565000Y-88815000D01*
D43*
X141225001Y-86800000D02*
X139700000Y-85274999D01*
X139700000Y-85274999D02*
X139700000Y-79180000D01*
D44*
X116600000Y-93500000D02*
X116110000Y-93010000D01*
X138150000Y-92050000D02*
X138250000Y-92050000D01*
D43*
X159415000Y-82515000D02*
X162565000Y-82515000D01*
D44*
X116110000Y-93010000D02*
X116110000Y-91765000D01*
D43*
X138500000Y-77475000D02*
X138500000Y-79080000D01*
D44*
X162565000Y-90900000D02*
X163900000Y-90900000D01*
X135625000Y-92175000D02*
X135100000Y-92700000D01*
D43*
X137250000Y-79180000D02*
X139700000Y-79180000D01*
D44*
X162565000Y-88815000D02*
X162565000Y-90900000D01*
D43*
X142200000Y-86800000D02*
X141225001Y-86800000D01*
D44*
%TO.N,Net-(U7-EN)*%
X138150000Y-90400000D02*
X138150000Y-89750000D01*
X138150000Y-89750000D02*
X138700000Y-89200000D01*
X138900000Y-90400000D02*
X140500000Y-92000000D01*
X149700000Y-92200000D02*
X145800000Y-88300000D01*
X138150000Y-90400000D02*
X138900000Y-90400000D01*
X138150000Y-89750000D02*
X137600000Y-89200000D01*
X145800000Y-88300000D02*
X139600000Y-88300000D01*
X117400000Y-91785000D02*
X117380000Y-91765000D01*
X140450000Y-92050000D02*
X140500000Y-92000000D01*
X139600000Y-88300000D02*
X138700000Y-89200000D01*
X117400000Y-91745000D02*
X117380000Y-91765000D01*
X117400000Y-90000000D02*
X117400000Y-91745000D01*
D43*
%TO.N,Net-(DCHG1-A)*%
X172900000Y-73500000D02*
X176325000Y-73500000D01*
X169300000Y-77100000D02*
X172900000Y-73500000D01*
%TO.N,Net-(DCHG1-K)*%
X169515000Y-84685000D02*
X168800000Y-85400000D01*
X169515000Y-84352500D02*
X169515000Y-84685000D01*
X177700000Y-75100000D02*
X177200000Y-75100000D01*
X178200000Y-73500000D02*
X178200000Y-74600000D01*
X178200000Y-74600000D02*
X177700000Y-75100000D01*
%TO.N,Net-(DPGOOD1-A)*%
X168900000Y-88950000D02*
X168900000Y-90400000D01*
X168900000Y-90400000D02*
X169600000Y-91100000D01*
X169600000Y-91100000D02*
X174900000Y-91100000D01*
X174900000Y-91100000D02*
X176300000Y-92500000D01*
%TO.N,Net-(DPGOOD1-K)*%
X178175000Y-91425000D02*
X178175000Y-92500000D01*
X168070460Y-84307540D02*
X168089000Y-84289000D01*
X168089000Y-83450202D02*
X168374202Y-83165000D01*
X168070460Y-84586707D02*
X168070460Y-84307540D01*
X177550000Y-90800000D02*
X178175000Y-91425000D01*
X177100000Y-90800000D02*
X177550000Y-90800000D01*
X168089000Y-84289000D02*
X168089000Y-83450202D01*
X168374202Y-83165000D02*
X168827500Y-83165000D01*
%TD*%
%TA.AperFunction,Conductor*%
%TO.N,Net-(BT1-+)*%
G36*
X170640572Y-80919685D02*
G01*
X170686327Y-80972489D01*
X170696271Y-81041647D01*
X170695150Y-81048191D01*
X170689500Y-81076594D01*
X170689500Y-81759136D01*
X170680856Y-81788571D01*
X170674334Y-81818560D01*
X170670577Y-81823578D01*
X170669815Y-81826175D01*
X170653184Y-81846815D01*
X170636321Y-81863679D01*
X170574999Y-81897165D01*
X170548637Y-81900000D01*
X170013500Y-81900000D01*
X169946461Y-81880315D01*
X169900706Y-81827511D01*
X169889500Y-81776000D01*
X169889500Y-81511939D01*
X169869020Y-81435509D01*
X169869018Y-81435506D01*
X169857111Y-81414881D01*
X169840499Y-81352883D01*
X169840499Y-81076600D01*
X169834848Y-81048189D01*
X169841077Y-80978598D01*
X169883941Y-80923421D01*
X169949831Y-80900178D01*
X169956466Y-80900000D01*
X170573533Y-80900000D01*
X170640572Y-80919685D01*
G37*
%TD.AperFunction*%
%TD*%
%TA.AperFunction,Conductor*%
%TO.N,GND*%
G36*
X153707383Y-83816541D02*
G01*
X153730508Y-83818611D01*
X153740277Y-83826199D01*
X153752146Y-83829685D01*
X153767348Y-83847229D01*
X153785685Y-83861474D01*
X153789800Y-83873140D01*
X153797901Y-83882489D01*
X153801205Y-83905469D01*
X153808929Y-83927364D01*
X153806084Y-83939402D01*
X153807845Y-83951647D01*
X153798200Y-83972765D01*
X153792861Y-83995361D01*
X153783958Y-84003950D01*
X153778820Y-84015203D01*
X153759288Y-84027755D01*
X153742581Y-84043876D01*
X153728351Y-84048895D01*
X153728544Y-84049360D01*
X153720458Y-84052709D01*
X153720042Y-84052977D01*
X153719476Y-84053115D01*
X153717260Y-84054033D01*
X153643992Y-84102989D01*
X153634399Y-84109399D01*
X153583079Y-84186207D01*
X153572249Y-84202415D01*
X153571016Y-84201591D01*
X153535719Y-84245391D01*
X153469424Y-84267455D01*
X153401725Y-84250175D01*
X153354115Y-84199037D01*
X153351137Y-84192516D01*
X153347699Y-84187371D01*
X153295601Y-84109399D01*
X153212740Y-84054034D01*
X153212739Y-84054033D01*
X153201456Y-84049360D01*
X153202753Y-84046228D01*
X153158791Y-84023233D01*
X153124217Y-83962517D01*
X153127956Y-83892748D01*
X153168822Y-83836076D01*
X153233840Y-83810494D01*
X153244893Y-83810000D01*
X153685107Y-83810000D01*
X153707383Y-83816541D01*
G37*
%TD.AperFunction*%
%TA.AperFunction,Conductor*%
G36*
X153528271Y-81779822D02*
G01*
X153575883Y-81830958D01*
X153578862Y-81837482D01*
X153579033Y-81837739D01*
X153579034Y-81837740D01*
X153634399Y-81920601D01*
X153710413Y-81971391D01*
X153717260Y-81975966D01*
X153728544Y-81980640D01*
X153727246Y-81983771D01*
X153771209Y-82006767D01*
X153805783Y-82067483D01*
X153802044Y-82137252D01*
X153761178Y-82193924D01*
X153696160Y-82219506D01*
X153685107Y-82220000D01*
X153244893Y-82220000D01*
X153177854Y-82200315D01*
X153132099Y-82147511D01*
X153122155Y-82078353D01*
X153151180Y-82014797D01*
X153202060Y-81982098D01*
X153201456Y-81980640D01*
X153209541Y-81977290D01*
X153209958Y-81977023D01*
X153210523Y-81976884D01*
X153212738Y-81975966D01*
X153212740Y-81975966D01*
X153295601Y-81920601D01*
X153350966Y-81837740D01*
X153350966Y-81837739D01*
X153357751Y-81827585D01*
X153358984Y-81828409D01*
X153394278Y-81784610D01*
X153460571Y-81762544D01*
X153528271Y-81779822D01*
G37*
%TD.AperFunction*%
%TA.AperFunction,Conductor*%
G36*
X174555703Y-83596872D02*
G01*
X174581887Y-83628586D01*
X174583292Y-83631019D01*
X174676478Y-83724205D01*
X174790606Y-83790097D01*
X174917900Y-83824205D01*
X174917902Y-83824205D01*
X175049681Y-83824205D01*
X175049684Y-83824205D01*
X175158410Y-83795072D01*
X175228256Y-83796735D01*
X175286119Y-83835897D01*
X175313623Y-83900125D01*
X175314500Y-83914847D01*
X175314500Y-84452935D01*
X175294815Y-84519974D01*
X175290261Y-84525624D01*
X175229034Y-84617260D01*
X175229032Y-84617264D01*
X175214500Y-84690321D01*
X175214500Y-85339678D01*
X175229032Y-85412735D01*
X175229033Y-85412739D01*
X175229034Y-85412740D01*
X175284399Y-85495601D01*
X175353102Y-85541506D01*
X175367260Y-85550966D01*
X175367264Y-85550967D01*
X175440321Y-85565499D01*
X175440324Y-85565500D01*
X175603730Y-85565500D01*
X175670769Y-85585185D01*
X175716524Y-85637989D01*
X175726468Y-85707147D01*
X175723506Y-85721585D01*
X175708500Y-85777591D01*
X175708500Y-85777593D01*
X175708500Y-86190500D01*
X175688815Y-86257539D01*
X175636011Y-86303294D01*
X175584500Y-86314500D01*
X174602965Y-86314500D01*
X174573524Y-86305855D01*
X174543538Y-86299332D01*
X174538522Y-86295577D01*
X174535926Y-86294815D01*
X174515284Y-86278181D01*
X174386819Y-86149716D01*
X174353334Y-86088393D01*
X174350500Y-86062035D01*
X174350500Y-83690585D01*
X174370185Y-83623546D01*
X174422989Y-83577791D01*
X174492147Y-83567847D01*
X174555703Y-83596872D01*
G37*
%TD.AperFunction*%
%TA.AperFunction,Conductor*%
G36*
X175651539Y-79735185D02*
G01*
X175697294Y-79787989D01*
X175708500Y-79839500D01*
X175708500Y-80182411D01*
X175715695Y-80209263D01*
X175715735Y-80209410D01*
X175715770Y-80209540D01*
X175739201Y-80296987D01*
X175740079Y-80298508D01*
X175742623Y-80307818D01*
X175742105Y-80335243D01*
X175745036Y-80362526D01*
X175741454Y-80369678D01*
X175741304Y-80377675D01*
X175726038Y-80400470D01*
X175713756Y-80425003D01*
X175706877Y-80429083D01*
X175702427Y-80435729D01*
X175677263Y-80446651D01*
X175653665Y-80460651D01*
X175641489Y-80462179D01*
X175638335Y-80463549D01*
X175634963Y-80462999D01*
X175623008Y-80464500D01*
X175440323Y-80464500D01*
X175367264Y-80479032D01*
X175367260Y-80479033D01*
X175284399Y-80534399D01*
X175229033Y-80617260D01*
X175229032Y-80617264D01*
X175214500Y-80690321D01*
X175214500Y-81339678D01*
X175229032Y-81412735D01*
X175229033Y-81412739D01*
X175246621Y-81439062D01*
X175284034Y-81495055D01*
X175284400Y-81495602D01*
X175377416Y-81557753D01*
X175376491Y-81559135D01*
X175399614Y-81574585D01*
X175865078Y-82040049D01*
X175898563Y-82101372D01*
X175893579Y-82171064D01*
X175851707Y-82226997D01*
X175786243Y-82251414D01*
X175745304Y-82247505D01*
X175650726Y-82222163D01*
X175518942Y-82222163D01*
X175391646Y-82256271D01*
X175277520Y-82322163D01*
X175277517Y-82322165D01*
X175184336Y-82415346D01*
X175184334Y-82415349D01*
X175118442Y-82529475D01*
X175084334Y-82656771D01*
X175084334Y-82699205D01*
X175064649Y-82766244D01*
X175011845Y-82811999D01*
X174960334Y-82823205D01*
X174917900Y-82823205D01*
X174790606Y-82857313D01*
X174790605Y-82857313D01*
X174790603Y-82857314D01*
X174790602Y-82857314D01*
X174751499Y-82879891D01*
X174683599Y-82896364D01*
X174617572Y-82873512D01*
X174574382Y-82818590D01*
X174565499Y-82772504D01*
X174565499Y-82712870D01*
X174565499Y-82712868D01*
X174549515Y-82632505D01*
X174515028Y-82580892D01*
X174488624Y-82541375D01*
X174405609Y-82485906D01*
X174360804Y-82432293D01*
X174350500Y-82382804D01*
X174350500Y-79967965D01*
X174359144Y-79938524D01*
X174365668Y-79908538D01*
X174369422Y-79903522D01*
X174370185Y-79900926D01*
X174386819Y-79880284D01*
X174515284Y-79751819D01*
X174576607Y-79718334D01*
X174602965Y-79715500D01*
X175584500Y-79715500D01*
X175651539Y-79735185D01*
G37*
%TD.AperFunction*%
%TA.AperFunction,Conductor*%
G36*
X182003032Y-71500648D02*
G01*
X182336929Y-71517052D01*
X182349037Y-71518245D01*
X182452146Y-71533539D01*
X182676699Y-71566849D01*
X182688617Y-71569219D01*
X183009951Y-71649709D01*
X183021588Y-71653240D01*
X183092806Y-71678722D01*
X183333467Y-71764832D01*
X183344688Y-71769479D01*
X183644163Y-71911120D01*
X183654871Y-71916844D01*
X183938988Y-72087137D01*
X183949106Y-72093897D01*
X184215170Y-72291224D01*
X184224576Y-72298944D01*
X184470013Y-72521395D01*
X184478604Y-72529986D01*
X184584246Y-72646544D01*
X184701055Y-72775423D01*
X184708775Y-72784829D01*
X184906102Y-73050893D01*
X184912862Y-73061011D01*
X184961703Y-73142498D01*
X185080248Y-73340279D01*
X185083148Y-73345116D01*
X185088883Y-73355844D01*
X185182233Y-73553217D01*
X185230514Y-73655297D01*
X185235170Y-73666540D01*
X185346759Y-73978411D01*
X185350292Y-73990055D01*
X185430777Y-74311369D01*
X185433151Y-74323305D01*
X185481754Y-74650962D01*
X185482947Y-74663071D01*
X185499351Y-74996966D01*
X185499500Y-75003051D01*
X185499500Y-90996948D01*
X185499351Y-91003033D01*
X185482947Y-91336928D01*
X185481754Y-91349037D01*
X185433151Y-91676694D01*
X185430777Y-91688630D01*
X185350292Y-92009944D01*
X185346759Y-92021588D01*
X185235170Y-92333459D01*
X185230514Y-92344702D01*
X185088885Y-92644151D01*
X185083148Y-92654883D01*
X184912862Y-92938988D01*
X184906102Y-92949106D01*
X184708775Y-93215170D01*
X184701055Y-93224576D01*
X184478611Y-93470006D01*
X184470006Y-93478611D01*
X184224576Y-93701055D01*
X184215170Y-93708775D01*
X183949106Y-93906102D01*
X183938988Y-93912862D01*
X183654883Y-94083148D01*
X183644151Y-94088885D01*
X183344702Y-94230514D01*
X183333459Y-94235170D01*
X183021588Y-94346759D01*
X183009944Y-94350292D01*
X182688630Y-94430777D01*
X182676694Y-94433151D01*
X182349037Y-94481754D01*
X182336928Y-94482947D01*
X182021989Y-94498419D01*
X182003031Y-94499351D01*
X181996949Y-94499500D01*
X114324000Y-94499500D01*
X114256961Y-94479815D01*
X114211206Y-94427011D01*
X114200000Y-94375500D01*
X114200000Y-88056125D01*
X129840551Y-88056125D01*
X129840551Y-88187909D01*
X129844265Y-88201769D01*
X129874659Y-88315204D01*
X129894460Y-88349500D01*
X129940551Y-88429331D01*
X130033737Y-88522517D01*
X130147865Y-88588409D01*
X130275159Y-88622517D01*
X130275161Y-88622517D01*
X130406941Y-88622517D01*
X130406943Y-88622517D01*
X130534237Y-88588409D01*
X130648365Y-88522517D01*
X130741551Y-88429331D01*
X130807443Y-88315203D01*
X130841551Y-88187909D01*
X130841551Y-88056125D01*
X130807443Y-87928831D01*
X130804378Y-87923523D01*
X130791085Y-87900499D01*
X130741551Y-87814703D01*
X130648365Y-87721517D01*
X130563351Y-87672434D01*
X130534238Y-87655625D01*
X130436038Y-87629313D01*
X130406943Y-87621517D01*
X130275159Y-87621517D01*
X130147863Y-87655625D01*
X130033737Y-87721517D01*
X130033734Y-87721519D01*
X129940553Y-87814700D01*
X129940551Y-87814703D01*
X129874659Y-87928829D01*
X129848594Y-88026108D01*
X129840551Y-88056125D01*
X114200000Y-88056125D01*
X114200000Y-73495247D01*
X115459500Y-73495247D01*
X115459500Y-75034752D01*
X115471131Y-75093229D01*
X115471132Y-75093230D01*
X115515447Y-75159552D01*
X115581769Y-75203867D01*
X115581770Y-75203868D01*
X115640247Y-75215499D01*
X115640250Y-75215500D01*
X115640252Y-75215500D01*
X116579750Y-75215500D01*
X116579751Y-75215499D01*
X116594568Y-75212552D01*
X116638229Y-75203868D01*
X116638231Y-75203867D01*
X116676108Y-75178558D01*
X116742785Y-75157679D01*
X116810165Y-75176163D01*
X116813892Y-75178558D01*
X116851768Y-75203867D01*
X116851770Y-75203868D01*
X116910247Y-75215499D01*
X116910250Y-75215500D01*
X116910252Y-75215500D01*
X117849750Y-75215500D01*
X117849751Y-75215499D01*
X117864568Y-75212552D01*
X117908229Y-75203868D01*
X117908231Y-75203867D01*
X117946108Y-75178558D01*
X118012785Y-75157679D01*
X118080165Y-75176163D01*
X118083892Y-75178558D01*
X118121768Y-75203867D01*
X118121770Y-75203868D01*
X118180247Y-75215499D01*
X118180250Y-75215500D01*
X118180252Y-75215500D01*
X119119750Y-75215500D01*
X119119751Y-75215499D01*
X119134568Y-75212552D01*
X119178229Y-75203868D01*
X119178231Y-75203867D01*
X119216108Y-75178558D01*
X119282785Y-75157679D01*
X119350165Y-75176163D01*
X119353892Y-75178558D01*
X119391768Y-75203867D01*
X119391770Y-75203868D01*
X119450247Y-75215499D01*
X119450250Y-75215500D01*
X119450252Y-75215500D01*
X120389750Y-75215500D01*
X120389751Y-75215499D01*
X120404568Y-75212552D01*
X120448229Y-75203868D01*
X120448231Y-75203867D01*
X120486108Y-75178558D01*
X120552785Y-75157679D01*
X120620165Y-75176163D01*
X120623892Y-75178558D01*
X120661768Y-75203867D01*
X120661770Y-75203868D01*
X120720247Y-75215499D01*
X120720250Y-75215500D01*
X120720252Y-75215500D01*
X121659750Y-75215500D01*
X121659751Y-75215499D01*
X121674568Y-75212552D01*
X121718229Y-75203868D01*
X121718231Y-75203867D01*
X121756108Y-75178558D01*
X121822785Y-75157679D01*
X121890165Y-75176163D01*
X121893892Y-75178558D01*
X121931768Y-75203867D01*
X121931770Y-75203868D01*
X121990247Y-75215499D01*
X121990250Y-75215500D01*
X121990252Y-75215500D01*
X122929750Y-75215500D01*
X122929751Y-75215499D01*
X122944568Y-75212552D01*
X122988229Y-75203868D01*
X122988231Y-75203867D01*
X123026108Y-75178558D01*
X123092785Y-75157679D01*
X123160165Y-75176163D01*
X123163892Y-75178558D01*
X123201768Y-75203867D01*
X123201770Y-75203868D01*
X123260247Y-75215499D01*
X123260250Y-75215500D01*
X123260252Y-75215500D01*
X124199750Y-75215500D01*
X124199751Y-75215499D01*
X124214568Y-75212552D01*
X124258229Y-75203868D01*
X124258231Y-75203867D01*
X124296108Y-75178558D01*
X124362785Y-75157679D01*
X124430165Y-75176163D01*
X124433892Y-75178558D01*
X124471768Y-75203867D01*
X124471770Y-75203868D01*
X124530247Y-75215499D01*
X124530250Y-75215500D01*
X124530252Y-75215500D01*
X125469750Y-75215500D01*
X125469751Y-75215499D01*
X125484568Y-75212552D01*
X125528229Y-75203868D01*
X125528231Y-75203867D01*
X125566108Y-75178558D01*
X125632785Y-75157679D01*
X125700165Y-75176163D01*
X125703892Y-75178558D01*
X125741768Y-75203867D01*
X125741770Y-75203868D01*
X125800247Y-75215499D01*
X125800250Y-75215500D01*
X125800252Y-75215500D01*
X126739750Y-75215500D01*
X126739751Y-75215499D01*
X126754568Y-75212552D01*
X126798229Y-75203868D01*
X126798231Y-75203867D01*
X126836108Y-75178558D01*
X126902785Y-75157679D01*
X126970165Y-75176163D01*
X126973892Y-75178558D01*
X127011768Y-75203867D01*
X127011770Y-75203868D01*
X127070247Y-75215499D01*
X127070250Y-75215500D01*
X127070252Y-75215500D01*
X128009750Y-75215500D01*
X128009751Y-75215499D01*
X128024568Y-75212552D01*
X128068229Y-75203868D01*
X128068231Y-75203867D01*
X128106108Y-75178558D01*
X128172785Y-75157679D01*
X128240165Y-75176163D01*
X128243892Y-75178558D01*
X128281768Y-75203867D01*
X128281770Y-75203868D01*
X128340247Y-75215499D01*
X128340250Y-75215500D01*
X128340252Y-75215500D01*
X129279750Y-75215500D01*
X129279751Y-75215499D01*
X129294568Y-75212552D01*
X129338229Y-75203868D01*
X129338231Y-75203867D01*
X129376108Y-75178558D01*
X129442785Y-75157679D01*
X129510165Y-75176163D01*
X129513892Y-75178558D01*
X129551768Y-75203867D01*
X129551770Y-75203868D01*
X129610247Y-75215499D01*
X129610250Y-75215500D01*
X129610252Y-75215500D01*
X130549750Y-75215500D01*
X130549751Y-75215499D01*
X130564568Y-75212552D01*
X130608229Y-75203868D01*
X130608231Y-75203867D01*
X130646108Y-75178558D01*
X130712785Y-75157679D01*
X130780165Y-75176163D01*
X130783892Y-75178558D01*
X130821768Y-75203867D01*
X130821770Y-75203868D01*
X130880247Y-75215499D01*
X130880250Y-75215500D01*
X131626033Y-75215500D01*
X131693072Y-75235185D01*
X131738827Y-75287989D01*
X131748771Y-75357147D01*
X131719746Y-75420703D01*
X131713714Y-75427181D01*
X131705448Y-75435446D01*
X131661132Y-75501769D01*
X131661131Y-75501770D01*
X131649500Y-75560247D01*
X131649500Y-76499752D01*
X131661131Y-76558229D01*
X131661132Y-76558230D01*
X131686442Y-76596109D01*
X131707320Y-76662787D01*
X131688835Y-76730167D01*
X131686442Y-76733891D01*
X131661132Y-76771769D01*
X131661131Y-76771770D01*
X131649500Y-76830247D01*
X131649500Y-77769752D01*
X131661131Y-77828229D01*
X131661132Y-77828230D01*
X131686442Y-77866109D01*
X131707320Y-77932787D01*
X131688835Y-78000167D01*
X131686442Y-78003891D01*
X131661132Y-78041769D01*
X131661131Y-78041770D01*
X131649500Y-78100247D01*
X131649500Y-79039752D01*
X131661131Y-79098229D01*
X131661132Y-79098230D01*
X131686442Y-79136109D01*
X131707320Y-79202787D01*
X131688835Y-79270167D01*
X131686442Y-79273891D01*
X131661132Y-79311769D01*
X131661131Y-79311770D01*
X131649500Y-79370247D01*
X131649500Y-80309752D01*
X131661131Y-80368229D01*
X131661132Y-80368230D01*
X131686442Y-80406109D01*
X131707320Y-80472787D01*
X131688835Y-80540167D01*
X131686442Y-80543891D01*
X131661132Y-80581769D01*
X131661131Y-80581770D01*
X131649500Y-80640247D01*
X131649500Y-81579752D01*
X131661131Y-81638229D01*
X131661132Y-81638230D01*
X131686442Y-81676109D01*
X131707320Y-81742787D01*
X131688835Y-81810167D01*
X131686442Y-81813891D01*
X131661132Y-81851769D01*
X131661131Y-81851770D01*
X131649500Y-81910247D01*
X131649500Y-82849752D01*
X131661131Y-82908229D01*
X131661132Y-82908230D01*
X131686442Y-82946109D01*
X131707320Y-83012787D01*
X131688835Y-83080167D01*
X131686442Y-83083891D01*
X131661132Y-83121769D01*
X131661131Y-83121770D01*
X131649500Y-83180247D01*
X131649500Y-84119752D01*
X131661131Y-84178229D01*
X131661132Y-84178230D01*
X131686442Y-84216109D01*
X131707320Y-84282787D01*
X131688835Y-84350167D01*
X131686442Y-84353891D01*
X131661132Y-84391769D01*
X131661131Y-84391770D01*
X131649500Y-84450247D01*
X131649500Y-85389752D01*
X131661131Y-85448229D01*
X131661132Y-85448230D01*
X131686442Y-85486109D01*
X131707320Y-85552787D01*
X131688835Y-85620167D01*
X131686442Y-85623891D01*
X131661132Y-85661769D01*
X131661131Y-85661770D01*
X131649500Y-85720247D01*
X131649500Y-86659752D01*
X131661131Y-86718229D01*
X131661132Y-86718230D01*
X131686442Y-86756109D01*
X131707320Y-86822787D01*
X131688835Y-86890167D01*
X131686442Y-86893891D01*
X131661132Y-86931769D01*
X131661131Y-86931770D01*
X131649500Y-86990247D01*
X131649500Y-87929752D01*
X131661131Y-87988229D01*
X131661132Y-87988230D01*
X131686442Y-88026109D01*
X131707320Y-88092787D01*
X131688835Y-88160167D01*
X131686442Y-88163891D01*
X131661132Y-88201769D01*
X131661131Y-88201770D01*
X131649500Y-88260247D01*
X131649500Y-89199752D01*
X131661131Y-89258229D01*
X131661132Y-89258230D01*
X131686442Y-89296109D01*
X131692415Y-89315186D01*
X131702922Y-89332195D01*
X131702642Y-89347848D01*
X131707320Y-89362787D01*
X131702031Y-89382065D01*
X131701674Y-89402054D01*
X131689656Y-89427171D01*
X131688835Y-89430167D01*
X131686442Y-89433891D01*
X131658338Y-89475951D01*
X131604725Y-89520756D01*
X131535400Y-89529463D01*
X131472373Y-89499308D01*
X131467555Y-89494741D01*
X131447316Y-89474502D01*
X131447314Y-89474500D01*
X131376979Y-89433892D01*
X131333187Y-89408608D01*
X131257570Y-89388347D01*
X131205892Y-89374500D01*
X131074108Y-89374500D01*
X130946812Y-89408608D01*
X130832686Y-89474500D01*
X130832683Y-89474502D01*
X130802681Y-89504505D01*
X130741358Y-89537990D01*
X130671666Y-89533006D01*
X130627319Y-89504505D01*
X130597316Y-89474502D01*
X130597314Y-89474500D01*
X130526979Y-89433892D01*
X130483187Y-89408608D01*
X130407570Y-89388347D01*
X130355892Y-89374500D01*
X130224108Y-89374500D01*
X130096812Y-89408608D01*
X129982686Y-89474500D01*
X129982683Y-89474502D01*
X129889502Y-89567683D01*
X129889500Y-89567686D01*
X129823608Y-89681812D01*
X129806866Y-89744297D01*
X129789500Y-89809108D01*
X129789500Y-89940892D01*
X129792914Y-89953634D01*
X129823608Y-90068187D01*
X129843737Y-90103050D01*
X129889500Y-90182314D01*
X129982686Y-90275500D01*
X130096814Y-90341392D01*
X130097582Y-90341597D01*
X130098159Y-90341949D01*
X130104326Y-90344504D01*
X130103927Y-90345464D01*
X130121363Y-90356090D01*
X130146702Y-90367662D01*
X130150790Y-90374023D01*
X130157245Y-90377957D01*
X130169415Y-90403005D01*
X130184476Y-90426440D01*
X130186020Y-90437178D01*
X130187780Y-90440801D01*
X130189499Y-90461375D01*
X130189499Y-90690500D01*
X130169814Y-90757539D01*
X130117010Y-90803294D01*
X130065499Y-90814500D01*
X129610247Y-90814500D01*
X129551770Y-90826131D01*
X129551769Y-90826132D01*
X129513891Y-90851442D01*
X129447213Y-90872320D01*
X129379833Y-90853835D01*
X129376109Y-90851442D01*
X129338230Y-90826132D01*
X129338229Y-90826131D01*
X129279752Y-90814500D01*
X129279748Y-90814500D01*
X128340252Y-90814500D01*
X128340247Y-90814500D01*
X128281770Y-90826131D01*
X128281769Y-90826132D01*
X128243891Y-90851442D01*
X128177213Y-90872320D01*
X128109833Y-90853835D01*
X128106109Y-90851442D01*
X128068230Y-90826132D01*
X128068229Y-90826131D01*
X128009752Y-90814500D01*
X128009748Y-90814500D01*
X127070252Y-90814500D01*
X127070247Y-90814500D01*
X127011770Y-90826131D01*
X127011769Y-90826132D01*
X126973891Y-90851442D01*
X126907213Y-90872320D01*
X126839833Y-90853835D01*
X126836109Y-90851442D01*
X126798230Y-90826132D01*
X126798229Y-90826131D01*
X126739752Y-90814500D01*
X126739748Y-90814500D01*
X125800252Y-90814500D01*
X125800247Y-90814500D01*
X125741770Y-90826131D01*
X125741769Y-90826132D01*
X125703891Y-90851442D01*
X125637213Y-90872320D01*
X125569833Y-90853835D01*
X125566109Y-90851442D01*
X125528230Y-90826132D01*
X125528229Y-90826131D01*
X125469752Y-90814500D01*
X125469748Y-90814500D01*
X124530252Y-90814500D01*
X124530247Y-90814500D01*
X124471770Y-90826131D01*
X124471769Y-90826132D01*
X124433891Y-90851442D01*
X124367213Y-90872320D01*
X124299833Y-90853835D01*
X124296109Y-90851442D01*
X124258230Y-90826132D01*
X124258229Y-90826131D01*
X124199752Y-90814500D01*
X124199748Y-90814500D01*
X123260252Y-90814500D01*
X123260247Y-90814500D01*
X123201770Y-90826131D01*
X123201769Y-90826132D01*
X123163891Y-90851442D01*
X123097213Y-90872320D01*
X123029833Y-90853835D01*
X123026109Y-90851442D01*
X122988230Y-90826132D01*
X122988229Y-90826131D01*
X122929752Y-90814500D01*
X122929748Y-90814500D01*
X121990252Y-90814500D01*
X121990247Y-90814500D01*
X121931770Y-90826131D01*
X121931769Y-90826132D01*
X121893891Y-90851442D01*
X121827213Y-90872320D01*
X121759833Y-90853835D01*
X121756109Y-90851442D01*
X121718230Y-90826132D01*
X121718229Y-90826131D01*
X121659752Y-90814500D01*
X121659748Y-90814500D01*
X120720252Y-90814500D01*
X120720247Y-90814500D01*
X120661770Y-90826131D01*
X120661769Y-90826132D01*
X120623891Y-90851442D01*
X120557213Y-90872320D01*
X120489833Y-90853835D01*
X120486109Y-90851442D01*
X120448230Y-90826132D01*
X120448229Y-90826131D01*
X120389752Y-90814500D01*
X120389748Y-90814500D01*
X119450252Y-90814500D01*
X119450247Y-90814500D01*
X119391770Y-90826131D01*
X119391769Y-90826132D01*
X119353891Y-90851442D01*
X119287213Y-90872320D01*
X119219833Y-90853835D01*
X119216109Y-90851442D01*
X119178230Y-90826132D01*
X119178229Y-90826131D01*
X119119752Y-90814500D01*
X119119748Y-90814500D01*
X118180252Y-90814500D01*
X118180247Y-90814500D01*
X118121770Y-90826131D01*
X118121769Y-90826132D01*
X118083891Y-90851442D01*
X118064813Y-90857415D01*
X118047804Y-90867922D01*
X118032151Y-90867642D01*
X118017213Y-90872320D01*
X117997934Y-90867031D01*
X117977946Y-90866674D01*
X117952830Y-90854657D01*
X117949833Y-90853835D01*
X117946108Y-90851441D01*
X117905608Y-90824379D01*
X117860804Y-90770767D01*
X117850500Y-90721278D01*
X117850500Y-90253936D01*
X117864618Y-90201246D01*
X117863282Y-90200693D01*
X117866388Y-90193192D01*
X117866392Y-90193186D01*
X117900500Y-90065892D01*
X117900500Y-89934108D01*
X117866392Y-89806814D01*
X117800500Y-89692686D01*
X117707314Y-89599500D01*
X117644979Y-89563511D01*
X117593187Y-89533608D01*
X117529539Y-89516554D01*
X117465892Y-89499500D01*
X117334108Y-89499500D01*
X117206812Y-89533608D01*
X117092686Y-89599500D01*
X117092683Y-89599502D01*
X116999502Y-89692683D01*
X116999500Y-89692686D01*
X116933608Y-89806812D01*
X116908558Y-89900301D01*
X116899500Y-89934108D01*
X116899500Y-90065892D01*
X116911338Y-90110071D01*
X116933608Y-90193186D01*
X116936718Y-90200693D01*
X116935381Y-90201246D01*
X116949500Y-90253936D01*
X116949500Y-90704928D01*
X116929815Y-90771967D01*
X116884358Y-90814069D01*
X116867959Y-90822912D01*
X116851769Y-90826133D01*
X116809021Y-90854696D01*
X116803858Y-90857481D01*
X116775183Y-90863562D01*
X116747213Y-90872320D01*
X116741402Y-90870725D01*
X116735508Y-90871976D01*
X116708095Y-90861588D01*
X116679833Y-90853835D01*
X116676109Y-90851442D01*
X116638230Y-90826132D01*
X116638229Y-90826131D01*
X116579752Y-90814500D01*
X116579748Y-90814500D01*
X115640252Y-90814500D01*
X115640247Y-90814500D01*
X115581770Y-90826131D01*
X115581769Y-90826132D01*
X115515447Y-90870447D01*
X115471132Y-90936769D01*
X115471131Y-90936770D01*
X115459500Y-90995247D01*
X115459500Y-92534752D01*
X115471131Y-92593229D01*
X115471132Y-92593230D01*
X115515447Y-92659552D01*
X115581769Y-92703867D01*
X115582949Y-92704356D01*
X115585126Y-92706110D01*
X115591923Y-92710652D01*
X115591516Y-92711259D01*
X115637354Y-92748195D01*
X115659421Y-92814489D01*
X115659500Y-92818918D01*
X115659500Y-93069309D01*
X115673268Y-93120693D01*
X115673280Y-93120734D01*
X115673280Y-93120735D01*
X115690201Y-93183887D01*
X115749511Y-93286614D01*
X115749513Y-93286616D01*
X116101886Y-93638990D01*
X116129160Y-93686224D01*
X116130495Y-93685672D01*
X116133606Y-93693183D01*
X116138151Y-93701055D01*
X116199500Y-93807314D01*
X116292686Y-93900500D01*
X116406814Y-93966392D01*
X116534108Y-94000500D01*
X116534110Y-94000500D01*
X116665890Y-94000500D01*
X116665892Y-94000500D01*
X116793186Y-93966392D01*
X116907314Y-93900500D01*
X117000500Y-93807314D01*
X117066392Y-93693186D01*
X117100500Y-93565892D01*
X117100500Y-93434108D01*
X117066392Y-93306814D01*
X117000500Y-93192686D01*
X116907314Y-93099500D01*
X116803866Y-93039774D01*
X116793183Y-93033606D01*
X116785672Y-93030495D01*
X116786313Y-93028945D01*
X116769823Y-93018892D01*
X116743705Y-93006360D01*
X116738990Y-93001886D01*
X116626822Y-92889718D01*
X116593337Y-92828395D01*
X116598321Y-92758703D01*
X116640193Y-92702770D01*
X116645611Y-92698936D01*
X116676108Y-92678558D01*
X116686928Y-92675169D01*
X116695638Y-92667908D01*
X116719672Y-92664916D01*
X116742785Y-92657679D01*
X116753719Y-92660678D01*
X116764972Y-92659278D01*
X116786807Y-92669755D01*
X116810166Y-92676163D01*
X116813892Y-92678558D01*
X116851768Y-92703867D01*
X116851770Y-92703868D01*
X116910247Y-92715499D01*
X116910250Y-92715500D01*
X116910252Y-92715500D01*
X117849750Y-92715500D01*
X117849751Y-92715499D01*
X117874121Y-92710652D01*
X117908229Y-92703868D01*
X117908231Y-92703867D01*
X117946108Y-92678558D01*
X118012785Y-92657679D01*
X118045381Y-92661438D01*
X118066110Y-92666676D01*
X118121769Y-92703867D01*
X118180252Y-92715500D01*
X118259312Y-92715500D01*
X118274266Y-92719279D01*
X118291608Y-92729513D01*
X118310924Y-92735185D01*
X118321079Y-92746905D01*
X118334439Y-92754789D01*
X118343494Y-92772773D01*
X118356679Y-92787989D01*
X118363659Y-92807404D01*
X118369978Y-92830986D01*
X118369980Y-92830991D01*
X118394745Y-92873886D01*
X118405887Y-92893184D01*
X118409540Y-92899511D01*
X119394540Y-93884511D01*
X119450489Y-93940460D01*
X119450491Y-93940461D01*
X119450495Y-93940464D01*
X119519004Y-93980017D01*
X119519011Y-93980021D01*
X119595438Y-94000500D01*
X119595440Y-94000500D01*
X151118560Y-94000500D01*
X151118562Y-94000500D01*
X151194989Y-93980021D01*
X151263511Y-93940460D01*
X151319460Y-93884511D01*
X155640460Y-89563511D01*
X155672905Y-89507314D01*
X155680021Y-89494989D01*
X155700500Y-89418562D01*
X155700500Y-86010438D01*
X155680021Y-85934011D01*
X155669334Y-85915500D01*
X155640464Y-85865495D01*
X155640458Y-85865487D01*
X154302152Y-84527181D01*
X154268667Y-84465858D01*
X154273651Y-84396166D01*
X154315523Y-84340233D01*
X154380987Y-84315816D01*
X154389833Y-84315500D01*
X155156324Y-84315500D01*
X155223363Y-84335185D01*
X155244005Y-84351819D01*
X155307686Y-84415500D01*
X155406521Y-84472563D01*
X155421810Y-84481390D01*
X155421814Y-84481392D01*
X155549108Y-84515500D01*
X155549110Y-84515500D01*
X155680890Y-84515500D01*
X155680892Y-84515500D01*
X155808186Y-84481392D01*
X155874414Y-84443154D01*
X155942314Y-84426681D01*
X156008341Y-84449533D01*
X156046899Y-84494245D01*
X156051471Y-84503218D01*
X156051476Y-84503225D01*
X156146774Y-84598523D01*
X156146778Y-84598526D01*
X156146780Y-84598528D01*
X156266874Y-84659719D01*
X156266876Y-84659719D01*
X156266878Y-84659720D01*
X156366507Y-84675500D01*
X156366512Y-84675500D01*
X156883493Y-84675500D01*
X156983121Y-84659720D01*
X156983121Y-84659719D01*
X156983126Y-84659719D01*
X157103220Y-84598528D01*
X157198528Y-84503220D01*
X157259719Y-84383126D01*
X157262325Y-84366675D01*
X157275500Y-84283493D01*
X157275500Y-83716506D01*
X157259720Y-83616878D01*
X157259719Y-83616876D01*
X157259719Y-83616874D01*
X157198528Y-83496780D01*
X157198526Y-83496778D01*
X157198523Y-83496774D01*
X157103225Y-83401476D01*
X157103222Y-83401474D01*
X157103220Y-83401472D01*
X156993203Y-83345415D01*
X156942409Y-83297442D01*
X156925500Y-83234932D01*
X156925500Y-82750833D01*
X156945185Y-82683794D01*
X156961819Y-82663152D01*
X157175863Y-82449108D01*
X158914500Y-82449108D01*
X158914500Y-82580891D01*
X158948608Y-82708187D01*
X158966172Y-82738608D01*
X159014500Y-82822314D01*
X159107686Y-82915500D01*
X159221814Y-82981392D01*
X159349108Y-83015500D01*
X159349110Y-83015500D01*
X159480890Y-83015500D01*
X159480892Y-83015500D01*
X159608186Y-82981392D01*
X159722314Y-82915500D01*
X159785995Y-82851819D01*
X159847318Y-82818334D01*
X159873676Y-82815500D01*
X160340500Y-82815500D01*
X160407539Y-82835185D01*
X160453294Y-82887989D01*
X160464500Y-82939500D01*
X160464500Y-83071616D01*
X160466423Y-83092778D01*
X160470913Y-83142192D01*
X160470913Y-83142194D01*
X160470914Y-83142196D01*
X160521522Y-83304606D01*
X160580080Y-83401473D01*
X160609530Y-83450188D01*
X160729811Y-83570469D01*
X160729813Y-83570470D01*
X160729815Y-83570472D01*
X160875394Y-83658478D01*
X161037804Y-83709086D01*
X161108384Y-83715500D01*
X161990500Y-83715500D01*
X162057539Y-83735185D01*
X162103294Y-83787989D01*
X162114500Y-83839500D01*
X162114500Y-87515502D01*
X162094815Y-87582541D01*
X162042011Y-87628296D01*
X162037953Y-87630063D01*
X161899770Y-87687300D01*
X161899767Y-87687301D01*
X161899767Y-87687302D01*
X161779549Y-87779549D01*
X161698138Y-87885646D01*
X161687300Y-87899770D01*
X161629313Y-88039763D01*
X161629313Y-88039764D01*
X161614500Y-88152272D01*
X161614500Y-89477727D01*
X161629313Y-89590235D01*
X161629313Y-89590236D01*
X161633564Y-89600500D01*
X161687302Y-89730233D01*
X161779549Y-89850451D01*
X161899767Y-89942698D01*
X161899770Y-89942699D01*
X161899771Y-89942700D01*
X161926480Y-89953763D01*
X162037953Y-89999936D01*
X162053517Y-90012478D01*
X162071703Y-90020784D01*
X162080166Y-90033953D01*
X162092356Y-90043776D01*
X162098669Y-90062744D01*
X162109477Y-90079562D01*
X162113439Y-90107122D01*
X162114421Y-90110071D01*
X162114500Y-90114497D01*
X162114500Y-90325500D01*
X162094815Y-90392539D01*
X162042011Y-90438294D01*
X161990500Y-90449500D01*
X161875012Y-90449500D01*
X161807973Y-90429815D01*
X161774689Y-90398379D01*
X161773529Y-90396782D01*
X161773528Y-90396780D01*
X161773525Y-90396777D01*
X161773523Y-90396774D01*
X161678225Y-90301476D01*
X161678221Y-90301473D01*
X161678220Y-90301472D01*
X161558126Y-90240281D01*
X161558124Y-90240280D01*
X161558121Y-90240279D01*
X161458493Y-90224500D01*
X161458488Y-90224500D01*
X160941512Y-90224500D01*
X160941507Y-90224500D01*
X160841878Y-90240279D01*
X160721778Y-90301473D01*
X160721774Y-90301476D01*
X160626476Y-90396774D01*
X160626473Y-90396778D01*
X160626472Y-90396780D01*
X160576835Y-90494199D01*
X160565279Y-90516878D01*
X160549500Y-90616506D01*
X160549500Y-91183493D01*
X160565279Y-91283121D01*
X160565280Y-91283124D01*
X160565281Y-91283126D01*
X160626472Y-91403220D01*
X160626473Y-91403221D01*
X160626476Y-91403225D01*
X160721774Y-91498523D01*
X160721778Y-91498526D01*
X160721780Y-91498528D01*
X160841874Y-91559719D01*
X160841876Y-91559719D01*
X160841878Y-91559720D01*
X160941507Y-91575500D01*
X160941512Y-91575500D01*
X161458493Y-91575500D01*
X161558121Y-91559720D01*
X161558121Y-91559719D01*
X161558126Y-91559719D01*
X161678220Y-91498528D01*
X161773528Y-91403220D01*
X161773531Y-91403213D01*
X161774689Y-91401621D01*
X161776607Y-91400141D01*
X161780429Y-91396320D01*
X161780922Y-91396813D01*
X161830017Y-91358952D01*
X161875012Y-91350500D01*
X162311063Y-91350500D01*
X162363750Y-91364618D01*
X162364304Y-91363281D01*
X162371807Y-91366388D01*
X162371814Y-91366392D01*
X162499108Y-91400500D01*
X162499110Y-91400500D01*
X162630890Y-91400500D01*
X162630892Y-91400500D01*
X162758186Y-91366392D01*
X162758194Y-91366387D01*
X162765696Y-91363281D01*
X162766249Y-91364618D01*
X162818937Y-91350500D01*
X163224988Y-91350500D01*
X163292027Y-91370185D01*
X163325311Y-91401621D01*
X163326476Y-91403225D01*
X163421774Y-91498523D01*
X163421778Y-91498526D01*
X163421780Y-91498528D01*
X163541874Y-91559719D01*
X163541876Y-91559719D01*
X163541878Y-91559720D01*
X163641507Y-91575500D01*
X163641512Y-91575500D01*
X164158493Y-91575500D01*
X164258121Y-91559720D01*
X164258121Y-91559719D01*
X164258126Y-91559719D01*
X164378220Y-91498528D01*
X164473528Y-91403220D01*
X164534719Y-91283126D01*
X164534720Y-91283121D01*
X164550500Y-91183493D01*
X164550500Y-90616506D01*
X164534720Y-90516878D01*
X164534719Y-90516876D01*
X164534719Y-90516874D01*
X164473528Y-90396780D01*
X164473526Y-90396778D01*
X164473523Y-90396774D01*
X164378225Y-90301476D01*
X164378221Y-90301473D01*
X164378220Y-90301472D01*
X164258126Y-90240281D01*
X164258124Y-90240280D01*
X164258121Y-90240279D01*
X164158493Y-90224500D01*
X164158488Y-90224500D01*
X163641512Y-90224500D01*
X163641507Y-90224500D01*
X163541878Y-90240279D01*
X163421778Y-90301473D01*
X163421774Y-90301476D01*
X163326476Y-90396774D01*
X163325311Y-90398379D01*
X163323392Y-90399858D01*
X163320510Y-90402740D01*
X163318701Y-90406703D01*
X163293601Y-90422833D01*
X163269983Y-90441048D01*
X163263307Y-90442301D01*
X163259923Y-90444477D01*
X163224988Y-90449500D01*
X163139500Y-90449500D01*
X163072461Y-90429815D01*
X163026706Y-90377011D01*
X163015500Y-90325500D01*
X163015500Y-90114497D01*
X163035185Y-90047458D01*
X163087989Y-90001703D01*
X163092027Y-89999945D01*
X163230228Y-89942700D01*
X163230229Y-89942700D01*
X163230229Y-89942699D01*
X163230233Y-89942698D01*
X163350451Y-89850451D01*
X163442698Y-89730233D01*
X163500687Y-89590236D01*
X163515500Y-89477720D01*
X163515500Y-88152280D01*
X163515499Y-88152272D01*
X163914500Y-88152272D01*
X163914500Y-89477727D01*
X163929313Y-89590235D01*
X163929313Y-89590236D01*
X163933564Y-89600500D01*
X163987302Y-89730233D01*
X164079549Y-89850451D01*
X164199767Y-89942698D01*
X164339764Y-90000687D01*
X164452280Y-90015500D01*
X164452287Y-90015500D01*
X165277713Y-90015500D01*
X165277720Y-90015500D01*
X165350241Y-90005952D01*
X165419275Y-90016717D01*
X165454107Y-90041210D01*
X167002222Y-91589325D01*
X167035707Y-91650648D01*
X167030723Y-91720340D01*
X166988851Y-91776273D01*
X166941469Y-91795572D01*
X166941958Y-91797397D01*
X166934109Y-91799500D01*
X166934108Y-91799500D01*
X166885787Y-91812447D01*
X166806812Y-91833608D01*
X166692686Y-91899500D01*
X166692683Y-91899502D01*
X166599502Y-91992683D01*
X166599500Y-91992686D01*
X166533608Y-92106812D01*
X166507241Y-92205218D01*
X166499500Y-92234108D01*
X166499500Y-92365892D01*
X166516554Y-92429539D01*
X166533608Y-92493187D01*
X166557604Y-92534748D01*
X166599500Y-92607314D01*
X166692686Y-92700500D01*
X166773062Y-92746905D01*
X166805944Y-92765890D01*
X166806814Y-92766392D01*
X166934108Y-92800500D01*
X166934110Y-92800500D01*
X167024167Y-92800500D01*
X167091206Y-92820185D01*
X167111848Y-92836819D01*
X167359540Y-93084511D01*
X167415489Y-93140460D01*
X167415491Y-93140461D01*
X167415495Y-93140464D01*
X167484002Y-93180016D01*
X167484011Y-93180021D01*
X167484019Y-93180023D01*
X167484317Y-93180147D01*
X167484541Y-93180328D01*
X167491049Y-93184085D01*
X167490463Y-93185099D01*
X167538722Y-93223986D01*
X167547352Y-93238414D01*
X167590140Y-93322389D01*
X167590145Y-93322396D01*
X167677603Y-93409854D01*
X167677605Y-93409855D01*
X167677609Y-93409859D01*
X167787825Y-93466017D01*
X167787826Y-93466017D01*
X167787828Y-93466018D01*
X167822947Y-93471579D01*
X167879265Y-93480500D01*
X169160734Y-93480499D01*
X169160739Y-93480499D01*
X169160739Y-93480498D01*
X169206454Y-93473258D01*
X169252170Y-93466018D01*
X169252171Y-93466018D01*
X169252172Y-93466017D01*
X169252175Y-93466017D01*
X169362391Y-93409859D01*
X169449859Y-93322391D01*
X169506017Y-93212175D01*
X169506017Y-93212173D01*
X169506018Y-93212172D01*
X169506018Y-93212171D01*
X169509901Y-93187650D01*
X169520500Y-93120735D01*
X169520499Y-92679266D01*
X169520499Y-92679264D01*
X169520499Y-92679260D01*
X169506018Y-92587829D01*
X169506018Y-92587828D01*
X169506017Y-92587826D01*
X169506017Y-92587825D01*
X169449859Y-92477609D01*
X169449857Y-92477607D01*
X169449854Y-92477603D01*
X169362396Y-92390145D01*
X169362393Y-92390143D01*
X169362391Y-92390141D01*
X169252175Y-92333983D01*
X169252174Y-92333982D01*
X169252171Y-92333981D01*
X169160735Y-92319500D01*
X169024893Y-92319500D01*
X168957854Y-92299815D01*
X168917505Y-92257499D01*
X168903712Y-92233608D01*
X168880490Y-92193386D01*
X165851819Y-89164715D01*
X165818334Y-89103392D01*
X165815500Y-89077034D01*
X165815500Y-88718475D01*
X168224500Y-88718475D01*
X168224500Y-89181517D01*
X168235292Y-89249657D01*
X168239354Y-89275304D01*
X168296950Y-89388342D01*
X168296952Y-89388344D01*
X168296954Y-89388347D01*
X168386652Y-89478045D01*
X168386654Y-89478046D01*
X168386658Y-89478050D01*
X168489100Y-89530247D01*
X168499698Y-89535647D01*
X168508980Y-89538663D01*
X168508162Y-89541177D01*
X168558019Y-89564803D01*
X168594959Y-89624109D01*
X168599500Y-89657359D01*
X168599500Y-90439562D01*
X168607589Y-90469750D01*
X168619979Y-90515990D01*
X168619980Y-90515991D01*
X168627045Y-90528229D01*
X168645123Y-90559540D01*
X168659540Y-90584511D01*
X169359540Y-91284511D01*
X169415489Y-91340460D01*
X169415491Y-91340461D01*
X169415495Y-91340464D01*
X169466974Y-91370185D01*
X169484011Y-91380021D01*
X169560438Y-91400500D01*
X174724167Y-91400500D01*
X174791206Y-91420185D01*
X174811848Y-91436819D01*
X175196870Y-91821841D01*
X175230355Y-91883164D01*
X175225371Y-91952856D01*
X175183499Y-92008789D01*
X175118035Y-92033206D01*
X175077097Y-92029297D01*
X174965892Y-91999500D01*
X174834108Y-91999500D01*
X174706812Y-92033608D01*
X174592686Y-92099500D01*
X174592683Y-92099502D01*
X174499502Y-92192683D01*
X174499500Y-92192686D01*
X174453349Y-92272621D01*
X174402781Y-92320836D01*
X174334174Y-92334058D01*
X174326566Y-92333094D01*
X174289509Y-92327225D01*
X174240735Y-92319500D01*
X174240730Y-92319500D01*
X172959260Y-92319500D01*
X172959260Y-92319501D01*
X172867829Y-92333981D01*
X172867828Y-92333981D01*
X172757607Y-92390142D01*
X172757603Y-92390145D01*
X172670145Y-92477603D01*
X172670143Y-92477607D01*
X172670141Y-92477609D01*
X172664670Y-92488347D01*
X172613981Y-92587827D01*
X172613981Y-92587828D01*
X172599500Y-92679264D01*
X172599501Y-93120735D01*
X172599501Y-93120737D01*
X172613981Y-93212170D01*
X172613981Y-93212171D01*
X172613982Y-93212174D01*
X172613983Y-93212175D01*
X172668820Y-93319799D01*
X172670142Y-93322392D01*
X172670145Y-93322396D01*
X172757603Y-93409854D01*
X172757605Y-93409855D01*
X172757609Y-93409859D01*
X172867825Y-93466017D01*
X172867826Y-93466017D01*
X172867828Y-93466018D01*
X172902947Y-93471579D01*
X172959265Y-93480500D01*
X174240734Y-93480499D01*
X174240739Y-93480499D01*
X174240739Y-93480498D01*
X174286454Y-93473258D01*
X174332170Y-93466018D01*
X174332171Y-93466018D01*
X174332172Y-93466017D01*
X174332175Y-93466017D01*
X174442391Y-93409859D01*
X174452750Y-93399500D01*
X174465432Y-93386819D01*
X174525800Y-93353546D01*
X174539289Y-93350500D01*
X174559309Y-93350500D01*
X174664213Y-93322391D01*
X174673887Y-93319799D01*
X174776614Y-93260489D01*
X175038991Y-92998110D01*
X175086228Y-92970842D01*
X175085674Y-92969504D01*
X175093180Y-92966393D01*
X175093186Y-92966392D01*
X175207314Y-92900500D01*
X175300500Y-92807314D01*
X175366392Y-92693186D01*
X175368225Y-92686343D01*
X175404589Y-92626683D01*
X175467435Y-92596153D01*
X175536811Y-92604447D01*
X175590689Y-92648931D01*
X175611965Y-92715483D01*
X175612000Y-92718436D01*
X175612000Y-93009768D01*
X175614813Y-93039769D01*
X175614815Y-93039781D01*
X175659044Y-93166178D01*
X175659045Y-93166180D01*
X175738569Y-93273930D01*
X175846319Y-93353454D01*
X175846321Y-93353455D01*
X175972718Y-93397684D01*
X175972722Y-93397684D01*
X175972726Y-93397686D01*
X175987731Y-93399093D01*
X176002732Y-93400500D01*
X176002736Y-93400500D01*
X176597268Y-93400500D01*
X176610601Y-93399249D01*
X176627274Y-93397686D01*
X176627278Y-93397684D01*
X176627281Y-93397684D01*
X176698345Y-93372816D01*
X176753679Y-93353455D01*
X176861430Y-93273930D01*
X176940955Y-93166179D01*
X176969532Y-93084511D01*
X176985184Y-93039781D01*
X176985184Y-93039778D01*
X176985186Y-93039774D01*
X176988000Y-93009764D01*
X176988000Y-91990236D01*
X176987827Y-91988395D01*
X176986436Y-91973563D01*
X176985186Y-91960226D01*
X176985184Y-91960222D01*
X176985184Y-91960218D01*
X176940955Y-91833821D01*
X176940954Y-91833819D01*
X176861430Y-91726069D01*
X176753680Y-91646545D01*
X176753678Y-91646544D01*
X176627281Y-91602315D01*
X176627269Y-91602313D01*
X176597268Y-91599500D01*
X176597264Y-91599500D01*
X176002736Y-91599500D01*
X176002732Y-91599500D01*
X175972728Y-91602313D01*
X175938526Y-91614281D01*
X175868747Y-91617842D01*
X175809891Y-91584920D01*
X175084512Y-90859541D01*
X175084511Y-90859540D01*
X175051863Y-90840691D01*
X175051863Y-90840690D01*
X175051861Y-90840690D01*
X175039179Y-90833368D01*
X175039178Y-90833367D01*
X175026648Y-90826133D01*
X175015990Y-90819979D01*
X175015991Y-90819979D01*
X174977775Y-90809739D01*
X174939562Y-90799500D01*
X174939560Y-90799500D01*
X169775833Y-90799500D01*
X169708794Y-90779815D01*
X169688152Y-90763181D01*
X169659079Y-90734108D01*
X176599500Y-90734108D01*
X176599500Y-90865892D01*
X176608009Y-90897648D01*
X176633608Y-90993187D01*
X176639293Y-91003033D01*
X176699500Y-91107314D01*
X176792686Y-91200500D01*
X176906814Y-91266392D01*
X177034108Y-91300500D01*
X177034110Y-91300500D01*
X177165890Y-91300500D01*
X177165892Y-91300500D01*
X177293186Y-91266392D01*
X177399860Y-91204803D01*
X177467757Y-91188331D01*
X177533784Y-91211183D01*
X177549539Y-91224510D01*
X177767161Y-91442132D01*
X177800646Y-91503455D01*
X177795662Y-91573147D01*
X177753790Y-91629080D01*
X177729451Y-91642051D01*
X177729533Y-91642205D01*
X177721319Y-91646545D01*
X177613569Y-91726069D01*
X177534045Y-91833819D01*
X177534044Y-91833821D01*
X177489815Y-91960218D01*
X177489813Y-91960230D01*
X177487000Y-91990231D01*
X177487000Y-93009768D01*
X177489813Y-93039769D01*
X177489815Y-93039781D01*
X177534044Y-93166178D01*
X177534045Y-93166180D01*
X177613569Y-93273930D01*
X177721319Y-93353454D01*
X177721321Y-93353455D01*
X177847718Y-93397684D01*
X177847722Y-93397684D01*
X177847726Y-93397686D01*
X177862731Y-93399093D01*
X177877732Y-93400500D01*
X177877736Y-93400500D01*
X178472268Y-93400500D01*
X178485601Y-93399249D01*
X178502274Y-93397686D01*
X178502278Y-93397684D01*
X178502281Y-93397684D01*
X178573345Y-93372816D01*
X178628679Y-93353455D01*
X178736430Y-93273930D01*
X178815955Y-93166179D01*
X178844532Y-93084511D01*
X178860184Y-93039781D01*
X178860184Y-93039778D01*
X178860186Y-93039774D01*
X178863000Y-93009764D01*
X178863000Y-91990236D01*
X178862827Y-91988395D01*
X178861436Y-91973563D01*
X178860186Y-91960226D01*
X178860184Y-91960222D01*
X178860184Y-91960218D01*
X178815955Y-91833821D01*
X178815954Y-91833819D01*
X178736430Y-91726069D01*
X178628682Y-91646547D01*
X178628681Y-91646546D01*
X178628679Y-91646545D01*
X178558542Y-91622003D01*
X178501769Y-91581283D01*
X178476022Y-91516330D01*
X178475500Y-91504963D01*
X178475500Y-91385439D01*
X178471413Y-91370185D01*
X178455021Y-91309011D01*
X178440876Y-91284511D01*
X178415464Y-91240495D01*
X178415458Y-91240487D01*
X178072619Y-90897648D01*
X180699500Y-90897648D01*
X180699500Y-91102351D01*
X180731522Y-91304534D01*
X180794781Y-91499223D01*
X180857343Y-91622005D01*
X180885208Y-91676694D01*
X180887715Y-91681613D01*
X181008028Y-91847213D01*
X181152786Y-91991971D01*
X181300790Y-92099500D01*
X181318390Y-92112287D01*
X181434607Y-92171503D01*
X181500776Y-92205218D01*
X181500778Y-92205218D01*
X181500781Y-92205220D01*
X181588144Y-92233606D01*
X181695465Y-92268477D01*
X181777796Y-92281517D01*
X181897648Y-92300500D01*
X181897649Y-92300500D01*
X182102351Y-92300500D01*
X182102352Y-92300500D01*
X182304534Y-92268477D01*
X182499219Y-92205220D01*
X182681610Y-92112287D01*
X182802145Y-92024714D01*
X182847213Y-91991971D01*
X182847215Y-91991968D01*
X182847219Y-91991966D01*
X182991966Y-91847219D01*
X182991968Y-91847215D01*
X182991971Y-91847213D01*
X183079985Y-91726070D01*
X183112287Y-91681610D01*
X183205220Y-91499219D01*
X183268477Y-91304534D01*
X183300500Y-91102352D01*
X183300500Y-90897648D01*
X183295101Y-90863562D01*
X183268477Y-90695465D01*
X183235688Y-90594552D01*
X183205220Y-90500781D01*
X183205218Y-90500778D01*
X183205218Y-90500776D01*
X183157285Y-90406703D01*
X183112287Y-90318390D01*
X183099996Y-90301473D01*
X182991971Y-90152786D01*
X182847213Y-90008028D01*
X182681613Y-89887715D01*
X182681612Y-89887714D01*
X182681610Y-89887713D01*
X182624653Y-89858691D01*
X182499223Y-89794781D01*
X182304534Y-89731522D01*
X182129995Y-89703878D01*
X182102352Y-89699500D01*
X181897648Y-89699500D01*
X181873329Y-89703351D01*
X181695465Y-89731522D01*
X181500776Y-89794781D01*
X181318386Y-89887715D01*
X181152786Y-90008028D01*
X181008028Y-90152786D01*
X180887715Y-90318386D01*
X180794781Y-90500776D01*
X180731522Y-90695465D01*
X180699500Y-90897648D01*
X178072619Y-90897648D01*
X177734511Y-90559540D01*
X177734507Y-90559537D01*
X177729535Y-90556667D01*
X177729534Y-90556666D01*
X177717121Y-90549500D01*
X177665989Y-90519979D01*
X177589562Y-90499500D01*
X177540351Y-90499500D01*
X177522808Y-90494199D01*
X177508284Y-90484703D01*
X177491637Y-90479815D01*
X177470995Y-90463181D01*
X177407316Y-90399502D01*
X177407314Y-90399500D01*
X177319120Y-90348581D01*
X177293187Y-90333608D01*
X177209124Y-90311084D01*
X177165892Y-90299500D01*
X177034108Y-90299500D01*
X176906812Y-90333608D01*
X176792686Y-90399500D01*
X176792683Y-90399502D01*
X176699502Y-90492683D01*
X176699500Y-90492686D01*
X176633608Y-90606812D01*
X176609854Y-90695465D01*
X176599500Y-90734108D01*
X169659079Y-90734108D01*
X169236819Y-90311848D01*
X169203334Y-90250525D01*
X169200500Y-90224167D01*
X169200500Y-89657359D01*
X169220185Y-89590320D01*
X169272989Y-89544565D01*
X169291157Y-89539089D01*
X169291019Y-89538663D01*
X169300300Y-89535647D01*
X169300301Y-89535646D01*
X169300304Y-89535646D01*
X169413342Y-89478050D01*
X169503050Y-89388342D01*
X169560646Y-89275304D01*
X169560646Y-89275302D01*
X169560647Y-89275301D01*
X169572612Y-89199752D01*
X169575500Y-89181519D01*
X169575499Y-88718482D01*
X169560646Y-88624696D01*
X169503050Y-88511658D01*
X169503046Y-88511654D01*
X169503045Y-88511652D01*
X169413347Y-88421954D01*
X169413344Y-88421952D01*
X169413342Y-88421950D01*
X169336517Y-88382805D01*
X169300301Y-88364352D01*
X169206524Y-88349500D01*
X168593482Y-88349500D01*
X168512519Y-88362323D01*
X168499696Y-88364354D01*
X168386658Y-88421950D01*
X168386657Y-88421951D01*
X168386652Y-88421954D01*
X168296954Y-88511652D01*
X168296951Y-88511657D01*
X168239352Y-88624698D01*
X168224500Y-88718475D01*
X165815500Y-88718475D01*
X165815500Y-88360832D01*
X165835185Y-88293793D01*
X165851815Y-88273155D01*
X166261431Y-87863538D01*
X166322752Y-87830055D01*
X166392443Y-87835039D01*
X166436791Y-87863540D01*
X166496774Y-87923523D01*
X166496778Y-87923526D01*
X166496780Y-87923528D01*
X166616874Y-87984719D01*
X166616876Y-87984719D01*
X166616878Y-87984720D01*
X166716507Y-88000500D01*
X166716512Y-88000500D01*
X167283493Y-88000500D01*
X167383121Y-87984720D01*
X167383121Y-87984719D01*
X167383126Y-87984719D01*
X167503220Y-87923528D01*
X167598528Y-87828220D01*
X167659719Y-87708126D01*
X167659720Y-87708121D01*
X167675500Y-87608493D01*
X167675500Y-87091506D01*
X167659720Y-86991878D01*
X167659719Y-86991876D01*
X167659719Y-86991874D01*
X167598528Y-86871780D01*
X167598526Y-86871778D01*
X167598523Y-86871774D01*
X167503225Y-86776476D01*
X167503221Y-86776473D01*
X167503220Y-86776472D01*
X167383126Y-86715281D01*
X167383124Y-86715280D01*
X167383121Y-86715279D01*
X167283493Y-86699500D01*
X167283488Y-86699500D01*
X166716512Y-86699500D01*
X166716507Y-86699500D01*
X166616878Y-86715279D01*
X166616874Y-86715280D01*
X166616874Y-86715281D01*
X166602225Y-86722745D01*
X166496778Y-86776473D01*
X166496774Y-86776476D01*
X166401476Y-86871774D01*
X166401474Y-86871778D01*
X166401472Y-86871780D01*
X166377410Y-86919004D01*
X166336059Y-87000160D01*
X166288084Y-87050956D01*
X166275808Y-87057234D01*
X166266984Y-87061143D01*
X166234011Y-87069979D01*
X166196715Y-87091512D01*
X166191001Y-87094810D01*
X166190994Y-87094814D01*
X166165490Y-87109539D01*
X166165487Y-87109541D01*
X165629473Y-87645554D01*
X165568150Y-87679039D01*
X165498458Y-87674055D01*
X165494339Y-87672434D01*
X165429445Y-87645554D01*
X165390236Y-87629313D01*
X165315494Y-87619473D01*
X165273695Y-87613970D01*
X165273951Y-87612018D01*
X165215774Y-87590708D01*
X165173575Y-87535022D01*
X165165500Y-87491006D01*
X165165500Y-87210833D01*
X165185185Y-87143794D01*
X165201819Y-87123152D01*
X165680085Y-86644886D01*
X166161058Y-86163912D01*
X166222379Y-86130429D01*
X166292070Y-86135413D01*
X166348004Y-86177285D01*
X166359221Y-86195299D01*
X166401471Y-86278218D01*
X166401476Y-86278225D01*
X166496774Y-86373523D01*
X166496778Y-86373526D01*
X166496780Y-86373528D01*
X166616874Y-86434719D01*
X166616876Y-86434719D01*
X166616878Y-86434720D01*
X166716507Y-86450500D01*
X166716512Y-86450500D01*
X167283493Y-86450500D01*
X167383121Y-86434720D01*
X167383121Y-86434719D01*
X167383126Y-86434719D01*
X167503220Y-86373528D01*
X167598528Y-86278220D01*
X167659719Y-86158126D01*
X167662883Y-86138152D01*
X167675500Y-86058493D01*
X167675500Y-85541506D01*
X167659720Y-85441878D01*
X167659719Y-85441876D01*
X167659719Y-85441874D01*
X167598528Y-85321780D01*
X167598526Y-85321778D01*
X167598523Y-85321774D01*
X167503225Y-85226476D01*
X167503221Y-85226473D01*
X167503220Y-85226472D01*
X167383126Y-85165281D01*
X167383124Y-85165280D01*
X167383121Y-85165279D01*
X167283493Y-85149500D01*
X167283488Y-85149500D01*
X166716512Y-85149500D01*
X166716507Y-85149500D01*
X166616878Y-85165279D01*
X166496778Y-85226473D01*
X166496774Y-85226476D01*
X166401476Y-85321774D01*
X166401474Y-85321778D01*
X166401472Y-85321780D01*
X166355126Y-85412740D01*
X166345417Y-85431795D01*
X166297442Y-85482591D01*
X166234932Y-85499500D01*
X166060438Y-85499500D01*
X165984010Y-85519978D01*
X165915489Y-85559540D01*
X165915486Y-85559542D01*
X164624541Y-86850487D01*
X164624535Y-86850495D01*
X164584982Y-86919004D01*
X164584979Y-86919009D01*
X164581560Y-86931769D01*
X164565891Y-86990249D01*
X164564500Y-86995439D01*
X164564500Y-87491006D01*
X164544815Y-87558045D01*
X164492011Y-87603800D01*
X164456156Y-87612839D01*
X164456305Y-87613970D01*
X164339764Y-87629313D01*
X164339763Y-87629313D01*
X164199770Y-87687300D01*
X164199767Y-87687301D01*
X164199767Y-87687302D01*
X164079549Y-87779549D01*
X163998138Y-87885646D01*
X163987300Y-87899770D01*
X163929313Y-88039763D01*
X163929313Y-88039764D01*
X163914500Y-88152272D01*
X163515499Y-88152272D01*
X163500687Y-88039764D01*
X163442698Y-87899767D01*
X163350451Y-87779549D01*
X163230233Y-87687302D01*
X163230229Y-87687300D01*
X163092047Y-87630063D01*
X163037644Y-87586222D01*
X163015579Y-87519928D01*
X163015500Y-87515502D01*
X163015500Y-84520815D01*
X167569960Y-84520815D01*
X167569960Y-84652599D01*
X167580068Y-84690323D01*
X167604068Y-84779894D01*
X167634228Y-84832132D01*
X167669960Y-84894021D01*
X167763146Y-84987207D01*
X167855502Y-85040529D01*
X167876300Y-85052537D01*
X167877274Y-85053099D01*
X168004568Y-85087207D01*
X168004570Y-85087207D01*
X168136350Y-85087207D01*
X168136352Y-85087207D01*
X168175938Y-85076600D01*
X168245786Y-85078262D01*
X168303649Y-85117423D01*
X168331154Y-85181651D01*
X168327806Y-85228467D01*
X168302803Y-85321780D01*
X168299500Y-85334108D01*
X168299500Y-85465892D01*
X168308505Y-85499500D01*
X168333608Y-85593187D01*
X168359475Y-85637989D01*
X168399500Y-85707314D01*
X168492686Y-85800500D01*
X168606814Y-85866392D01*
X168734108Y-85900500D01*
X168734110Y-85900500D01*
X168865890Y-85900500D01*
X168865892Y-85900500D01*
X168993186Y-85866392D01*
X169107314Y-85800500D01*
X169200500Y-85707314D01*
X169266392Y-85593186D01*
X169300500Y-85465892D01*
X169300500Y-85375832D01*
X169320185Y-85308793D01*
X169336819Y-85288151D01*
X169475470Y-85149500D01*
X169615589Y-85009380D01*
X169628642Y-85001680D01*
X169636761Y-84992407D01*
X169660472Y-84982903D01*
X169668940Y-84977909D01*
X169673939Y-84976468D01*
X169680117Y-84975240D01*
X169681566Y-84974271D01*
X169691172Y-84971504D01*
X169719429Y-84971647D01*
X169747521Y-84968629D01*
X169753902Y-84971823D01*
X169761041Y-84971860D01*
X169784735Y-84987258D01*
X169809999Y-84999906D01*
X169813640Y-85006044D01*
X169819626Y-85009934D01*
X169831232Y-85035696D01*
X169845649Y-85059996D01*
X169846989Y-85070670D01*
X169848326Y-85073637D01*
X169847803Y-85077146D01*
X169849500Y-85090658D01*
X169849500Y-85546062D01*
X169835383Y-85598751D01*
X169836719Y-85599304D01*
X169833608Y-85606814D01*
X169799500Y-85734108D01*
X169799500Y-85824166D01*
X169779815Y-85891205D01*
X169763181Y-85911847D01*
X169011846Y-86663181D01*
X168950523Y-86696666D01*
X168924165Y-86699500D01*
X168593482Y-86699500D01*
X168512519Y-86712323D01*
X168499696Y-86714354D01*
X168386658Y-86771950D01*
X168386657Y-86771951D01*
X168386652Y-86771954D01*
X168296954Y-86861652D01*
X168296951Y-86861657D01*
X168239352Y-86974698D01*
X168224500Y-87068475D01*
X168224500Y-87531517D01*
X168233875Y-87590708D01*
X168239354Y-87625304D01*
X168296950Y-87738342D01*
X168296952Y-87738344D01*
X168296954Y-87738347D01*
X168386652Y-87828045D01*
X168386654Y-87828046D01*
X168386658Y-87828050D01*
X168489006Y-87880199D01*
X168499698Y-87885647D01*
X168593475Y-87900499D01*
X168593481Y-87900500D01*
X169206518Y-87900499D01*
X169300304Y-87885646D01*
X169413342Y-87828050D01*
X169503050Y-87738342D01*
X169560646Y-87625304D01*
X169560646Y-87625302D01*
X169560647Y-87625301D01*
X169575499Y-87531524D01*
X169575500Y-87531519D01*
X169575499Y-87068482D01*
X169575499Y-87068481D01*
X169575499Y-87068477D01*
X169569111Y-87028145D01*
X169578066Y-86958851D01*
X169603900Y-86921069D01*
X170188151Y-86336819D01*
X170249474Y-86303334D01*
X170275832Y-86300500D01*
X170365890Y-86300500D01*
X170365892Y-86300500D01*
X170493186Y-86266392D01*
X170528499Y-86246003D01*
X170534400Y-86244571D01*
X170538989Y-86240596D01*
X170567953Y-86236431D01*
X170596398Y-86229530D01*
X170602136Y-86231516D01*
X170608147Y-86230652D01*
X170634767Y-86242809D01*
X170662425Y-86252381D01*
X170666178Y-86257154D01*
X170671703Y-86259677D01*
X170687526Y-86284298D01*
X170705617Y-86307302D01*
X170707033Y-86314653D01*
X170709477Y-86318455D01*
X170714500Y-86353390D01*
X170714500Y-86575500D01*
X170694815Y-86642539D01*
X170642011Y-86688294D01*
X170590501Y-86699500D01*
X170493482Y-86699500D01*
X170412519Y-86712323D01*
X170399696Y-86714354D01*
X170286658Y-86771950D01*
X170286657Y-86771951D01*
X170286652Y-86771954D01*
X170196954Y-86861652D01*
X170196951Y-86861657D01*
X170139352Y-86974698D01*
X170124500Y-87068475D01*
X170124500Y-87531517D01*
X170133875Y-87590708D01*
X170139354Y-87625304D01*
X170196950Y-87738342D01*
X170196952Y-87738344D01*
X170196954Y-87738347D01*
X170286652Y-87828045D01*
X170286654Y-87828046D01*
X170286658Y-87828050D01*
X170389006Y-87880199D01*
X170399698Y-87885647D01*
X170493475Y-87900499D01*
X170493481Y-87900500D01*
X171106518Y-87900499D01*
X171200304Y-87885646D01*
X171313342Y-87828050D01*
X171403050Y-87738342D01*
X171460646Y-87625304D01*
X171460646Y-87625302D01*
X171460647Y-87625301D01*
X171475499Y-87531524D01*
X171475500Y-87531519D01*
X171475499Y-87068482D01*
X171460646Y-86974696D01*
X171403050Y-86861658D01*
X171403046Y-86861654D01*
X171403045Y-86861652D01*
X171351819Y-86810426D01*
X171318334Y-86749103D01*
X171315500Y-86722745D01*
X171315500Y-84878296D01*
X171324939Y-84830842D01*
X171325236Y-84830121D01*
X171325240Y-84830117D01*
X171340500Y-84753401D01*
X171340499Y-84298662D01*
X171341011Y-84296917D01*
X171340549Y-84295159D01*
X171350810Y-84263543D01*
X171360183Y-84231625D01*
X171361558Y-84230433D01*
X171362120Y-84228703D01*
X171387845Y-84207654D01*
X171412987Y-84185870D01*
X171414789Y-84185610D01*
X171416197Y-84184459D01*
X171449224Y-84180659D01*
X171482146Y-84175926D01*
X171484377Y-84176615D01*
X171485609Y-84176474D01*
X171495471Y-84180044D01*
X171519178Y-84187371D01*
X171522908Y-84189203D01*
X171603613Y-84235799D01*
X171622994Y-84240992D01*
X171718191Y-84266500D01*
X171852079Y-84266500D01*
X171919118Y-84286185D01*
X171939760Y-84302819D01*
X172213181Y-84576240D01*
X172246666Y-84637563D01*
X172249500Y-84663921D01*
X172249500Y-86674987D01*
X172229815Y-86742026D01*
X172198386Y-86775305D01*
X172196776Y-86776474D01*
X172101476Y-86871774D01*
X172101473Y-86871778D01*
X172040279Y-86991878D01*
X172024500Y-87091506D01*
X172024500Y-87608493D01*
X172040279Y-87708121D01*
X172040280Y-87708124D01*
X172040281Y-87708126D01*
X172101472Y-87828220D01*
X172101473Y-87828221D01*
X172101476Y-87828225D01*
X172196774Y-87923523D01*
X172196778Y-87923526D01*
X172196780Y-87923528D01*
X172316874Y-87984719D01*
X172316876Y-87984719D01*
X172316878Y-87984720D01*
X172416507Y-88000500D01*
X172416512Y-88000500D01*
X172983493Y-88000500D01*
X173083121Y-87984720D01*
X173083121Y-87984719D01*
X173083126Y-87984719D01*
X173203220Y-87923528D01*
X173298528Y-87828220D01*
X173359719Y-87708126D01*
X173359720Y-87708121D01*
X173375500Y-87608493D01*
X173375500Y-87091506D01*
X173359720Y-86991878D01*
X173359719Y-86991876D01*
X173359719Y-86991874D01*
X173298528Y-86871780D01*
X173298526Y-86871778D01*
X173298523Y-86871774D01*
X173203223Y-86776474D01*
X173201614Y-86775305D01*
X173200131Y-86773382D01*
X173196320Y-86769571D01*
X173196812Y-86769078D01*
X173158948Y-86719974D01*
X173150500Y-86674987D01*
X173150500Y-84663921D01*
X173159144Y-84634480D01*
X173165668Y-84604494D01*
X173169422Y-84599478D01*
X173170185Y-84596882D01*
X173186819Y-84576240D01*
X173237819Y-84525240D01*
X173299142Y-84491755D01*
X173368834Y-84496739D01*
X173424767Y-84538611D01*
X173449184Y-84604075D01*
X173449500Y-84612921D01*
X173449500Y-86359309D01*
X173466382Y-86422313D01*
X173468565Y-86430460D01*
X173480201Y-86473888D01*
X173490899Y-86492417D01*
X173539511Y-86576614D01*
X174088386Y-87125489D01*
X174132552Y-87150988D01*
X174191114Y-87184799D01*
X174305691Y-87215500D01*
X174305694Y-87215500D01*
X175924308Y-87215500D01*
X175924309Y-87215500D01*
X176014673Y-87191286D01*
X176038887Y-87184799D01*
X176141614Y-87125489D01*
X176519490Y-86747614D01*
X176578799Y-86644887D01*
X176590960Y-86599500D01*
X176593207Y-86591115D01*
X176600624Y-86563433D01*
X176609500Y-86530309D01*
X176609500Y-86074865D01*
X176618144Y-86045424D01*
X176624668Y-86015438D01*
X176628422Y-86010422D01*
X176629185Y-86007826D01*
X176645819Y-85987184D01*
X176716184Y-85916819D01*
X176777507Y-85883334D01*
X176803865Y-85880500D01*
X177053385Y-85880500D01*
X177085478Y-85884725D01*
X177090218Y-85885995D01*
X177125691Y-85895500D01*
X177125693Y-85895500D01*
X177244307Y-85895500D01*
X177244309Y-85895500D01*
X177279782Y-85885995D01*
X177284522Y-85884725D01*
X177316615Y-85880500D01*
X177683628Y-85880500D01*
X177750667Y-85900185D01*
X177796422Y-85952989D01*
X177803400Y-85972399D01*
X177826469Y-86058493D01*
X177830312Y-86072835D01*
X177830313Y-86072838D01*
X177899492Y-86192661D01*
X177899494Y-86192664D01*
X177899495Y-86192665D01*
X177997335Y-86290505D01*
X177997336Y-86290506D01*
X177997338Y-86290507D01*
X178027961Y-86308187D01*
X178117164Y-86359688D01*
X178250817Y-86395500D01*
X178250819Y-86395500D01*
X178389181Y-86395500D01*
X178389183Y-86395500D01*
X178522836Y-86359688D01*
X178642665Y-86290505D01*
X178740505Y-86192665D01*
X178809688Y-86072836D01*
X178845500Y-85939183D01*
X178845500Y-85800817D01*
X178809688Y-85667164D01*
X178759879Y-85580892D01*
X178740507Y-85547338D01*
X178740503Y-85547333D01*
X178642665Y-85449495D01*
X178642661Y-85449492D01*
X178522838Y-85380313D01*
X178522837Y-85380312D01*
X178522836Y-85380312D01*
X178389183Y-85344500D01*
X178250817Y-85344500D01*
X178176593Y-85364388D01*
X178106743Y-85362725D01*
X178048881Y-85323562D01*
X178023700Y-85272601D01*
X178020500Y-85258789D01*
X178020500Y-85196740D01*
X178010573Y-85128607D01*
X177972109Y-85049927D01*
X177968919Y-85036158D01*
X177970156Y-85014824D01*
X177966559Y-84993758D01*
X177972278Y-84978223D01*
X177972964Y-84966405D01*
X177980383Y-84956210D01*
X177986615Y-84939282D01*
X178004515Y-84912495D01*
X178020500Y-84832133D01*
X178020499Y-84654500D01*
X178040183Y-84587461D01*
X178092987Y-84541706D01*
X178144499Y-84530500D01*
X178854167Y-84530500D01*
X178921206Y-84550185D01*
X178941848Y-84566819D01*
X179413181Y-85038152D01*
X179446666Y-85099475D01*
X179449500Y-85125833D01*
X179449500Y-87799166D01*
X179429815Y-87866205D01*
X179413181Y-87886847D01*
X178511846Y-88788181D01*
X178450523Y-88821666D01*
X178424165Y-88824500D01*
X177993482Y-88824500D01*
X177912519Y-88837323D01*
X177899696Y-88839354D01*
X177786658Y-88896950D01*
X177786657Y-88896951D01*
X177786652Y-88896954D01*
X177696954Y-88986652D01*
X177696951Y-88986657D01*
X177696950Y-88986658D01*
X177677751Y-89024337D01*
X177639352Y-89099698D01*
X177624500Y-89193475D01*
X177624500Y-89806517D01*
X177632999Y-89860178D01*
X177639354Y-89900304D01*
X177696950Y-90013342D01*
X177696952Y-90013344D01*
X177696954Y-90013347D01*
X177786652Y-90103045D01*
X177786654Y-90103046D01*
X177786658Y-90103050D01*
X177884270Y-90152786D01*
X177899698Y-90160647D01*
X177993475Y-90175499D01*
X177993481Y-90175500D01*
X178456518Y-90175499D01*
X178550304Y-90160646D01*
X178663342Y-90103050D01*
X178753050Y-90013342D01*
X178810646Y-89900304D01*
X178810646Y-89900302D01*
X178810647Y-89900301D01*
X178825453Y-89806814D01*
X178825500Y-89806519D01*
X178825499Y-89375831D01*
X178845183Y-89308793D01*
X178861813Y-89288156D01*
X179990460Y-88159511D01*
X180030022Y-88090988D01*
X180050500Y-88014562D01*
X180050500Y-87935438D01*
X180050500Y-84910438D01*
X180043678Y-84884979D01*
X180030022Y-84834012D01*
X179990460Y-84765489D01*
X179214511Y-83989540D01*
X179197951Y-83979979D01*
X179148795Y-83951599D01*
X179145991Y-83949980D01*
X179145990Y-83949979D01*
X179108057Y-83939815D01*
X179069562Y-83929500D01*
X179069560Y-83929500D01*
X178378658Y-83929500D01*
X178360584Y-83924192D01*
X178341751Y-83923880D01*
X178327755Y-83914553D01*
X178311619Y-83909815D01*
X178299284Y-83895580D01*
X178283609Y-83885134D01*
X178276877Y-83869720D01*
X178265864Y-83857011D01*
X178263183Y-83838366D01*
X178255644Y-83821105D01*
X178258313Y-83804500D01*
X178255920Y-83787853D01*
X178263744Y-83770718D01*
X178266735Y-83752121D01*
X178282289Y-83730111D01*
X178284945Y-83724297D01*
X178286307Y-83722751D01*
X178288573Y-83720221D01*
X178361460Y-83647335D01*
X178368747Y-83634713D01*
X178401021Y-83578813D01*
X178421500Y-83502386D01*
X178421500Y-82957614D01*
X178401021Y-82881187D01*
X178387238Y-82857314D01*
X178361464Y-82812671D01*
X178361458Y-82812663D01*
X178044210Y-82495415D01*
X178010725Y-82434092D01*
X178010274Y-82383542D01*
X178010421Y-82382804D01*
X178020500Y-82332133D01*
X178020499Y-82127868D01*
X178004515Y-82047505D01*
X178004513Y-82047502D01*
X177999841Y-82036222D01*
X178001285Y-82035623D01*
X177984563Y-81982211D01*
X178000517Y-81924056D01*
X177999842Y-81923777D01*
X178002070Y-81918396D01*
X178003049Y-81914831D01*
X178004452Y-81912647D01*
X178004516Y-81912493D01*
X178015999Y-81854760D01*
X178020500Y-81832133D01*
X178020499Y-81654500D01*
X178040183Y-81587461D01*
X178092987Y-81541706D01*
X178144499Y-81530500D01*
X179059560Y-81530500D01*
X179059562Y-81530500D01*
X179135989Y-81510021D01*
X179204511Y-81470460D01*
X179260460Y-81414511D01*
X179990460Y-80684511D01*
X180004877Y-80659540D01*
X180030021Y-80615989D01*
X180050500Y-80539562D01*
X180050500Y-77960438D01*
X180030021Y-77884011D01*
X180021837Y-77869835D01*
X179990464Y-77815495D01*
X179990458Y-77815487D01*
X178886818Y-76711847D01*
X178853333Y-76650524D01*
X178850499Y-76624166D01*
X178850499Y-76193482D01*
X178850498Y-76193475D01*
X178835646Y-76099696D01*
X178778050Y-75986658D01*
X178778046Y-75986654D01*
X178778045Y-75986652D01*
X178688347Y-75896954D01*
X178688344Y-75896952D01*
X178688342Y-75896950D01*
X178590740Y-75847219D01*
X178575301Y-75839352D01*
X178481524Y-75824500D01*
X178018482Y-75824500D01*
X177937519Y-75837323D01*
X177924696Y-75839354D01*
X177811658Y-75896950D01*
X177811657Y-75896951D01*
X177811652Y-75896954D01*
X177721954Y-75986652D01*
X177721951Y-75986657D01*
X177721950Y-75986658D01*
X177719243Y-75991971D01*
X177664352Y-76099698D01*
X177649500Y-76193475D01*
X177649500Y-76806517D01*
X177654848Y-76840281D01*
X177664354Y-76900304D01*
X177721950Y-77013342D01*
X177721952Y-77013344D01*
X177721954Y-77013347D01*
X177811652Y-77103045D01*
X177811654Y-77103046D01*
X177811658Y-77103050D01*
X177922525Y-77159540D01*
X177924698Y-77160647D01*
X178018475Y-77175499D01*
X178018481Y-77175500D01*
X178449166Y-77175499D01*
X178516205Y-77195183D01*
X178536847Y-77211818D01*
X179413181Y-78088152D01*
X179446666Y-78149475D01*
X179449500Y-78175833D01*
X179449500Y-80324167D01*
X179429815Y-80391206D01*
X179413181Y-80411848D01*
X178931848Y-80893181D01*
X178870525Y-80926666D01*
X178844167Y-80929500D01*
X178139655Y-80929500D01*
X178127774Y-80926011D01*
X178115444Y-80927113D01*
X178094882Y-80916353D01*
X178072616Y-80909815D01*
X178064509Y-80900459D01*
X178053538Y-80894718D01*
X178042056Y-80874547D01*
X178026861Y-80857011D01*
X178024257Y-80843279D01*
X178018974Y-80833997D01*
X178017919Y-80809846D01*
X178015834Y-80798843D01*
X178016137Y-80793203D01*
X178020500Y-80763260D01*
X178020500Y-80712058D01*
X178020679Y-80708729D01*
X178031244Y-80678795D01*
X178040185Y-80648347D01*
X178042787Y-80646092D01*
X178043934Y-80642843D01*
X178069011Y-80623368D01*
X178092989Y-80602592D01*
X178096397Y-80602101D01*
X178099118Y-80599989D01*
X178130728Y-80597165D01*
X178162147Y-80592648D01*
X178167959Y-80593840D01*
X178168711Y-80593773D01*
X178169406Y-80594136D01*
X178176576Y-80595607D01*
X178250817Y-80615500D01*
X178250820Y-80615500D01*
X178389181Y-80615500D01*
X178389183Y-80615500D01*
X178522836Y-80579688D01*
X178642665Y-80510505D01*
X178740505Y-80412665D01*
X178809688Y-80292836D01*
X178845500Y-80159183D01*
X178845500Y-80020817D01*
X178809688Y-79887164D01*
X178768595Y-79815989D01*
X178740507Y-79767338D01*
X178740503Y-79767333D01*
X178642666Y-79669496D01*
X178642661Y-79669492D01*
X178522838Y-79600313D01*
X178522837Y-79600312D01*
X178522836Y-79600312D01*
X178389183Y-79564500D01*
X178250817Y-79564500D01*
X178117164Y-79600312D01*
X178117161Y-79600313D01*
X177997338Y-79669492D01*
X177997333Y-79669496D01*
X177899496Y-79767333D01*
X177899492Y-79767338D01*
X177830313Y-79887161D01*
X177830312Y-79887164D01*
X177803401Y-79987595D01*
X177767038Y-80047254D01*
X177704191Y-80077783D01*
X177683628Y-80079500D01*
X176803865Y-80079500D01*
X176774424Y-80070855D01*
X176744438Y-80064332D01*
X176739422Y-80060577D01*
X176736826Y-80059815D01*
X176716184Y-80043181D01*
X176645819Y-79972816D01*
X176612334Y-79911493D01*
X176609500Y-79885135D01*
X176609500Y-79499693D01*
X176609500Y-79499691D01*
X176582922Y-79400500D01*
X176578799Y-79385113D01*
X176578799Y-79385112D01*
X176519492Y-79282389D01*
X176519488Y-79282384D01*
X176141616Y-78904513D01*
X176141614Y-78904511D01*
X176086487Y-78872683D01*
X176038888Y-78845201D01*
X176026780Y-78841957D01*
X176014673Y-78838713D01*
X176014670Y-78838712D01*
X175976478Y-78828478D01*
X175924309Y-78814500D01*
X174305691Y-78814500D01*
X174191114Y-78845201D01*
X174191113Y-78845201D01*
X174191111Y-78845202D01*
X174176937Y-78853386D01*
X174166279Y-78859540D01*
X174164725Y-78860437D01*
X174164722Y-78860438D01*
X174088392Y-78904506D01*
X174088384Y-78904512D01*
X173539513Y-79453383D01*
X173539509Y-79453389D01*
X173480201Y-79556112D01*
X173480200Y-79556117D01*
X173449500Y-79670691D01*
X173449500Y-82382804D01*
X173429815Y-82449843D01*
X173394391Y-82485906D01*
X173311375Y-82541375D01*
X173250485Y-82632505D01*
X173250483Y-82632509D01*
X173234500Y-82712862D01*
X173234500Y-83202989D01*
X173225855Y-83232428D01*
X173219333Y-83262414D01*
X173215577Y-83267430D01*
X173214815Y-83270028D01*
X173198182Y-83290669D01*
X173159672Y-83329180D01*
X173098350Y-83362666D01*
X173071990Y-83365500D01*
X172298885Y-83365500D01*
X172236884Y-83348887D01*
X172211468Y-83334213D01*
X172188931Y-83321201D01*
X172163922Y-83314500D01*
X172163919Y-83314499D01*
X172117163Y-83301971D01*
X172074353Y-83290500D01*
X171643191Y-83290500D01*
X171528614Y-83321201D01*
X171528611Y-83321202D01*
X171528610Y-83321203D01*
X171525685Y-83322892D01*
X171522425Y-83323765D01*
X171521108Y-83324311D01*
X171521036Y-83324137D01*
X171463694Y-83339500D01*
X171301601Y-83339500D01*
X171224881Y-83354760D01*
X171224879Y-83354761D01*
X171137888Y-83412888D01*
X171079760Y-83499883D01*
X171079758Y-83499887D01*
X171064500Y-83576594D01*
X171064500Y-83590500D01*
X171044815Y-83657539D01*
X170992011Y-83703294D01*
X170972478Y-83710306D01*
X170956762Y-83714500D01*
X170926600Y-83714501D01*
X170849883Y-83729760D01*
X170816816Y-83751853D01*
X170796978Y-83757149D01*
X170781748Y-83756771D01*
X170767212Y-83761323D01*
X170747531Y-83755923D01*
X170727129Y-83755418D01*
X170714521Y-83746867D01*
X170699832Y-83742837D01*
X170696111Y-83740446D01*
X170680117Y-83729759D01*
X170603403Y-83714500D01*
X170426601Y-83714500D01*
X170349880Y-83729760D01*
X170333889Y-83740446D01*
X170267212Y-83761323D01*
X170199832Y-83742837D01*
X170196111Y-83740446D01*
X170180117Y-83729759D01*
X170103403Y-83714500D01*
X169926601Y-83714500D01*
X169849880Y-83729760D01*
X169833889Y-83740446D01*
X169767212Y-83761323D01*
X169699832Y-83742837D01*
X169696111Y-83740446D01*
X169680117Y-83729759D01*
X169603403Y-83714500D01*
X169426601Y-83714500D01*
X169349881Y-83729760D01*
X169349879Y-83729761D01*
X169262888Y-83787888D01*
X169204760Y-83874883D01*
X169204758Y-83874887D01*
X169189500Y-83951594D01*
X169189500Y-84534166D01*
X169169815Y-84601205D01*
X169153181Y-84621847D01*
X168911847Y-84863181D01*
X168889708Y-84875269D01*
X168869820Y-84890790D01*
X168856701Y-84893292D01*
X168850524Y-84896666D01*
X168835490Y-84898982D01*
X168829841Y-84899500D01*
X168734108Y-84899500D01*
X168684295Y-84912847D01*
X168673752Y-84913814D01*
X168649440Y-84909033D01*
X168624670Y-84908444D01*
X168615756Y-84902410D01*
X168605195Y-84900334D01*
X168587326Y-84883167D01*
X168566808Y-84869280D01*
X168562571Y-84859386D01*
X168554809Y-84851929D01*
X168549057Y-84827825D01*
X168539305Y-84805051D01*
X168540300Y-84791130D01*
X168538591Y-84783967D01*
X168541382Y-84775997D01*
X168542652Y-84758245D01*
X168570960Y-84652599D01*
X168570960Y-84520815D01*
X168536852Y-84393521D01*
X168535840Y-84391769D01*
X168521352Y-84366675D01*
X168470960Y-84279393D01*
X168425819Y-84234252D01*
X168392334Y-84172929D01*
X168389500Y-84146571D01*
X168389500Y-83626035D01*
X168398144Y-83596594D01*
X168404668Y-83566608D01*
X168408422Y-83561592D01*
X168409185Y-83558996D01*
X168425819Y-83538354D01*
X168437355Y-83526818D01*
X168498678Y-83493333D01*
X168525036Y-83490499D01*
X169228398Y-83490499D01*
X169228400Y-83490499D01*
X169305117Y-83475240D01*
X169392112Y-83417112D01*
X169450240Y-83330117D01*
X169465500Y-83253401D01*
X169465499Y-83076600D01*
X169450240Y-82999883D01*
X169450239Y-82999881D01*
X169450238Y-82999879D01*
X169425417Y-82962732D01*
X169392112Y-82912888D01*
X169305117Y-82854760D01*
X169305115Y-82854759D01*
X169305112Y-82854758D01*
X169228404Y-82839500D01*
X168426602Y-82839500D01*
X168349881Y-82854760D01*
X168338596Y-82859435D01*
X168337801Y-82857517D01*
X168336574Y-82857901D01*
X168322607Y-82867524D01*
X168315978Y-82869500D01*
X168258214Y-82884978D01*
X168258213Y-82884978D01*
X168258211Y-82884979D01*
X168189691Y-82924540D01*
X168189688Y-82924542D01*
X167848541Y-83265689D01*
X167848535Y-83265697D01*
X167808982Y-83334206D01*
X167808979Y-83334211D01*
X167805690Y-83346487D01*
X167790957Y-83401473D01*
X167788500Y-83410641D01*
X167788500Y-84109490D01*
X167768815Y-84176529D01*
X167752182Y-84197171D01*
X167669960Y-84279393D01*
X167604068Y-84393519D01*
X167574674Y-84503221D01*
X167569960Y-84520815D01*
X163015500Y-84520815D01*
X163015500Y-83839500D01*
X163035185Y-83772461D01*
X163087989Y-83726706D01*
X163139500Y-83715500D01*
X164021613Y-83715500D01*
X164021616Y-83715500D01*
X164092196Y-83709086D01*
X164254606Y-83658478D01*
X164400185Y-83570472D01*
X164520472Y-83450185D01*
X164608478Y-83304606D01*
X164659086Y-83142196D01*
X164665500Y-83071616D01*
X164665500Y-81958384D01*
X164659086Y-81887804D01*
X164608478Y-81725394D01*
X164520472Y-81579815D01*
X164520470Y-81579813D01*
X164520469Y-81579811D01*
X164400189Y-81459531D01*
X164400186Y-81459529D01*
X164400185Y-81459528D01*
X164254606Y-81371522D01*
X164092196Y-81320914D01*
X164092194Y-81320913D01*
X164092192Y-81320913D01*
X164042778Y-81316423D01*
X164021616Y-81314500D01*
X161108384Y-81314500D01*
X161089145Y-81316248D01*
X161037807Y-81320913D01*
X160875393Y-81371522D01*
X160807213Y-81412739D01*
X160729815Y-81459528D01*
X160729814Y-81459529D01*
X160729810Y-81459531D01*
X160609530Y-81579811D01*
X160521522Y-81725393D01*
X160470913Y-81887807D01*
X160464500Y-81958386D01*
X160464500Y-82090500D01*
X160444815Y-82157539D01*
X160392011Y-82203294D01*
X160340500Y-82214500D01*
X159873676Y-82214500D01*
X159806637Y-82194815D01*
X159785995Y-82178181D01*
X159722316Y-82114502D01*
X159722314Y-82114500D01*
X159656671Y-82076601D01*
X159608187Y-82048608D01*
X159536224Y-82029326D01*
X159480892Y-82014500D01*
X159349108Y-82014500D01*
X159221812Y-82048608D01*
X159107686Y-82114500D01*
X159107683Y-82114502D01*
X159014502Y-82207683D01*
X159014500Y-82207686D01*
X158948608Y-82321812D01*
X158914500Y-82449108D01*
X157175863Y-82449108D01*
X157271671Y-82353300D01*
X158605156Y-81019815D01*
X159940460Y-79684511D01*
X159980022Y-79615988D01*
X160000500Y-79539562D01*
X160000500Y-79460438D01*
X160000500Y-79451656D01*
X160020185Y-79384617D01*
X160058701Y-79346554D01*
X160075735Y-79335889D01*
X160083126Y-79334719D01*
X160203220Y-79273528D01*
X160249881Y-79226866D01*
X160261811Y-79219398D01*
X160282442Y-79213604D01*
X160301251Y-79203334D01*
X160327610Y-79200500D01*
X160519503Y-79200500D01*
X160586542Y-79220185D01*
X160620423Y-79252450D01*
X160623305Y-79256487D01*
X160706014Y-79339196D01*
X160706015Y-79339196D01*
X160706017Y-79339198D01*
X160811107Y-79390573D01*
X160845173Y-79395536D01*
X160879239Y-79400500D01*
X160879240Y-79400500D01*
X161970761Y-79400500D01*
X161993471Y-79397191D01*
X162038893Y-79390573D01*
X162143983Y-79339198D01*
X162226698Y-79256483D01*
X162278073Y-79151393D01*
X162288000Y-79083260D01*
X162288000Y-78874832D01*
X162307685Y-78807793D01*
X162360489Y-78762038D01*
X162429647Y-78752094D01*
X162493203Y-78781119D01*
X162499681Y-78787151D01*
X162817603Y-79105073D01*
X162840859Y-79143640D01*
X162842698Y-79142742D01*
X162846926Y-79151392D01*
X162846927Y-79151393D01*
X162860042Y-79178220D01*
X162898303Y-79256485D01*
X162981014Y-79339196D01*
X162981015Y-79339196D01*
X162981017Y-79339198D01*
X163086107Y-79390573D01*
X163120173Y-79395536D01*
X163154239Y-79400500D01*
X163154240Y-79400500D01*
X164245761Y-79400500D01*
X164268471Y-79397191D01*
X164313893Y-79390573D01*
X164418983Y-79339198D01*
X164501698Y-79256483D01*
X164501700Y-79256477D01*
X164504577Y-79252450D01*
X164559551Y-79209326D01*
X164605497Y-79200500D01*
X164872390Y-79200500D01*
X164938189Y-79219398D01*
X164950118Y-79226866D01*
X164996780Y-79273528D01*
X165116874Y-79334719D01*
X165124264Y-79335889D01*
X165141299Y-79346554D01*
X165154754Y-79361715D01*
X165171486Y-79373154D01*
X165177471Y-79387313D01*
X165187676Y-79398812D01*
X165190798Y-79418840D01*
X165198690Y-79437510D01*
X165199500Y-79451656D01*
X165199500Y-79739562D01*
X165206942Y-79767335D01*
X165219979Y-79815991D01*
X165219980Y-79815992D01*
X165241851Y-79853873D01*
X165241851Y-79853874D01*
X165259535Y-79884504D01*
X165259541Y-79884512D01*
X166463181Y-81088152D01*
X166496666Y-81149475D01*
X166499500Y-81175833D01*
X166499500Y-81265892D01*
X166512524Y-81314500D01*
X166533608Y-81393187D01*
X166560624Y-81439979D01*
X166599500Y-81507314D01*
X166692686Y-81600500D01*
X166806814Y-81666392D01*
X166934108Y-81700500D01*
X166934110Y-81700500D01*
X167065891Y-81700500D01*
X167065892Y-81700500D01*
X167065892Y-81700499D01*
X167073949Y-81699439D01*
X167074360Y-81702561D01*
X167129343Y-81703845D01*
X167179322Y-81734293D01*
X167794540Y-82349511D01*
X167850489Y-82405460D01*
X167850491Y-82405461D01*
X167850495Y-82405464D01*
X167896965Y-82432293D01*
X167919011Y-82445021D01*
X167995438Y-82465500D01*
X168074562Y-82465500D01*
X168301703Y-82465500D01*
X168323185Y-82469773D01*
X168332810Y-82469465D01*
X168338376Y-82472795D01*
X168349158Y-82474940D01*
X168349885Y-82475241D01*
X168403504Y-82485906D01*
X168426599Y-82490500D01*
X169228400Y-82490499D01*
X169305117Y-82475240D01*
X169392112Y-82417112D01*
X169450240Y-82330117D01*
X169465500Y-82253401D01*
X169465499Y-82076600D01*
X169450240Y-81999883D01*
X169450239Y-81999881D01*
X169450238Y-81999879D01*
X169402707Y-81928745D01*
X169392112Y-81912888D01*
X169305117Y-81854760D01*
X169305115Y-81854759D01*
X169305112Y-81854758D01*
X169228404Y-81839500D01*
X168426602Y-81839500D01*
X168369321Y-81850893D01*
X168349883Y-81854760D01*
X168349882Y-81854760D01*
X168349879Y-81854761D01*
X168349151Y-81855063D01*
X168340976Y-81856688D01*
X168336638Y-81859477D01*
X168301703Y-81864500D01*
X168210833Y-81864500D01*
X168143794Y-81844815D01*
X168123152Y-81828181D01*
X167536819Y-81241848D01*
X167503334Y-81180525D01*
X167500500Y-81154167D01*
X167500500Y-81134110D01*
X167500500Y-81134108D01*
X167466392Y-81006814D01*
X167464167Y-81002961D01*
X167445244Y-80970185D01*
X167400500Y-80892686D01*
X167307314Y-80799500D01*
X167239745Y-80760489D01*
X167193187Y-80733608D01*
X167100335Y-80708729D01*
X167065892Y-80699500D01*
X166975833Y-80699500D01*
X166908794Y-80679815D01*
X166888152Y-80663181D01*
X165836819Y-79611848D01*
X165822115Y-79584920D01*
X165805523Y-79559102D01*
X165804631Y-79552901D01*
X165803334Y-79550525D01*
X165800500Y-79524167D01*
X165800500Y-79451656D01*
X165820185Y-79384617D01*
X165872989Y-79338862D01*
X165881481Y-79335556D01*
X165883122Y-79334719D01*
X165883126Y-79334719D01*
X166003220Y-79273528D01*
X166098528Y-79178220D01*
X166159719Y-79058126D01*
X166162629Y-79039752D01*
X166175500Y-78958493D01*
X166175500Y-78441506D01*
X166159720Y-78341878D01*
X166159719Y-78341876D01*
X166159719Y-78341874D01*
X166098528Y-78221780D01*
X166098526Y-78221778D01*
X166098523Y-78221774D01*
X166003225Y-78126476D01*
X166003221Y-78126473D01*
X166003220Y-78126472D01*
X165883126Y-78065281D01*
X165883124Y-78065280D01*
X165883121Y-78065279D01*
X165783493Y-78049500D01*
X165783488Y-78049500D01*
X165216512Y-78049500D01*
X165216507Y-78049500D01*
X165116878Y-78065279D01*
X165116874Y-78065280D01*
X165116874Y-78065281D01*
X165048240Y-78100252D01*
X164996778Y-78126473D01*
X164996774Y-78126476D01*
X164901476Y-78221774D01*
X164901473Y-78221778D01*
X164840279Y-78341878D01*
X164824500Y-78441506D01*
X164824500Y-78475500D01*
X164821949Y-78484185D01*
X164823238Y-78493147D01*
X164812259Y-78517187D01*
X164804815Y-78542539D01*
X164797974Y-78548466D01*
X164794213Y-78556703D01*
X164771978Y-78570992D01*
X164752011Y-78588294D01*
X164741496Y-78590581D01*
X164735435Y-78594477D01*
X164700500Y-78599500D01*
X164605497Y-78599500D01*
X164538458Y-78579815D01*
X164504577Y-78547550D01*
X164501694Y-78543512D01*
X164418985Y-78460803D01*
X164313891Y-78409426D01*
X164245761Y-78399500D01*
X164245760Y-78399500D01*
X163154240Y-78399500D01*
X163154239Y-78399500D01*
X163086108Y-78409426D01*
X163076905Y-78412270D01*
X163076268Y-78410208D01*
X163065542Y-78412038D01*
X163043322Y-78420326D01*
X163031733Y-78417804D01*
X163020043Y-78419799D01*
X162998222Y-78410515D01*
X162975049Y-78405474D01*
X162960137Y-78394311D01*
X162955751Y-78392445D01*
X162946795Y-78384323D01*
X162936819Y-78374347D01*
X162903334Y-78313024D01*
X162900500Y-78286666D01*
X162900500Y-77598479D01*
X162920185Y-77531440D01*
X162972989Y-77485685D01*
X163042147Y-77475741D01*
X163078962Y-77487080D01*
X163086107Y-77490573D01*
X163120173Y-77495536D01*
X163154239Y-77500500D01*
X163154240Y-77500500D01*
X164245761Y-77500500D01*
X164268471Y-77497191D01*
X164313893Y-77490573D01*
X164418983Y-77439198D01*
X164501698Y-77356483D01*
X164553073Y-77251393D01*
X164563000Y-77183260D01*
X164563000Y-76816740D01*
X164553073Y-76748607D01*
X164501698Y-76643517D01*
X164501696Y-76643515D01*
X164501696Y-76643514D01*
X164418985Y-76560803D01*
X164313891Y-76509426D01*
X164245761Y-76499500D01*
X164245760Y-76499500D01*
X163154240Y-76499500D01*
X163154239Y-76499500D01*
X163086108Y-76509426D01*
X162981014Y-76560803D01*
X162898304Y-76643514D01*
X162898303Y-76643514D01*
X162868464Y-76704550D01*
X162821335Y-76756132D01*
X162819068Y-76757473D01*
X162815493Y-76759537D01*
X162815487Y-76759541D01*
X162499681Y-77075348D01*
X162438358Y-77108833D01*
X162368666Y-77103849D01*
X162312733Y-77061977D01*
X162288316Y-76996513D01*
X162288000Y-76987667D01*
X162288000Y-76816739D01*
X162279666Y-76759540D01*
X162278073Y-76748607D01*
X162226698Y-76643517D01*
X162226696Y-76643515D01*
X162226696Y-76643514D01*
X162143985Y-76560803D01*
X162038891Y-76509426D01*
X161970761Y-76499500D01*
X161970760Y-76499500D01*
X160879240Y-76499500D01*
X160879239Y-76499500D01*
X160811108Y-76509426D01*
X160706014Y-76560803D01*
X160623303Y-76643514D01*
X160571926Y-76748608D01*
X160562000Y-76816739D01*
X160562000Y-77183260D01*
X160571926Y-77251391D01*
X160623303Y-77356485D01*
X160706014Y-77439196D01*
X160706015Y-77439196D01*
X160706017Y-77439198D01*
X160811107Y-77490573D01*
X160845173Y-77495536D01*
X160879239Y-77500500D01*
X160879240Y-77500500D01*
X161970761Y-77500500D01*
X162004826Y-77495536D01*
X162038893Y-77490573D01*
X162121040Y-77450413D01*
X162189912Y-77438654D01*
X162254209Y-77465997D01*
X162293517Y-77523761D01*
X162299500Y-77561814D01*
X162299500Y-78338185D01*
X162279815Y-78405224D01*
X162227011Y-78450979D01*
X162157853Y-78460923D01*
X162121040Y-78449586D01*
X162070128Y-78424697D01*
X162056029Y-78417804D01*
X162038891Y-78409426D01*
X161970761Y-78399500D01*
X161970760Y-78399500D01*
X160879240Y-78399500D01*
X160879239Y-78399500D01*
X160811108Y-78409426D01*
X160706014Y-78460803D01*
X160623305Y-78543512D01*
X160620423Y-78547550D01*
X160615706Y-78551249D01*
X160613216Y-78556703D01*
X160588534Y-78572564D01*
X160565449Y-78590674D01*
X160558184Y-78592069D01*
X160554438Y-78594477D01*
X160519503Y-78599500D01*
X160499500Y-78599500D01*
X160432461Y-78579815D01*
X160386706Y-78527011D01*
X160375500Y-78475500D01*
X160375500Y-78441506D01*
X160359720Y-78341878D01*
X160359719Y-78341876D01*
X160359719Y-78341874D01*
X160298528Y-78221780D01*
X160298526Y-78221778D01*
X160298523Y-78221774D01*
X160203225Y-78126476D01*
X160203221Y-78126473D01*
X160203220Y-78126472D01*
X160083126Y-78065281D01*
X160083124Y-78065280D01*
X160083121Y-78065279D01*
X159983493Y-78049500D01*
X159983488Y-78049500D01*
X159416512Y-78049500D01*
X159416507Y-78049500D01*
X159316878Y-78065279D01*
X159316874Y-78065280D01*
X159316874Y-78065281D01*
X159248240Y-78100252D01*
X159196778Y-78126473D01*
X159196774Y-78126476D01*
X159101476Y-78221774D01*
X159101473Y-78221778D01*
X159040279Y-78341878D01*
X159024500Y-78441506D01*
X159024500Y-78958493D01*
X159040279Y-79058121D01*
X159040280Y-79058124D01*
X159040281Y-79058126D01*
X159101472Y-79178220D01*
X159101473Y-79178221D01*
X159101476Y-79178225D01*
X159196774Y-79273523D01*
X159196776Y-79273524D01*
X159196780Y-79273528D01*
X159246576Y-79298900D01*
X159297372Y-79346875D01*
X159314167Y-79414696D01*
X159291629Y-79480831D01*
X159277962Y-79497066D01*
X156440489Y-82334540D01*
X156384541Y-82390487D01*
X156384535Y-82390495D01*
X156344982Y-82459004D01*
X156344979Y-82459009D01*
X156324500Y-82535439D01*
X156324500Y-83234932D01*
X156304815Y-83301971D01*
X156256796Y-83345415D01*
X156146780Y-83401472D01*
X156146779Y-83401473D01*
X156146774Y-83401476D01*
X156051476Y-83496774D01*
X156051471Y-83496781D01*
X156035088Y-83528935D01*
X155987114Y-83579730D01*
X155919293Y-83596525D01*
X155862604Y-83580026D01*
X155808188Y-83548609D01*
X155808187Y-83548608D01*
X155808186Y-83548608D01*
X155680892Y-83514500D01*
X155549108Y-83514500D01*
X155421812Y-83548608D01*
X155307686Y-83614500D01*
X155307683Y-83614502D01*
X155244005Y-83678181D01*
X155217077Y-83692884D01*
X155191259Y-83709477D01*
X155185058Y-83710368D01*
X155182682Y-83711666D01*
X155156324Y-83714500D01*
X154964500Y-83714500D01*
X154897461Y-83694815D01*
X154851706Y-83642011D01*
X154840500Y-83590500D01*
X154840500Y-83540323D01*
X154840499Y-83540321D01*
X154825968Y-83467267D01*
X154825966Y-83467264D01*
X154825966Y-83467260D01*
X154825963Y-83467256D01*
X154823977Y-83462461D01*
X154816504Y-83392992D01*
X154823977Y-83367539D01*
X154825962Y-83362745D01*
X154825966Y-83362740D01*
X154827554Y-83354760D01*
X154840302Y-83290669D01*
X154840500Y-83289674D01*
X154840500Y-83140326D01*
X154840500Y-83140323D01*
X154840499Y-83140321D01*
X154825968Y-83067267D01*
X154825966Y-83067264D01*
X154825966Y-83067260D01*
X154825963Y-83067256D01*
X154823977Y-83062461D01*
X154816504Y-82992992D01*
X154823977Y-82967539D01*
X154825962Y-82962745D01*
X154825966Y-82962740D01*
X154826986Y-82957615D01*
X154840499Y-82889678D01*
X154840500Y-82889676D01*
X154840500Y-82740323D01*
X154840499Y-82740321D01*
X154825968Y-82667267D01*
X154825966Y-82667264D01*
X154825966Y-82667260D01*
X154825963Y-82667256D01*
X154823977Y-82662461D01*
X154816504Y-82592992D01*
X154823977Y-82567539D01*
X154825962Y-82562745D01*
X154825966Y-82562740D01*
X154827407Y-82555500D01*
X154836719Y-82508680D01*
X154840500Y-82489674D01*
X154840500Y-82340326D01*
X154840500Y-82340323D01*
X154840499Y-82340321D01*
X154825967Y-82267264D01*
X154825966Y-82267260D01*
X154818990Y-82256819D01*
X154770601Y-82184399D01*
X154715235Y-82147405D01*
X154687739Y-82129033D01*
X154687735Y-82129032D01*
X154614677Y-82114500D01*
X154614674Y-82114500D01*
X154198029Y-82114500D01*
X154130990Y-82094815D01*
X154085235Y-82042011D01*
X154075291Y-81972853D01*
X154094927Y-81921610D01*
X154150964Y-81837743D01*
X154150964Y-81837742D01*
X154150966Y-81837740D01*
X154165500Y-81764674D01*
X154165500Y-81265326D01*
X154165500Y-81265323D01*
X154165499Y-81265321D01*
X154150967Y-81192264D01*
X154150966Y-81192260D01*
X154139990Y-81175833D01*
X154095601Y-81109399D01*
X154035351Y-81069142D01*
X154012739Y-81054033D01*
X154012735Y-81054032D01*
X153939677Y-81039500D01*
X153939674Y-81039500D01*
X153790326Y-81039500D01*
X153790323Y-81039500D01*
X153717264Y-81054032D01*
X153717260Y-81054033D01*
X153653195Y-81096840D01*
X153634399Y-81109399D01*
X153594035Y-81169810D01*
X153572249Y-81202415D01*
X153571016Y-81201591D01*
X153535719Y-81245391D01*
X153469424Y-81267455D01*
X153401725Y-81250175D01*
X153354115Y-81199037D01*
X153351137Y-81192516D01*
X153339990Y-81175833D01*
X153295601Y-81109399D01*
X153235351Y-81069142D01*
X153212739Y-81054033D01*
X153212735Y-81054032D01*
X153139677Y-81039500D01*
X153139674Y-81039500D01*
X153089500Y-81039500D01*
X153022461Y-81019815D01*
X152976706Y-80967011D01*
X152965500Y-80915500D01*
X152965500Y-79640833D01*
X152974151Y-79611370D01*
X152980690Y-79581365D01*
X152984426Y-79576378D01*
X152985185Y-79573794D01*
X153001852Y-79553119D01*
X153003186Y-79551786D01*
X153064521Y-79518324D01*
X153090834Y-79515500D01*
X153180890Y-79515500D01*
X153180892Y-79515500D01*
X153308186Y-79481392D01*
X153422314Y-79415500D01*
X153515500Y-79322314D01*
X153581392Y-79208186D01*
X153615500Y-79080892D01*
X153615500Y-78949108D01*
X153581392Y-78821814D01*
X153515500Y-78707686D01*
X153422314Y-78614500D01*
X153346956Y-78570992D01*
X153308187Y-78548608D01*
X153227584Y-78527011D01*
X153180892Y-78514500D01*
X153049108Y-78514500D01*
X152921812Y-78548608D01*
X152807686Y-78614500D01*
X152807683Y-78614502D01*
X152714502Y-78707683D01*
X152714500Y-78707686D01*
X152648608Y-78821812D01*
X152614500Y-78949108D01*
X152614500Y-79039165D01*
X152605855Y-79068605D01*
X152599332Y-79098592D01*
X152595577Y-79103607D01*
X152594815Y-79106204D01*
X152578181Y-79126846D01*
X152577680Y-79127347D01*
X152516357Y-79160832D01*
X152446665Y-79155848D01*
X152402318Y-79127347D01*
X152401819Y-79126848D01*
X152397596Y-79119114D01*
X152390732Y-79113976D01*
X152381985Y-79090525D01*
X152368334Y-79065525D01*
X152366581Y-79049226D01*
X152366315Y-79048512D01*
X152366441Y-79047928D01*
X152365500Y-79039167D01*
X152365500Y-78949110D01*
X152365500Y-78949108D01*
X152331392Y-78821814D01*
X152265500Y-78707686D01*
X152172314Y-78614500D01*
X152096956Y-78570992D01*
X152058187Y-78548608D01*
X151977584Y-78527011D01*
X151930892Y-78514500D01*
X151799108Y-78514500D01*
X151671812Y-78548608D01*
X151557686Y-78614500D01*
X151557683Y-78614502D01*
X151464502Y-78707683D01*
X151464500Y-78707686D01*
X151398608Y-78821812D01*
X151376449Y-78904512D01*
X151364500Y-78949108D01*
X151364500Y-79080892D01*
X151381313Y-79143640D01*
X151398608Y-79208187D01*
X151426495Y-79256487D01*
X151464500Y-79322314D01*
X151557686Y-79415500D01*
X151671814Y-79481392D01*
X151799108Y-79515500D01*
X151799110Y-79515500D01*
X151840500Y-79515500D01*
X151907539Y-79535185D01*
X151953294Y-79587989D01*
X151964500Y-79639500D01*
X151964500Y-80890167D01*
X151944815Y-80957206D01*
X151892011Y-81002961D01*
X151822853Y-81012905D01*
X151759297Y-80983880D01*
X151752819Y-80977848D01*
X151434510Y-80659539D01*
X151411218Y-80646092D01*
X151401103Y-80640252D01*
X151395205Y-80636847D01*
X151365991Y-80619980D01*
X151365990Y-80619979D01*
X151340513Y-80613152D01*
X151289562Y-80599500D01*
X151289560Y-80599500D01*
X148788681Y-80599500D01*
X148721642Y-80579815D01*
X148675887Y-80527011D01*
X148665943Y-80457853D01*
X148694968Y-80394297D01*
X148701000Y-80387819D01*
X148726293Y-80362526D01*
X148765505Y-80323314D01*
X148831397Y-80209186D01*
X148865505Y-80081892D01*
X148865505Y-79950108D01*
X148831397Y-79822814D01*
X148765505Y-79708686D01*
X148672319Y-79615500D01*
X148604558Y-79576378D01*
X148558192Y-79549608D01*
X148441436Y-79518324D01*
X148430897Y-79515500D01*
X148341833Y-79515500D01*
X148274794Y-79495815D01*
X148254152Y-79479181D01*
X147634513Y-78859542D01*
X147634511Y-78859540D01*
X147623852Y-78853386D01*
X147606176Y-78843181D01*
X147565991Y-78819980D01*
X147565990Y-78819979D01*
X147540513Y-78813152D01*
X147489562Y-78799500D01*
X147489560Y-78799500D01*
X143341544Y-78799500D01*
X143274505Y-78779815D01*
X143253863Y-78763181D01*
X143231485Y-78740803D01*
X143126391Y-78689426D01*
X143058261Y-78679500D01*
X143058260Y-78679500D01*
X142624500Y-78679500D01*
X142557461Y-78659815D01*
X142511706Y-78607011D01*
X142500500Y-78555500D01*
X142500500Y-77760439D01*
X142493280Y-77733493D01*
X142480021Y-77684011D01*
X142480017Y-77684004D01*
X142440464Y-77615495D01*
X142440458Y-77615487D01*
X142084512Y-77259541D01*
X142084507Y-77259537D01*
X142051462Y-77240459D01*
X142051462Y-77240458D01*
X142051460Y-77240458D01*
X142039083Y-77233312D01*
X142015990Y-77219979D01*
X142015991Y-77219979D01*
X141977775Y-77209739D01*
X141939562Y-77199500D01*
X141939560Y-77199500D01*
X141665068Y-77199500D01*
X141598029Y-77179815D01*
X141554583Y-77131795D01*
X141498528Y-77021780D01*
X141498524Y-77021776D01*
X141498523Y-77021774D01*
X141403225Y-76926476D01*
X141403221Y-76926473D01*
X141403220Y-76926472D01*
X141283126Y-76865281D01*
X141283124Y-76865280D01*
X141283121Y-76865279D01*
X141183493Y-76849500D01*
X141183488Y-76849500D01*
X140616512Y-76849500D01*
X140616507Y-76849500D01*
X140516878Y-76865279D01*
X140396778Y-76926473D01*
X140396774Y-76926476D01*
X140301476Y-77021774D01*
X140301473Y-77021778D01*
X140240279Y-77141878D01*
X140224500Y-77241506D01*
X140224500Y-77758493D01*
X140240279Y-77858121D01*
X140240280Y-77858124D01*
X140240281Y-77858126D01*
X140300060Y-77975448D01*
X140301473Y-77978221D01*
X140301476Y-77978225D01*
X140396774Y-78073523D01*
X140396778Y-78073526D01*
X140396780Y-78073528D01*
X140516874Y-78134719D01*
X140516876Y-78134719D01*
X140516878Y-78134720D01*
X140616507Y-78150500D01*
X140616512Y-78150500D01*
X141183493Y-78150500D01*
X141283121Y-78134720D01*
X141283121Y-78134719D01*
X141283126Y-78134719D01*
X141403220Y-78073528D01*
X141498528Y-77978220D01*
X141554584Y-77868203D01*
X141565032Y-77857140D01*
X141571355Y-77843297D01*
X141588535Y-77832255D01*
X141602558Y-77817409D01*
X141618237Y-77813167D01*
X141630133Y-77805523D01*
X141665068Y-77800500D01*
X141724167Y-77800500D01*
X141791206Y-77820185D01*
X141811848Y-77836819D01*
X141863181Y-77888152D01*
X141896666Y-77949475D01*
X141899500Y-77975833D01*
X141899500Y-78555500D01*
X141879815Y-78622539D01*
X141827011Y-78668294D01*
X141775500Y-78679500D01*
X141341739Y-78679500D01*
X141273608Y-78689426D01*
X141168514Y-78740803D01*
X141085803Y-78823514D01*
X141034426Y-78928608D01*
X141024500Y-78996739D01*
X141024500Y-79363260D01*
X141034426Y-79431391D01*
X141085803Y-79536485D01*
X141168514Y-79619196D01*
X141168515Y-79619196D01*
X141168517Y-79619198D01*
X141273607Y-79670573D01*
X141307673Y-79675536D01*
X141341739Y-79680500D01*
X141341740Y-79680500D01*
X143058261Y-79680500D01*
X143080971Y-79677191D01*
X143126393Y-79670573D01*
X143231483Y-79619198D01*
X143314198Y-79536483D01*
X143331943Y-79500185D01*
X143346681Y-79470039D01*
X143393809Y-79418457D01*
X143458081Y-79400500D01*
X147274167Y-79400500D01*
X147341206Y-79420185D01*
X147361848Y-79436819D01*
X147828186Y-79903157D01*
X147861671Y-79964480D01*
X147864505Y-79990838D01*
X147864505Y-80081892D01*
X147866524Y-80089427D01*
X147898613Y-80209187D01*
X147931559Y-80266250D01*
X147964505Y-80323314D01*
X147964507Y-80323316D01*
X148029010Y-80387819D01*
X148062495Y-80449142D01*
X148057511Y-80518834D01*
X148015639Y-80574767D01*
X147950175Y-80599184D01*
X147941329Y-80599500D01*
X143499500Y-80599500D01*
X143432461Y-80579815D01*
X143386706Y-80527011D01*
X143375500Y-80475500D01*
X143375500Y-80266739D01*
X143367166Y-80209540D01*
X143365573Y-80198607D01*
X143314198Y-80093517D01*
X143314196Y-80093515D01*
X143314196Y-80093514D01*
X143231485Y-80010803D01*
X143219604Y-80004995D01*
X143126393Y-79959427D01*
X143126391Y-79959426D01*
X143058261Y-79949500D01*
X143058260Y-79949500D01*
X141341740Y-79949500D01*
X141341739Y-79949500D01*
X141273608Y-79959426D01*
X141168514Y-80010803D01*
X141085803Y-80093514D01*
X141034426Y-80198608D01*
X141024500Y-80266739D01*
X141024500Y-80633260D01*
X141034426Y-80701391D01*
X141085803Y-80806485D01*
X141168514Y-80889196D01*
X141168515Y-80889196D01*
X141168517Y-80889198D01*
X141273607Y-80940573D01*
X141307673Y-80945536D01*
X141341739Y-80950500D01*
X141341740Y-80950500D01*
X142224167Y-80950500D01*
X142253607Y-80959144D01*
X142283594Y-80965668D01*
X142288609Y-80969422D01*
X142291206Y-80970185D01*
X142311848Y-80986819D01*
X142332848Y-81007819D01*
X142366333Y-81069142D01*
X142361349Y-81138834D01*
X142319477Y-81194767D01*
X142254013Y-81219184D01*
X142245167Y-81219500D01*
X141341739Y-81219500D01*
X141273608Y-81229426D01*
X141168514Y-81280803D01*
X141085803Y-81363514D01*
X141034426Y-81468608D01*
X141024500Y-81536739D01*
X141024500Y-81903260D01*
X141034426Y-81971391D01*
X141085803Y-82076485D01*
X141168514Y-82159196D01*
X141168515Y-82159196D01*
X141168517Y-82159198D01*
X141273607Y-82210573D01*
X141300560Y-82214500D01*
X141341739Y-82220500D01*
X141341740Y-82220500D01*
X143058261Y-82220500D01*
X143080971Y-82217191D01*
X143126393Y-82210573D01*
X143231483Y-82159198D01*
X143314198Y-82076483D01*
X143314200Y-82076477D01*
X143317077Y-82072450D01*
X143372051Y-82029326D01*
X143417997Y-82020500D01*
X146242538Y-82020500D01*
X146309577Y-82040185D01*
X146355332Y-82092989D01*
X146361190Y-82113365D01*
X146362397Y-82113042D01*
X146364500Y-82120890D01*
X146364500Y-82120892D01*
X146382097Y-82186566D01*
X146398608Y-82248187D01*
X146419457Y-82284297D01*
X146464500Y-82362314D01*
X146557686Y-82455500D01*
X146561348Y-82457614D01*
X146562212Y-82458113D01*
X146610427Y-82508680D01*
X146623651Y-82577287D01*
X146597683Y-82642151D01*
X146540769Y-82682680D01*
X146500212Y-82689500D01*
X143417997Y-82689500D01*
X143350958Y-82669815D01*
X143317077Y-82637550D01*
X143314194Y-82633512D01*
X143231485Y-82550803D01*
X143126391Y-82499426D01*
X143058261Y-82489500D01*
X143058260Y-82489500D01*
X141341740Y-82489500D01*
X141341739Y-82489500D01*
X141273608Y-82499426D01*
X141168514Y-82550803D01*
X141085803Y-82633514D01*
X141034426Y-82738608D01*
X141024500Y-82806739D01*
X141024500Y-83173260D01*
X141034426Y-83241391D01*
X141085803Y-83346485D01*
X141168514Y-83429196D01*
X141168515Y-83429196D01*
X141168517Y-83429198D01*
X141273607Y-83480573D01*
X141307673Y-83485536D01*
X141341739Y-83490500D01*
X141341740Y-83490500D01*
X141604167Y-83490500D01*
X141633607Y-83499144D01*
X141663594Y-83505668D01*
X141668609Y-83509422D01*
X141671206Y-83510185D01*
X141691847Y-83526818D01*
X141712848Y-83547819D01*
X141746333Y-83609142D01*
X141741349Y-83678834D01*
X141699477Y-83734767D01*
X141634013Y-83759184D01*
X141625167Y-83759500D01*
X141341739Y-83759500D01*
X141273608Y-83769426D01*
X141168514Y-83820803D01*
X141085803Y-83903514D01*
X141034426Y-84008608D01*
X141024500Y-84076739D01*
X141024500Y-84443260D01*
X141034426Y-84511391D01*
X141085803Y-84616485D01*
X141168514Y-84699196D01*
X141168515Y-84699196D01*
X141168517Y-84699198D01*
X141273607Y-84750573D01*
X141307673Y-84755536D01*
X141341739Y-84760500D01*
X141341740Y-84760500D01*
X143058261Y-84760500D01*
X143080971Y-84757191D01*
X143126393Y-84750573D01*
X143231483Y-84699198D01*
X143314198Y-84616483D01*
X143314200Y-84616477D01*
X143317077Y-84612450D01*
X143372051Y-84569326D01*
X143417997Y-84560500D01*
X148994235Y-84560500D01*
X148994237Y-84560500D01*
X149070664Y-84540021D01*
X149139186Y-84500460D01*
X149195135Y-84444511D01*
X149330132Y-84309514D01*
X149369694Y-84240991D01*
X149390172Y-84164565D01*
X149390172Y-84158676D01*
X149409857Y-84091637D01*
X149426491Y-84070995D01*
X149457986Y-84039500D01*
X149490172Y-84007314D01*
X149556064Y-83893186D01*
X149590172Y-83765892D01*
X149590172Y-83634108D01*
X149556064Y-83506814D01*
X149553507Y-83502386D01*
X149546645Y-83490500D01*
X149490172Y-83392686D01*
X149396986Y-83299500D01*
X149342612Y-83268107D01*
X149294397Y-83217539D01*
X149281175Y-83148932D01*
X149307143Y-83084067D01*
X149316932Y-83073039D01*
X149753151Y-82636819D01*
X149814474Y-82603334D01*
X149840832Y-82600500D01*
X149930890Y-82600500D01*
X149930892Y-82600500D01*
X150058186Y-82566392D01*
X150172314Y-82500500D01*
X150265500Y-82407314D01*
X150331392Y-82293186D01*
X150365500Y-82165892D01*
X150365500Y-82034108D01*
X150331392Y-81906814D01*
X150265500Y-81792686D01*
X150172314Y-81699500D01*
X150107624Y-81662151D01*
X150058187Y-81633608D01*
X149975979Y-81611581D01*
X149930892Y-81599500D01*
X149799108Y-81599500D01*
X149671812Y-81633608D01*
X149557686Y-81699500D01*
X149557683Y-81699502D01*
X149464502Y-81792683D01*
X149464500Y-81792686D01*
X149398608Y-81906812D01*
X149364500Y-82034108D01*
X149364500Y-82124166D01*
X149344815Y-82191205D01*
X149328181Y-82211847D01*
X148886848Y-82653181D01*
X148825525Y-82686666D01*
X148799167Y-82689500D01*
X147229788Y-82689500D01*
X147162749Y-82669815D01*
X147116994Y-82617011D01*
X147107050Y-82547853D01*
X147136075Y-82484297D01*
X147167788Y-82458113D01*
X147168652Y-82457614D01*
X147172314Y-82455500D01*
X147265500Y-82362314D01*
X147331392Y-82248186D01*
X147365500Y-82120892D01*
X147365500Y-81989108D01*
X147331392Y-81861814D01*
X147328432Y-81856688D01*
X147321578Y-81844815D01*
X147265500Y-81747686D01*
X147172314Y-81654500D01*
X147111400Y-81619331D01*
X147058187Y-81588608D01*
X146975423Y-81566432D01*
X146930892Y-81554500D01*
X146840833Y-81554500D01*
X146818030Y-81547804D01*
X146794376Y-81545469D01*
X146781858Y-81537182D01*
X146773794Y-81534815D01*
X146763868Y-81527723D01*
X146758233Y-81523262D01*
X146714511Y-81479540D01*
X146679849Y-81459528D01*
X146645989Y-81439979D01*
X146643775Y-81439062D01*
X146642193Y-81437787D01*
X146638950Y-81435915D01*
X146639241Y-81435409D01*
X146589370Y-81395222D01*
X146567304Y-81328928D01*
X146584582Y-81261229D01*
X146635718Y-81213617D01*
X146691225Y-81200500D01*
X151074167Y-81200500D01*
X151141206Y-81220185D01*
X151161848Y-81236819D01*
X151427848Y-81502819D01*
X151461333Y-81564142D01*
X151456349Y-81633834D01*
X151414477Y-81689767D01*
X151349013Y-81714184D01*
X151340167Y-81714500D01*
X151115323Y-81714500D01*
X151042264Y-81729032D01*
X151042260Y-81729033D01*
X150959399Y-81784399D01*
X150904033Y-81867260D01*
X150904032Y-81867264D01*
X150889500Y-81940321D01*
X150889500Y-81940326D01*
X150889500Y-82089674D01*
X150889500Y-82089676D01*
X150889499Y-82089676D01*
X150904033Y-82162740D01*
X150906025Y-82167548D01*
X150913494Y-82237017D01*
X150906025Y-82262452D01*
X150904033Y-82267259D01*
X150889500Y-82340323D01*
X150889500Y-82340326D01*
X150889500Y-82489674D01*
X150889500Y-82489676D01*
X150889499Y-82489676D01*
X150904033Y-82562740D01*
X150906025Y-82567548D01*
X150913494Y-82637017D01*
X150906025Y-82662452D01*
X150904033Y-82667259D01*
X150889500Y-82740323D01*
X150889500Y-82740326D01*
X150889500Y-82889674D01*
X150889500Y-82889676D01*
X150889499Y-82889676D01*
X150904033Y-82962740D01*
X150906025Y-82967548D01*
X150913494Y-83037017D01*
X150906025Y-83062452D01*
X150904033Y-83067259D01*
X150889500Y-83140323D01*
X150889500Y-83140326D01*
X150889500Y-83289674D01*
X150889500Y-83289676D01*
X150889499Y-83289676D01*
X150904033Y-83362740D01*
X150906025Y-83367548D01*
X150913494Y-83437017D01*
X150906025Y-83462452D01*
X150904033Y-83467259D01*
X150889500Y-83540323D01*
X150889500Y-83540326D01*
X150889500Y-83689674D01*
X150889500Y-83689676D01*
X150889499Y-83689676D01*
X150904033Y-83762740D01*
X150906025Y-83767548D01*
X150913494Y-83837017D01*
X150906025Y-83862452D01*
X150904033Y-83867259D01*
X150889500Y-83940323D01*
X150889500Y-84089678D01*
X150904032Y-84162735D01*
X150904033Y-84162739D01*
X150915596Y-84180044D01*
X150959399Y-84245601D01*
X151033569Y-84295159D01*
X151042260Y-84300966D01*
X151042264Y-84300967D01*
X151115321Y-84315499D01*
X151115324Y-84315500D01*
X151115326Y-84315500D01*
X151440500Y-84315500D01*
X151507539Y-84335185D01*
X151553294Y-84387989D01*
X151564500Y-84439500D01*
X151564500Y-84764678D01*
X151579032Y-84837735D01*
X151579034Y-84837740D01*
X151632982Y-84918481D01*
X151653860Y-84985157D01*
X151635375Y-85052537D01*
X151591882Y-85094756D01*
X151557689Y-85114498D01*
X151557683Y-85114502D01*
X151464502Y-85207683D01*
X151464500Y-85207686D01*
X151398608Y-85321812D01*
X151382933Y-85380313D01*
X151364500Y-85449108D01*
X151364500Y-85580892D01*
X151379799Y-85637989D01*
X151398608Y-85708187D01*
X151401537Y-85713260D01*
X151464500Y-85822314D01*
X151464502Y-85822316D01*
X151528181Y-85885995D01*
X151561666Y-85947318D01*
X151564500Y-85973676D01*
X151564500Y-86485992D01*
X151544815Y-86553031D01*
X151492011Y-86598786D01*
X151459900Y-86608465D01*
X151416877Y-86615279D01*
X151296778Y-86676473D01*
X151296774Y-86676476D01*
X151201476Y-86771774D01*
X151201473Y-86771778D01*
X151140279Y-86891878D01*
X151124500Y-86991506D01*
X151124500Y-87508493D01*
X151140279Y-87608121D01*
X151140280Y-87608124D01*
X151140281Y-87608126D01*
X151198057Y-87721517D01*
X151201473Y-87728221D01*
X151201476Y-87728225D01*
X151296774Y-87823523D01*
X151296778Y-87823526D01*
X151296780Y-87823528D01*
X151416874Y-87884719D01*
X151416876Y-87884719D01*
X151416878Y-87884720D01*
X151516507Y-87900500D01*
X151516512Y-87900500D01*
X152083493Y-87900500D01*
X152183121Y-87884720D01*
X152183121Y-87884719D01*
X152183126Y-87884719D01*
X152303220Y-87823528D01*
X152398528Y-87728220D01*
X152459719Y-87608126D01*
X152462478Y-87590708D01*
X152475500Y-87508493D01*
X152475500Y-86991506D01*
X152459720Y-86891878D01*
X152459719Y-86891876D01*
X152459719Y-86891874D01*
X152398528Y-86771780D01*
X152398526Y-86771778D01*
X152398523Y-86771774D01*
X152303225Y-86676476D01*
X152303222Y-86676474D01*
X152303220Y-86676472D01*
X152233203Y-86640797D01*
X152182409Y-86592823D01*
X152165500Y-86530313D01*
X152165500Y-86249464D01*
X152185185Y-86182425D01*
X152237989Y-86136670D01*
X152307147Y-86126726D01*
X152370703Y-86155751D01*
X152408477Y-86214529D01*
X152409262Y-86217326D01*
X152424939Y-86275833D01*
X152433608Y-86308187D01*
X152466554Y-86365250D01*
X152499500Y-86422314D01*
X152592686Y-86515500D01*
X152675708Y-86563433D01*
X152703829Y-86579669D01*
X152706814Y-86581392D01*
X152834108Y-86615500D01*
X152834110Y-86615500D01*
X152965890Y-86615500D01*
X152965892Y-86615500D01*
X153093186Y-86581392D01*
X153207314Y-86515500D01*
X153300500Y-86422314D01*
X153366392Y-86308186D01*
X153398889Y-86186900D01*
X153402047Y-86181719D01*
X153402481Y-86175662D01*
X153420021Y-86152231D01*
X153435252Y-86127243D01*
X153440714Y-86124589D01*
X153444353Y-86119729D01*
X153471772Y-86109502D01*
X153498099Y-86096713D01*
X153504128Y-86097433D01*
X153509817Y-86095312D01*
X153538411Y-86101532D01*
X153567475Y-86105007D01*
X153573675Y-86109203D01*
X153578090Y-86110164D01*
X153606344Y-86131315D01*
X153663181Y-86188152D01*
X153696666Y-86249475D01*
X153699500Y-86275833D01*
X153699500Y-86498342D01*
X153679815Y-86565381D01*
X153627011Y-86611136D01*
X153618518Y-86614443D01*
X153568723Y-86639814D01*
X153496780Y-86676472D01*
X153496779Y-86676473D01*
X153496774Y-86676476D01*
X153401476Y-86771774D01*
X153401473Y-86771778D01*
X153340279Y-86891878D01*
X153324500Y-86991506D01*
X153324500Y-87508493D01*
X153340279Y-87608121D01*
X153340280Y-87608124D01*
X153340281Y-87608126D01*
X153398057Y-87721517D01*
X153401473Y-87728221D01*
X153401476Y-87728225D01*
X153496774Y-87823523D01*
X153496778Y-87823526D01*
X153496780Y-87823528D01*
X153616874Y-87884719D01*
X153616876Y-87884719D01*
X153616878Y-87884720D01*
X153716507Y-87900500D01*
X153716512Y-87900500D01*
X154283493Y-87900500D01*
X154383121Y-87884720D01*
X154383121Y-87884719D01*
X154383126Y-87884719D01*
X154503220Y-87823528D01*
X154598528Y-87728220D01*
X154659719Y-87608126D01*
X154662478Y-87590708D01*
X154675500Y-87508493D01*
X154675500Y-86991506D01*
X154659720Y-86891878D01*
X154659719Y-86891876D01*
X154659719Y-86891874D01*
X154598528Y-86771780D01*
X154598526Y-86771778D01*
X154598523Y-86771774D01*
X154503225Y-86676476D01*
X154503222Y-86676474D01*
X154503220Y-86676472D01*
X154383126Y-86615281D01*
X154383124Y-86615280D01*
X154374431Y-86610851D01*
X154375416Y-86608916D01*
X154328494Y-86576821D01*
X154301306Y-86512458D01*
X154300500Y-86498342D01*
X154300500Y-86060440D01*
X154300500Y-86060438D01*
X154280022Y-85984012D01*
X154240460Y-85915489D01*
X153401819Y-85076848D01*
X153368334Y-85015525D01*
X153365500Y-84989167D01*
X153365500Y-84926937D01*
X153385185Y-84859898D01*
X153437989Y-84814143D01*
X153507147Y-84804199D01*
X153570703Y-84833224D01*
X153592600Y-84858044D01*
X153634399Y-84920601D01*
X153711115Y-84971860D01*
X153717260Y-84975966D01*
X153717264Y-84975967D01*
X153790321Y-84990499D01*
X153790324Y-84990500D01*
X153790326Y-84990500D01*
X153864167Y-84990500D01*
X153931206Y-85010185D01*
X153951848Y-85026819D01*
X155063181Y-86138152D01*
X155096666Y-86199475D01*
X155099500Y-86225833D01*
X155099500Y-89203167D01*
X155079815Y-89270206D01*
X155063181Y-89290848D01*
X151237181Y-93116848D01*
X151175858Y-93150333D01*
X151106166Y-93145349D01*
X151050233Y-93103477D01*
X151025816Y-93038013D01*
X151025500Y-93029167D01*
X151025500Y-90855249D01*
X151025499Y-90855247D01*
X151013868Y-90796770D01*
X151013867Y-90796769D01*
X150969552Y-90730447D01*
X150903230Y-90686132D01*
X150903229Y-90686131D01*
X150844752Y-90674500D01*
X150844748Y-90674500D01*
X148862965Y-90674500D01*
X148795926Y-90654815D01*
X148775284Y-90638181D01*
X146076616Y-87939513D01*
X146076614Y-87939511D01*
X146009044Y-87900499D01*
X145973888Y-87880201D01*
X145961780Y-87876957D01*
X145949673Y-87873713D01*
X145949670Y-87873712D01*
X145911478Y-87863478D01*
X145859309Y-87849500D01*
X139540691Y-87849500D01*
X139450325Y-87873713D01*
X139450324Y-87873712D01*
X139426116Y-87880199D01*
X139426113Y-87880200D01*
X139323386Y-87939511D01*
X139323383Y-87939513D01*
X138423386Y-88839511D01*
X138250091Y-89012805D01*
X138188768Y-89046290D01*
X138119076Y-89041306D01*
X138063143Y-88999434D01*
X138055032Y-88987139D01*
X138000500Y-88892686D01*
X137907314Y-88799500D01*
X137850250Y-88766554D01*
X137793187Y-88733608D01*
X137729539Y-88716554D01*
X137665892Y-88699500D01*
X137534108Y-88699500D01*
X137406812Y-88733608D01*
X137292686Y-88799500D01*
X137292683Y-88799502D01*
X137199502Y-88892683D01*
X137199500Y-88892686D01*
X137133608Y-89006812D01*
X137099500Y-89134108D01*
X137099500Y-89265892D01*
X137102022Y-89275304D01*
X137133608Y-89393187D01*
X137148259Y-89418562D01*
X137199500Y-89507314D01*
X137292686Y-89600500D01*
X137406814Y-89666392D01*
X137406816Y-89666392D01*
X137414326Y-89669504D01*
X137413771Y-89670841D01*
X137419304Y-89674035D01*
X137432756Y-89676962D01*
X137461010Y-89698113D01*
X137548071Y-89785174D01*
X137581556Y-89846497D01*
X137576572Y-89916189D01*
X137552508Y-89953634D01*
X137552686Y-89953763D01*
X137550437Y-89956858D01*
X137548077Y-89960531D01*
X137546951Y-89961656D01*
X137489352Y-90074698D01*
X137474500Y-90168475D01*
X137474500Y-90631517D01*
X137485292Y-90699657D01*
X137489354Y-90725304D01*
X137546950Y-90838342D01*
X137546952Y-90838344D01*
X137546954Y-90838347D01*
X137636652Y-90928045D01*
X137636654Y-90928046D01*
X137636658Y-90928050D01*
X137749694Y-90985645D01*
X137749698Y-90985647D01*
X137843475Y-91000499D01*
X137843481Y-91000500D01*
X138456518Y-91000499D01*
X138550304Y-90985646D01*
X138663342Y-90928050D01*
X138663343Y-90928048D01*
X138667603Y-90925878D01*
X138736272Y-90912982D01*
X138801013Y-90939258D01*
X138811579Y-90948682D01*
X139788181Y-91925284D01*
X139821666Y-91986607D01*
X139824500Y-92012965D01*
X139824500Y-92258493D01*
X139840279Y-92358121D01*
X139840280Y-92358124D01*
X139840281Y-92358126D01*
X139901161Y-92477609D01*
X139901473Y-92478221D01*
X139901476Y-92478225D01*
X139996774Y-92573523D01*
X139996778Y-92573526D01*
X139996780Y-92573528D01*
X140116874Y-92634719D01*
X140116876Y-92634719D01*
X140116878Y-92634720D01*
X140216507Y-92650500D01*
X140216512Y-92650500D01*
X140783493Y-92650500D01*
X140883121Y-92634720D01*
X140883121Y-92634719D01*
X140883126Y-92634719D01*
X141003220Y-92573528D01*
X141098528Y-92478220D01*
X141159719Y-92358126D01*
X141161845Y-92344702D01*
X141175500Y-92258493D01*
X141175500Y-91741506D01*
X141159720Y-91641878D01*
X141159719Y-91641876D01*
X141159719Y-91641874D01*
X141098528Y-91521780D01*
X141098526Y-91521778D01*
X141098523Y-91521774D01*
X141003225Y-91426476D01*
X141003221Y-91426473D01*
X141003220Y-91426472D01*
X140976089Y-91412648D01*
X143064500Y-91412648D01*
X143064500Y-91617351D01*
X143096522Y-91819534D01*
X143159781Y-92014223D01*
X143209748Y-92112287D01*
X143251070Y-92193386D01*
X143252715Y-92196613D01*
X143373028Y-92362213D01*
X143517786Y-92506971D01*
X143651953Y-92604447D01*
X143683390Y-92627287D01*
X143799296Y-92686344D01*
X143865776Y-92720218D01*
X143865778Y-92720218D01*
X143865781Y-92720220D01*
X143911839Y-92735185D01*
X144060465Y-92783477D01*
X144155082Y-92798463D01*
X144262648Y-92815500D01*
X144262649Y-92815500D01*
X144467351Y-92815500D01*
X144467352Y-92815500D01*
X144669534Y-92783477D01*
X144864219Y-92720220D01*
X145046610Y-92627287D01*
X145173975Y-92534752D01*
X145212213Y-92506971D01*
X145212215Y-92506968D01*
X145212219Y-92506966D01*
X145356966Y-92362219D01*
X145356968Y-92362215D01*
X145356971Y-92362213D01*
X145425073Y-92268477D01*
X145477287Y-92196610D01*
X145570220Y-92014219D01*
X145633477Y-91819534D01*
X145665500Y-91617352D01*
X145665500Y-91412648D01*
X145658174Y-91366392D01*
X145633477Y-91210465D01*
X145604127Y-91120137D01*
X145570220Y-91015781D01*
X145570218Y-91015778D01*
X145570218Y-91015776D01*
X145536031Y-90948682D01*
X145477287Y-90833390D01*
X145454669Y-90802259D01*
X145356971Y-90667786D01*
X145212213Y-90523028D01*
X145046613Y-90402715D01*
X145046612Y-90402714D01*
X145046610Y-90402713D01*
X144977819Y-90367662D01*
X144864223Y-90309781D01*
X144669534Y-90246522D01*
X144494995Y-90218878D01*
X144467352Y-90214500D01*
X144262648Y-90214500D01*
X144238329Y-90218351D01*
X144060465Y-90246522D01*
X143865776Y-90309781D01*
X143683386Y-90402715D01*
X143517786Y-90523028D01*
X143373028Y-90667786D01*
X143252715Y-90833386D01*
X143159781Y-91015776D01*
X143096522Y-91210465D01*
X143064500Y-91412648D01*
X140976089Y-91412648D01*
X140883126Y-91365281D01*
X140883124Y-91365280D01*
X140883121Y-91365279D01*
X140783493Y-91349500D01*
X140783488Y-91349500D01*
X140537966Y-91349500D01*
X140470927Y-91329815D01*
X140450285Y-91313181D01*
X139176616Y-90039513D01*
X139176614Y-90039511D01*
X139111129Y-90001703D01*
X139073888Y-89980201D01*
X139063915Y-89977529D01*
X139049673Y-89973713D01*
X138959309Y-89949500D01*
X138877964Y-89949500D01*
X138869052Y-89948199D01*
X138845156Y-89937223D01*
X138819925Y-89929815D01*
X138813908Y-89922872D01*
X138805559Y-89919037D01*
X138791388Y-89896882D01*
X138774170Y-89877011D01*
X138772862Y-89867917D01*
X138767912Y-89860178D01*
X138767968Y-89833883D01*
X138764226Y-89807853D01*
X138768043Y-89799494D01*
X138768063Y-89790308D01*
X138782326Y-89768219D01*
X138793251Y-89744297D01*
X138799283Y-89737819D01*
X138862485Y-89674618D01*
X139060489Y-89476614D01*
X139750284Y-88786819D01*
X139811607Y-88753334D01*
X139837965Y-88750500D01*
X145562035Y-88750500D01*
X145629074Y-88770185D01*
X145649716Y-88786819D01*
X148338181Y-91475284D01*
X148371666Y-91536607D01*
X148374500Y-91562965D01*
X148374500Y-93144752D01*
X148386131Y-93203228D01*
X148386132Y-93203230D01*
X148386133Y-93203231D01*
X148388390Y-93206609D01*
X148409268Y-93273285D01*
X148390784Y-93340666D01*
X148338806Y-93387356D01*
X148285288Y-93399500D01*
X139152206Y-93399500D01*
X139085167Y-93379815D01*
X139039412Y-93327011D01*
X139029468Y-93257853D01*
X139058493Y-93194297D01*
X139090206Y-93168113D01*
X139162087Y-93126611D01*
X139207314Y-93100500D01*
X139300500Y-93007314D01*
X139366392Y-92893186D01*
X139400500Y-92765892D01*
X139400500Y-92634108D01*
X139366392Y-92506814D01*
X139300500Y-92392686D01*
X139207314Y-92299500D01*
X139093186Y-92233608D01*
X139093183Y-92233606D01*
X139085672Y-92230495D01*
X139086224Y-92229160D01*
X139038990Y-92201886D01*
X138861818Y-92024714D01*
X138828333Y-91963391D01*
X138825499Y-91937033D01*
X138825499Y-91818482D01*
X138822493Y-91799500D01*
X138810646Y-91724696D01*
X138753050Y-91611658D01*
X138753046Y-91611654D01*
X138753045Y-91611652D01*
X138663347Y-91521954D01*
X138663344Y-91521952D01*
X138663342Y-91521950D01*
X138586517Y-91482805D01*
X138550301Y-91464352D01*
X138456524Y-91449500D01*
X137843482Y-91449500D01*
X137762519Y-91462323D01*
X137749696Y-91464354D01*
X137636658Y-91521950D01*
X137636657Y-91521951D01*
X137636652Y-91521954D01*
X137546954Y-91611652D01*
X137546951Y-91611657D01*
X137546950Y-91611658D01*
X137529175Y-91646544D01*
X137489352Y-91724698D01*
X137474500Y-91818475D01*
X137474500Y-92281517D01*
X137484999Y-92347803D01*
X137489354Y-92375304D01*
X137546950Y-92488342D01*
X137546952Y-92488344D01*
X137546954Y-92488347D01*
X137636652Y-92578045D01*
X137636654Y-92578046D01*
X137636658Y-92578050D01*
X137747877Y-92634719D01*
X137749698Y-92635647D01*
X137843475Y-92650499D01*
X137843481Y-92650500D01*
X138162033Y-92650499D01*
X138191479Y-92659145D01*
X138221460Y-92665667D01*
X138226473Y-92669419D01*
X138229072Y-92670183D01*
X138249714Y-92686818D01*
X138401886Y-92838990D01*
X138429160Y-92886224D01*
X138430495Y-92885672D01*
X138433606Y-92893183D01*
X138437260Y-92899511D01*
X138499500Y-93007314D01*
X138592686Y-93100500D01*
X138592687Y-93100501D01*
X138592689Y-93100502D01*
X138709794Y-93168113D01*
X138758010Y-93218680D01*
X138771232Y-93287287D01*
X138745264Y-93352152D01*
X138688350Y-93392680D01*
X138647794Y-93399500D01*
X135352206Y-93399500D01*
X135285167Y-93379815D01*
X135239412Y-93327011D01*
X135229468Y-93257853D01*
X135258493Y-93194297D01*
X135290206Y-93168113D01*
X135362087Y-93126611D01*
X135407314Y-93100500D01*
X135500500Y-93007314D01*
X135566392Y-92893186D01*
X135566393Y-92893180D01*
X135569504Y-92885674D01*
X135570842Y-92886228D01*
X135574034Y-92880700D01*
X135576962Y-92867241D01*
X135598106Y-92838995D01*
X135750285Y-92686817D01*
X135811608Y-92653334D01*
X135837965Y-92650500D01*
X136083493Y-92650500D01*
X136183121Y-92634720D01*
X136183121Y-92634719D01*
X136183126Y-92634719D01*
X136303220Y-92573528D01*
X136398528Y-92478220D01*
X136459719Y-92358126D01*
X136461845Y-92344702D01*
X136475500Y-92258493D01*
X136475500Y-91741506D01*
X136459720Y-91641878D01*
X136459719Y-91641876D01*
X136459719Y-91641874D01*
X136398528Y-91521780D01*
X136398526Y-91521778D01*
X136398523Y-91521774D01*
X136303225Y-91426476D01*
X136303221Y-91426473D01*
X136303220Y-91426472D01*
X136183126Y-91365281D01*
X136183124Y-91365280D01*
X136183121Y-91365279D01*
X136083493Y-91349500D01*
X136083488Y-91349500D01*
X135516512Y-91349500D01*
X135516507Y-91349500D01*
X135416878Y-91365279D01*
X135296778Y-91426473D01*
X135296774Y-91426476D01*
X135201476Y-91521774D01*
X135201473Y-91521778D01*
X135140279Y-91641878D01*
X135124500Y-91741506D01*
X135124500Y-91987034D01*
X135115855Y-92016474D01*
X135109332Y-92046461D01*
X135105577Y-92051476D01*
X135104815Y-92054073D01*
X135088181Y-92074716D01*
X134961009Y-92201887D01*
X134913775Y-92229161D01*
X134914328Y-92230495D01*
X134906816Y-92233606D01*
X134792689Y-92299498D01*
X134792683Y-92299502D01*
X134699502Y-92392683D01*
X134699500Y-92392686D01*
X134633608Y-92506812D01*
X134601328Y-92627284D01*
X134599500Y-92634108D01*
X134599500Y-92765892D01*
X134610623Y-92807404D01*
X134633608Y-92893187D01*
X134666554Y-92950250D01*
X134699500Y-93007314D01*
X134792686Y-93100500D01*
X134792687Y-93100501D01*
X134792689Y-93100502D01*
X134909794Y-93168113D01*
X134958010Y-93218680D01*
X134971232Y-93287287D01*
X134945264Y-93352152D01*
X134888350Y-93392680D01*
X134847794Y-93399500D01*
X119810833Y-93399500D01*
X119743794Y-93379815D01*
X119723152Y-93363181D01*
X119271458Y-92911487D01*
X119237973Y-92850164D01*
X119242957Y-92780472D01*
X119284829Y-92724539D01*
X119350293Y-92700122D01*
X119383330Y-92702189D01*
X119450247Y-92715499D01*
X119450250Y-92715500D01*
X119450252Y-92715500D01*
X120389750Y-92715500D01*
X120389751Y-92715499D01*
X120414121Y-92710652D01*
X120448229Y-92703868D01*
X120448231Y-92703867D01*
X120486108Y-92678558D01*
X120552785Y-92657679D01*
X120620165Y-92676163D01*
X120623892Y-92678558D01*
X120661768Y-92703867D01*
X120661770Y-92703868D01*
X120720247Y-92715499D01*
X120720250Y-92715500D01*
X120720252Y-92715500D01*
X121659750Y-92715500D01*
X121659751Y-92715499D01*
X121684121Y-92710652D01*
X121718229Y-92703868D01*
X121718231Y-92703867D01*
X121756108Y-92678558D01*
X121822785Y-92657679D01*
X121890165Y-92676163D01*
X121893892Y-92678558D01*
X121931768Y-92703867D01*
X121931770Y-92703868D01*
X121990247Y-92715499D01*
X121990250Y-92715500D01*
X121990252Y-92715500D01*
X122929750Y-92715500D01*
X122929751Y-92715499D01*
X122954121Y-92710652D01*
X122988229Y-92703868D01*
X122988231Y-92703867D01*
X123026108Y-92678558D01*
X123092785Y-92657679D01*
X123160165Y-92676163D01*
X123163892Y-92678558D01*
X123201768Y-92703867D01*
X123201770Y-92703868D01*
X123260247Y-92715499D01*
X123260250Y-92715500D01*
X123260252Y-92715500D01*
X124199750Y-92715500D01*
X124199751Y-92715499D01*
X124224121Y-92710652D01*
X124258229Y-92703868D01*
X124258231Y-92703867D01*
X124296108Y-92678558D01*
X124362785Y-92657679D01*
X124430165Y-92676163D01*
X124433892Y-92678558D01*
X124471768Y-92703867D01*
X124471770Y-92703868D01*
X124530247Y-92715499D01*
X124530250Y-92715500D01*
X124530252Y-92715500D01*
X125469750Y-92715500D01*
X125469751Y-92715499D01*
X125494121Y-92710652D01*
X125528229Y-92703868D01*
X125528231Y-92703867D01*
X125566108Y-92678558D01*
X125632785Y-92657679D01*
X125700165Y-92676163D01*
X125703892Y-92678558D01*
X125741768Y-92703867D01*
X125741770Y-92703868D01*
X125800247Y-92715499D01*
X125800250Y-92715500D01*
X125800252Y-92715500D01*
X126739750Y-92715500D01*
X126739751Y-92715499D01*
X126764121Y-92710652D01*
X126798229Y-92703868D01*
X126798231Y-92703867D01*
X126836108Y-92678558D01*
X126902785Y-92657679D01*
X126970165Y-92676163D01*
X126973892Y-92678558D01*
X127011768Y-92703867D01*
X127011770Y-92703868D01*
X127070247Y-92715499D01*
X127070250Y-92715500D01*
X127070252Y-92715500D01*
X128009750Y-92715500D01*
X128009751Y-92715499D01*
X128034121Y-92710652D01*
X128068229Y-92703868D01*
X128068231Y-92703867D01*
X128106108Y-92678558D01*
X128172785Y-92657679D01*
X128240165Y-92676163D01*
X128243892Y-92678558D01*
X128281768Y-92703867D01*
X128281770Y-92703868D01*
X128340247Y-92715499D01*
X128340250Y-92715500D01*
X128340252Y-92715500D01*
X129279750Y-92715500D01*
X129279751Y-92715499D01*
X129304121Y-92710652D01*
X129338229Y-92703868D01*
X129338231Y-92703867D01*
X129376108Y-92678558D01*
X129442785Y-92657679D01*
X129510165Y-92676163D01*
X129513892Y-92678558D01*
X129551768Y-92703867D01*
X129551770Y-92703868D01*
X129610247Y-92715499D01*
X129610250Y-92715500D01*
X129610252Y-92715500D01*
X130549750Y-92715500D01*
X130549751Y-92715499D01*
X130574121Y-92710652D01*
X130608229Y-92703868D01*
X130608231Y-92703867D01*
X130646108Y-92678558D01*
X130712785Y-92657679D01*
X130780165Y-92676163D01*
X130783892Y-92678558D01*
X130821768Y-92703867D01*
X130821770Y-92703868D01*
X130880247Y-92715499D01*
X130880250Y-92715500D01*
X130880252Y-92715500D01*
X131819750Y-92715500D01*
X131819751Y-92715499D01*
X131844121Y-92710652D01*
X131878229Y-92703868D01*
X131878229Y-92703867D01*
X131878231Y-92703867D01*
X131944552Y-92659552D01*
X131988867Y-92593231D01*
X131988867Y-92593229D01*
X131988868Y-92593229D01*
X132000499Y-92534752D01*
X132000500Y-92534750D01*
X132000500Y-90995249D01*
X132000499Y-90995247D01*
X131988868Y-90936770D01*
X131988867Y-90936769D01*
X131944551Y-90870446D01*
X131936286Y-90862181D01*
X131902801Y-90800858D01*
X131907785Y-90731166D01*
X131949657Y-90675233D01*
X132015121Y-90650816D01*
X132023967Y-90650500D01*
X133369750Y-90650500D01*
X133369751Y-90650499D01*
X133384568Y-90647552D01*
X133428229Y-90638868D01*
X133428229Y-90638867D01*
X133428231Y-90638867D01*
X133494552Y-90594552D01*
X133538867Y-90528231D01*
X133538867Y-90528229D01*
X133538868Y-90528229D01*
X133547552Y-90484568D01*
X133550500Y-90469748D01*
X133550500Y-89530252D01*
X133550500Y-89530249D01*
X133550499Y-89530247D01*
X133538868Y-89471770D01*
X133538867Y-89471768D01*
X133513558Y-89433892D01*
X133492679Y-89367215D01*
X133511163Y-89299835D01*
X133513558Y-89296108D01*
X133538867Y-89258231D01*
X133538868Y-89258229D01*
X133550499Y-89199752D01*
X133550500Y-89199750D01*
X133550500Y-88260249D01*
X133550499Y-88260247D01*
X133538868Y-88201770D01*
X133538867Y-88201768D01*
X133513558Y-88163892D01*
X133492679Y-88097215D01*
X133511163Y-88029835D01*
X133513558Y-88026108D01*
X133538867Y-87988231D01*
X133538868Y-87988229D01*
X133550499Y-87929752D01*
X133550500Y-87929750D01*
X133550500Y-86990249D01*
X133550499Y-86990247D01*
X133538868Y-86931770D01*
X133538867Y-86931768D01*
X133513558Y-86893892D01*
X133492679Y-86827215D01*
X133497000Y-86792477D01*
X133502309Y-86772942D01*
X133538867Y-86718231D01*
X133550500Y-86659748D01*
X133550500Y-86595640D01*
X133554841Y-86579669D01*
X133564817Y-86563433D01*
X133570185Y-86545153D01*
X133582728Y-86534284D01*
X133591420Y-86520139D01*
X133608590Y-86511873D01*
X133622989Y-86499398D01*
X133642406Y-86492417D01*
X133649560Y-86490500D01*
X133649562Y-86490500D01*
X133725989Y-86470021D01*
X133794511Y-86430460D01*
X133850460Y-86374511D01*
X134878232Y-85346739D01*
X136074500Y-85346739D01*
X136074500Y-85713260D01*
X136084426Y-85781391D01*
X136135803Y-85886485D01*
X136218514Y-85969196D01*
X136218515Y-85969196D01*
X136218517Y-85969198D01*
X136323607Y-86020573D01*
X136343717Y-86023503D01*
X136391739Y-86030500D01*
X136391740Y-86030500D01*
X138108261Y-86030500D01*
X138130971Y-86027191D01*
X138176393Y-86020573D01*
X138281483Y-85969198D01*
X138364198Y-85886483D01*
X138415573Y-85781393D01*
X138425500Y-85713260D01*
X138425500Y-85346740D01*
X138424470Y-85339674D01*
X138419971Y-85308793D01*
X138415573Y-85278607D01*
X138364198Y-85173517D01*
X138364196Y-85173515D01*
X138364196Y-85173514D01*
X138281485Y-85090803D01*
X138176391Y-85039426D01*
X138108261Y-85029500D01*
X138108260Y-85029500D01*
X136391740Y-85029500D01*
X136391739Y-85029500D01*
X136323608Y-85039426D01*
X136218514Y-85090803D01*
X136135803Y-85173514D01*
X136084426Y-85278608D01*
X136074500Y-85346739D01*
X134878232Y-85346739D01*
X135628152Y-84596819D01*
X135689475Y-84563334D01*
X135715833Y-84560500D01*
X136032003Y-84560500D01*
X136099042Y-84580185D01*
X136132923Y-84612450D01*
X136135805Y-84616487D01*
X136218514Y-84699196D01*
X136218515Y-84699196D01*
X136218517Y-84699198D01*
X136323607Y-84750573D01*
X136357673Y-84755536D01*
X136391739Y-84760500D01*
X136391740Y-84760500D01*
X138108261Y-84760500D01*
X138130971Y-84757191D01*
X138176393Y-84750573D01*
X138281483Y-84699198D01*
X138364198Y-84616483D01*
X138415573Y-84511393D01*
X138425500Y-84443260D01*
X138425500Y-84076740D01*
X138415573Y-84008607D01*
X138364198Y-83903517D01*
X138364196Y-83903515D01*
X138364196Y-83903514D01*
X138281485Y-83820803D01*
X138176391Y-83769426D01*
X138108261Y-83759500D01*
X138108260Y-83759500D01*
X136391740Y-83759500D01*
X136391739Y-83759500D01*
X136323608Y-83769426D01*
X136218514Y-83820803D01*
X136135805Y-83903512D01*
X136132923Y-83907550D01*
X136077949Y-83950674D01*
X136032003Y-83959500D01*
X135500438Y-83959500D01*
X135424011Y-83979979D01*
X135358829Y-84017611D01*
X135358826Y-84017613D01*
X135355492Y-84019537D01*
X135355488Y-84019540D01*
X133715558Y-85659470D01*
X133697066Y-85669566D01*
X133681393Y-85683646D01*
X133667016Y-85685975D01*
X133654235Y-85692955D01*
X133633219Y-85691452D01*
X133612423Y-85694822D01*
X133599070Y-85689009D01*
X133584543Y-85687971D01*
X133567675Y-85675343D01*
X133548360Y-85666936D01*
X133531764Y-85648460D01*
X133528610Y-85646099D01*
X133524775Y-85640679D01*
X133513557Y-85623890D01*
X133492679Y-85557213D01*
X133511164Y-85489833D01*
X133513558Y-85486108D01*
X133538867Y-85448231D01*
X133538868Y-85448229D01*
X133550499Y-85389752D01*
X133550500Y-85389750D01*
X133550500Y-85334153D01*
X133570185Y-85267114D01*
X133622989Y-85221359D01*
X133642396Y-85214381D01*
X133695989Y-85200021D01*
X133764511Y-85160460D01*
X133820460Y-85104511D01*
X135862819Y-83062152D01*
X135924142Y-83028667D01*
X135993834Y-83033651D01*
X136049767Y-83075523D01*
X136074184Y-83140987D01*
X136074500Y-83149833D01*
X136074500Y-83173260D01*
X136084426Y-83241391D01*
X136135803Y-83346485D01*
X136218514Y-83429196D01*
X136218515Y-83429196D01*
X136218517Y-83429198D01*
X136323607Y-83480573D01*
X136357673Y-83485536D01*
X136391739Y-83490500D01*
X136391740Y-83490500D01*
X138108261Y-83490500D01*
X138130971Y-83487191D01*
X138176393Y-83480573D01*
X138281483Y-83429198D01*
X138364198Y-83346483D01*
X138364199Y-83346482D01*
X138419804Y-83232741D01*
X138421648Y-83233642D01*
X138444897Y-83195071D01*
X138465459Y-83174511D01*
X138766460Y-82873510D01*
X138806022Y-82804987D01*
X138826500Y-82728561D01*
X138826500Y-82649437D01*
X138826500Y-80069470D01*
X138820157Y-80045799D01*
X138806022Y-79993044D01*
X138766460Y-79924521D01*
X138534120Y-79692181D01*
X138500635Y-79630858D01*
X138505619Y-79561166D01*
X138547491Y-79505233D01*
X138612955Y-79480816D01*
X138621801Y-79480500D01*
X139241324Y-79480500D01*
X139270764Y-79489144D01*
X139300751Y-79495668D01*
X139305766Y-79499422D01*
X139308363Y-79500185D01*
X139329005Y-79516819D01*
X139363181Y-79550995D01*
X139396666Y-79612318D01*
X139399500Y-79638676D01*
X139399500Y-85314561D01*
X139408122Y-85346739D01*
X139419979Y-85390989D01*
X139434872Y-85416784D01*
X139453758Y-85449495D01*
X139459539Y-85459508D01*
X139459541Y-85459511D01*
X141005103Y-87005073D01*
X141028359Y-87043640D01*
X141030198Y-87042742D01*
X141034426Y-87051392D01*
X141034427Y-87051393D01*
X141042778Y-87068475D01*
X141085803Y-87156485D01*
X141168514Y-87239196D01*
X141168515Y-87239196D01*
X141168517Y-87239198D01*
X141273607Y-87290573D01*
X141307673Y-87295536D01*
X141341739Y-87300500D01*
X141341740Y-87300500D01*
X143058261Y-87300500D01*
X143080971Y-87297191D01*
X143126393Y-87290573D01*
X143231483Y-87239198D01*
X143314198Y-87156483D01*
X143365573Y-87051393D01*
X143375500Y-86983260D01*
X143375500Y-86616740D01*
X143375287Y-86615281D01*
X143367733Y-86563433D01*
X143365573Y-86548607D01*
X143314198Y-86443517D01*
X143314196Y-86443515D01*
X143314196Y-86443514D01*
X143231485Y-86360803D01*
X143126391Y-86309426D01*
X143058261Y-86299500D01*
X143058260Y-86299500D01*
X141341740Y-86299500D01*
X141341739Y-86299500D01*
X141273608Y-86309426D01*
X141264405Y-86312270D01*
X141263768Y-86310208D01*
X141253042Y-86312038D01*
X141230822Y-86320326D01*
X141219233Y-86317804D01*
X141207543Y-86319799D01*
X141185722Y-86310515D01*
X141162549Y-86305474D01*
X141147637Y-86294311D01*
X141143251Y-86292445D01*
X141134295Y-86284323D01*
X141005237Y-86155265D01*
X140971752Y-86093942D01*
X140972448Y-86084204D01*
X140910883Y-86059646D01*
X140899734Y-86049762D01*
X140196711Y-85346739D01*
X141024500Y-85346739D01*
X141024500Y-85713260D01*
X141034426Y-85781391D01*
X141085803Y-85886485D01*
X141088334Y-85890030D01*
X141090294Y-85895671D01*
X141090315Y-85895714D01*
X141090309Y-85895716D01*
X141108931Y-85949307D01*
X141152345Y-85958752D01*
X141164971Y-85966666D01*
X141168515Y-85969196D01*
X141168517Y-85969198D01*
X141273607Y-86020573D01*
X141293717Y-86023503D01*
X141341739Y-86030500D01*
X141341740Y-86030500D01*
X143058261Y-86030500D01*
X143080971Y-86027191D01*
X143126393Y-86020573D01*
X143231483Y-85969198D01*
X143314198Y-85886483D01*
X143365573Y-85781393D01*
X143375500Y-85713260D01*
X143375500Y-85346740D01*
X143374470Y-85339674D01*
X143369971Y-85308793D01*
X143365573Y-85278607D01*
X143314198Y-85173517D01*
X143314196Y-85173515D01*
X143314196Y-85173514D01*
X143231485Y-85090803D01*
X143126391Y-85039426D01*
X143058261Y-85029500D01*
X143058260Y-85029500D01*
X141341740Y-85029500D01*
X141341739Y-85029500D01*
X141273608Y-85039426D01*
X141168514Y-85090803D01*
X141085803Y-85173514D01*
X141034426Y-85278608D01*
X141024500Y-85346739D01*
X140196711Y-85346739D01*
X140036819Y-85186847D01*
X140003334Y-85125524D01*
X140000500Y-85099166D01*
X140000500Y-79638676D01*
X140020185Y-79571637D01*
X140036819Y-79550995D01*
X140063647Y-79524167D01*
X140100500Y-79487314D01*
X140166392Y-79373186D01*
X140200500Y-79245892D01*
X140200500Y-79114108D01*
X140166392Y-78986814D01*
X140100500Y-78872686D01*
X140007314Y-78779500D01*
X139940287Y-78740802D01*
X139893187Y-78713608D01*
X139802940Y-78689427D01*
X139765892Y-78679500D01*
X139634108Y-78679500D01*
X139506812Y-78713608D01*
X139392686Y-78779500D01*
X139392683Y-78779502D01*
X139329005Y-78843181D01*
X139267682Y-78876666D01*
X139241324Y-78879500D01*
X138924500Y-78879500D01*
X138857461Y-78859815D01*
X138811706Y-78807011D01*
X138800500Y-78755500D01*
X138800500Y-78226656D01*
X138820185Y-78159617D01*
X138872989Y-78113862D01*
X138881481Y-78110556D01*
X138883122Y-78109719D01*
X138883126Y-78109719D01*
X139003220Y-78048528D01*
X139098528Y-77953220D01*
X139159719Y-77833126D01*
X139159857Y-77832255D01*
X139175500Y-77733493D01*
X139175500Y-77216506D01*
X139159720Y-77116878D01*
X139159719Y-77116876D01*
X139159719Y-77116874D01*
X139098528Y-76996780D01*
X139098526Y-76996778D01*
X139098523Y-76996774D01*
X139003225Y-76901476D01*
X139003221Y-76901473D01*
X139003220Y-76901472D01*
X138883126Y-76840281D01*
X138883124Y-76840280D01*
X138883121Y-76840279D01*
X138783493Y-76824500D01*
X138783488Y-76824500D01*
X138216512Y-76824500D01*
X138216507Y-76824500D01*
X138116878Y-76840279D01*
X137996778Y-76901473D01*
X137996774Y-76901476D01*
X137901476Y-76996774D01*
X137901473Y-76996778D01*
X137840279Y-77116878D01*
X137824500Y-77216506D01*
X137824500Y-77733493D01*
X137840279Y-77833121D01*
X137840280Y-77833124D01*
X137840281Y-77833126D01*
X137899564Y-77949475D01*
X137901473Y-77953221D01*
X137901476Y-77953225D01*
X137996774Y-78048523D01*
X137996778Y-78048526D01*
X137996780Y-78048528D01*
X138116874Y-78109719D01*
X138116876Y-78109719D01*
X138125570Y-78114149D01*
X138124581Y-78116088D01*
X138171486Y-78148154D01*
X138198690Y-78212510D01*
X138199500Y-78226656D01*
X138199500Y-78555500D01*
X138179815Y-78622539D01*
X138127011Y-78668294D01*
X138075500Y-78679500D01*
X136391739Y-78679500D01*
X136323608Y-78689426D01*
X136218514Y-78740803D01*
X136135803Y-78823514D01*
X136084426Y-78928608D01*
X136075946Y-78986814D01*
X136074500Y-78996740D01*
X136074500Y-79363260D01*
X136078787Y-79392686D01*
X136080818Y-79406621D01*
X136071005Y-79475798D01*
X136025350Y-79528689D01*
X135958348Y-79548500D01*
X134811438Y-79548500D01*
X134783027Y-79556113D01*
X134735009Y-79568979D01*
X134735004Y-79568982D01*
X134666495Y-79608535D01*
X134666487Y-79608541D01*
X133707547Y-80567481D01*
X133689054Y-80577578D01*
X133673378Y-80591659D01*
X133659003Y-80593987D01*
X133646224Y-80600966D01*
X133625208Y-80599463D01*
X133604408Y-80602833D01*
X133591056Y-80597020D01*
X133576532Y-80595982D01*
X133559663Y-80583354D01*
X133540345Y-80574944D01*
X133523752Y-80556470D01*
X133520599Y-80554110D01*
X133516778Y-80548711D01*
X133513553Y-80543885D01*
X133492679Y-80477209D01*
X133511166Y-80409829D01*
X133513558Y-80406108D01*
X133538867Y-80368231D01*
X133538868Y-80368229D01*
X133550499Y-80309752D01*
X133550500Y-80309750D01*
X133550500Y-79370249D01*
X133550499Y-79370247D01*
X133538868Y-79311770D01*
X133538867Y-79311768D01*
X133513558Y-79273892D01*
X133492679Y-79207215D01*
X133511163Y-79139835D01*
X133513558Y-79136108D01*
X133538867Y-79098231D01*
X133538868Y-79098229D01*
X133550499Y-79039752D01*
X133550500Y-79039750D01*
X133550500Y-78100249D01*
X133550499Y-78100247D01*
X133538868Y-78041770D01*
X133538867Y-78041768D01*
X133513558Y-78003892D01*
X133492679Y-77937215D01*
X133511163Y-77869835D01*
X133513558Y-77866108D01*
X133538867Y-77828231D01*
X133538868Y-77828229D01*
X133550499Y-77769752D01*
X133550500Y-77769750D01*
X133550500Y-76830249D01*
X133550499Y-76830247D01*
X133538868Y-76771770D01*
X133538867Y-76771768D01*
X133513558Y-76733892D01*
X133492679Y-76667215D01*
X133511163Y-76599835D01*
X133513558Y-76596108D01*
X133538867Y-76558231D01*
X133538868Y-76558229D01*
X133550499Y-76499752D01*
X133550500Y-76499750D01*
X133550500Y-75560249D01*
X133550499Y-75560247D01*
X133538868Y-75501770D01*
X133538867Y-75501769D01*
X133494552Y-75435447D01*
X133428230Y-75391132D01*
X133428229Y-75391131D01*
X133369752Y-75379500D01*
X133369748Y-75379500D01*
X132023967Y-75379500D01*
X131956928Y-75359815D01*
X131911173Y-75307011D01*
X131901229Y-75237853D01*
X131930254Y-75174297D01*
X131936286Y-75167819D01*
X131944551Y-75159553D01*
X131944552Y-75159552D01*
X131988867Y-75093231D01*
X131988867Y-75093229D01*
X131988868Y-75093229D01*
X132000499Y-75034752D01*
X132000500Y-75034750D01*
X132000500Y-74412648D01*
X143064500Y-74412648D01*
X143064500Y-74617351D01*
X143096522Y-74819534D01*
X143159781Y-75014223D01*
X143204686Y-75102352D01*
X143237061Y-75165892D01*
X143252715Y-75196613D01*
X143373028Y-75362213D01*
X143517786Y-75506971D01*
X143672749Y-75619556D01*
X143683390Y-75627287D01*
X143790005Y-75681610D01*
X143865776Y-75720218D01*
X143865778Y-75720218D01*
X143865781Y-75720220D01*
X143970137Y-75754127D01*
X144060465Y-75783477D01*
X144161557Y-75799488D01*
X144262648Y-75815500D01*
X144262649Y-75815500D01*
X144467351Y-75815500D01*
X144467352Y-75815500D01*
X144669534Y-75783477D01*
X144864219Y-75720220D01*
X145046610Y-75627287D01*
X145139590Y-75559732D01*
X145212213Y-75506971D01*
X145212215Y-75506968D01*
X145212219Y-75506966D01*
X145356966Y-75362219D01*
X145356968Y-75362215D01*
X145356971Y-75362213D01*
X145447322Y-75237853D01*
X145477287Y-75196610D01*
X145570220Y-75014219D01*
X145633477Y-74819534D01*
X145665500Y-74617352D01*
X145665500Y-74412648D01*
X145661683Y-74388549D01*
X154499500Y-74388549D01*
X154499500Y-74611450D01*
X154499501Y-74611466D01*
X154528594Y-74832452D01*
X154528595Y-74832457D01*
X154528596Y-74832463D01*
X154586288Y-75047772D01*
X154586290Y-75047780D01*
X154586293Y-75047790D01*
X154655761Y-75215500D01*
X154671595Y-75253726D01*
X154783052Y-75446774D01*
X154783057Y-75446780D01*
X154783058Y-75446782D01*
X154918751Y-75623622D01*
X154918757Y-75623629D01*
X155076370Y-75781242D01*
X155076377Y-75781248D01*
X155132745Y-75824500D01*
X155253226Y-75916948D01*
X155446274Y-76028405D01*
X155576140Y-76082197D01*
X155648783Y-76112287D01*
X155652219Y-76113710D01*
X155867537Y-76171404D01*
X156088543Y-76200500D01*
X156088550Y-76200500D01*
X156311450Y-76200500D01*
X156311457Y-76200500D01*
X156532463Y-76171404D01*
X156747781Y-76113710D01*
X156953726Y-76028405D01*
X157146774Y-75916948D01*
X157323624Y-75781247D01*
X157481247Y-75623624D01*
X157616948Y-75446774D01*
X157728405Y-75253726D01*
X157813710Y-75047781D01*
X157815152Y-75042401D01*
X157851519Y-74982743D01*
X157914367Y-74952216D01*
X157934925Y-74950500D01*
X167751500Y-74950500D01*
X167818539Y-74970185D01*
X167864294Y-75022989D01*
X167875500Y-75074500D01*
X167875500Y-79685309D01*
X167890278Y-79740460D01*
X167906201Y-79799887D01*
X167965511Y-79902614D01*
X168823386Y-80760489D01*
X168866033Y-80785111D01*
X168926114Y-80819799D01*
X169040691Y-80850500D01*
X169462035Y-80850500D01*
X169491475Y-80859144D01*
X169521462Y-80865668D01*
X169526477Y-80869422D01*
X169529074Y-80870185D01*
X169549716Y-80886819D01*
X169594315Y-80931418D01*
X169627800Y-80992741D01*
X169629846Y-81025430D01*
X169630245Y-81025438D01*
X169630165Y-81029867D01*
X169633295Y-81088274D01*
X169633849Y-81092682D01*
X169633392Y-81092739D01*
X169634999Y-81109054D01*
X169634999Y-81352890D01*
X169642001Y-81406067D01*
X169642002Y-81406074D01*
X169643787Y-81412735D01*
X169658613Y-81468067D01*
X169658614Y-81468071D01*
X169658615Y-81468072D01*
X169673578Y-81504199D01*
X169678783Y-81519526D01*
X169679768Y-81523203D01*
X169684000Y-81555318D01*
X169684000Y-81776000D01*
X169688697Y-81819684D01*
X169688790Y-81820545D01*
X169689500Y-81833798D01*
X169689500Y-81878398D01*
X169704760Y-81955118D01*
X169704761Y-81955120D01*
X169734728Y-81999967D01*
X169762888Y-82042112D01*
X169849883Y-82100240D01*
X169849886Y-82100240D01*
X169849887Y-82100241D01*
X169876326Y-82105500D01*
X169926599Y-82115500D01*
X170103400Y-82115499D01*
X170132430Y-82109725D01*
X170141698Y-82107882D01*
X170165886Y-82105500D01*
X170190778Y-82105500D01*
X170222870Y-82109725D01*
X170227998Y-82111099D01*
X170240691Y-82114500D01*
X170240693Y-82114500D01*
X170359312Y-82114500D01*
X170367371Y-82113439D01*
X170367518Y-82114562D01*
X170414197Y-82113033D01*
X170416239Y-82113439D01*
X170426599Y-82115500D01*
X170603400Y-82115499D01*
X170680117Y-82100240D01*
X170696107Y-82089555D01*
X170762783Y-82068676D01*
X170796978Y-82072850D01*
X170816815Y-82078144D01*
X170849883Y-82100240D01*
X170926599Y-82115500D01*
X170956767Y-82115499D01*
X170972478Y-82119693D01*
X170988990Y-82129736D01*
X171007534Y-82135180D01*
X171018224Y-82147516D01*
X171032173Y-82156000D01*
X171040634Y-82173375D01*
X171053292Y-82187982D01*
X171057770Y-82208566D01*
X171062763Y-82218818D01*
X171061788Y-82227032D01*
X171064500Y-82239493D01*
X171064500Y-82253397D01*
X171079760Y-82330119D01*
X171090446Y-82346111D01*
X171111323Y-82412788D01*
X171092837Y-82480168D01*
X171090446Y-82483889D01*
X171079759Y-82499882D01*
X171064500Y-82576596D01*
X171064500Y-82753398D01*
X171079760Y-82830118D01*
X171079761Y-82830120D01*
X171113018Y-82879891D01*
X171137888Y-82917112D01*
X171224883Y-82975240D01*
X171224886Y-82975240D01*
X171224887Y-82975241D01*
X171255811Y-82981392D01*
X171301599Y-82990500D01*
X172103400Y-82990499D01*
X172180117Y-82975240D01*
X172267112Y-82917112D01*
X172325240Y-82830117D01*
X172340500Y-82753401D01*
X172340499Y-82576600D01*
X172325240Y-82499883D01*
X172325239Y-82499881D01*
X172325238Y-82499878D01*
X172314555Y-82483891D01*
X172293676Y-82417214D01*
X172312160Y-82349833D01*
X172314517Y-82346164D01*
X172325240Y-82330117D01*
X172340500Y-82253401D01*
X172340499Y-82076600D01*
X172325240Y-81999883D01*
X172325239Y-81999881D01*
X172325238Y-81999879D01*
X172318631Y-81989991D01*
X172297753Y-81923313D01*
X172316238Y-81855933D01*
X172334052Y-81833419D01*
X172592886Y-81574585D01*
X172940460Y-81227012D01*
X172944795Y-81219503D01*
X172944798Y-81219500D01*
X172944797Y-81219500D01*
X172980021Y-81158490D01*
X173000500Y-81082063D01*
X173000500Y-79457359D01*
X173020185Y-79390320D01*
X173072989Y-79344565D01*
X173091157Y-79339089D01*
X173091019Y-79338663D01*
X173100300Y-79335647D01*
X173100301Y-79335646D01*
X173100304Y-79335646D01*
X173213342Y-79278050D01*
X173303050Y-79188342D01*
X173360646Y-79075304D01*
X173360646Y-79075302D01*
X173360647Y-79075301D01*
X173375499Y-78981524D01*
X173375500Y-78981519D01*
X173375499Y-78518482D01*
X173360646Y-78424696D01*
X173303050Y-78311658D01*
X173303046Y-78311654D01*
X173303045Y-78311652D01*
X173213347Y-78221954D01*
X173213344Y-78221952D01*
X173213342Y-78221950D01*
X173122833Y-78175833D01*
X173100301Y-78164352D01*
X173006524Y-78149500D01*
X172393482Y-78149500D01*
X172319895Y-78161155D01*
X172299696Y-78164354D01*
X172186658Y-78221950D01*
X172186657Y-78221951D01*
X172186652Y-78221954D01*
X172096954Y-78311652D01*
X172096951Y-78311657D01*
X172039352Y-78424698D01*
X172024500Y-78518475D01*
X172024500Y-78981517D01*
X172035018Y-79047928D01*
X172039354Y-79075304D01*
X172096950Y-79188342D01*
X172096952Y-79188344D01*
X172096954Y-79188347D01*
X172186652Y-79278045D01*
X172186654Y-79278046D01*
X172186658Y-79278050D01*
X172273529Y-79322313D01*
X172299698Y-79335647D01*
X172308980Y-79338663D01*
X172308162Y-79341177D01*
X172358019Y-79364803D01*
X172394959Y-79424109D01*
X172399500Y-79457359D01*
X172399500Y-80866668D01*
X172379815Y-80933707D01*
X172363181Y-80954349D01*
X171552180Y-81765350D01*
X171490857Y-81798835D01*
X171421165Y-81793851D01*
X171365232Y-81751979D01*
X171340815Y-81686515D01*
X171340499Y-81677669D01*
X171340499Y-81076602D01*
X171340081Y-81074500D01*
X171325240Y-80999883D01*
X171325238Y-80999880D01*
X171325238Y-80999879D01*
X171324937Y-80999151D01*
X171315500Y-80951703D01*
X171315500Y-79453291D01*
X171335185Y-79386252D01*
X171387989Y-79340497D01*
X171399834Y-79335885D01*
X171400302Y-79335646D01*
X171400304Y-79335646D01*
X171513342Y-79278050D01*
X171603050Y-79188342D01*
X171660646Y-79075304D01*
X171660646Y-79075302D01*
X171660647Y-79075301D01*
X171675499Y-78981524D01*
X171675500Y-78981519D01*
X171675499Y-78518482D01*
X171660646Y-78424696D01*
X171603050Y-78311658D01*
X171603046Y-78311654D01*
X171603045Y-78311652D01*
X171513347Y-78221954D01*
X171513344Y-78221952D01*
X171513342Y-78221950D01*
X171422833Y-78175833D01*
X171400301Y-78164352D01*
X171306524Y-78149500D01*
X170693482Y-78149500D01*
X170619895Y-78161155D01*
X170599696Y-78164354D01*
X170486658Y-78221950D01*
X170486657Y-78221951D01*
X170486652Y-78221954D01*
X170396954Y-78311652D01*
X170396951Y-78311657D01*
X170339352Y-78424698D01*
X170324500Y-78518475D01*
X170324500Y-78981519D01*
X170337714Y-79064954D01*
X170328757Y-79134247D01*
X170283760Y-79187698D01*
X170217008Y-79208336D01*
X170206759Y-79208059D01*
X170194766Y-79207236D01*
X170165892Y-79199500D01*
X170081910Y-79199500D01*
X170077680Y-79199210D01*
X170048726Y-79188507D01*
X170019122Y-79179815D01*
X170016254Y-79176505D01*
X170012144Y-79174986D01*
X169993573Y-79150330D01*
X169973367Y-79127011D01*
X169972743Y-79122675D01*
X169970108Y-79119176D01*
X169967815Y-79088404D01*
X169963423Y-79057853D01*
X169963688Y-79056102D01*
X169975499Y-78981524D01*
X169975500Y-78981519D01*
X169975499Y-78518482D01*
X169960646Y-78424696D01*
X169903050Y-78311658D01*
X169903046Y-78311654D01*
X169903045Y-78311652D01*
X169813347Y-78221954D01*
X169813344Y-78221952D01*
X169813342Y-78221950D01*
X169722833Y-78175833D01*
X169700301Y-78164352D01*
X169606524Y-78149500D01*
X168993482Y-78149500D01*
X168935031Y-78158758D01*
X168919896Y-78161154D01*
X168901355Y-78158758D01*
X168882853Y-78161419D01*
X168867424Y-78154373D01*
X168850603Y-78152199D01*
X168836302Y-78140159D01*
X168819297Y-78132394D01*
X168810126Y-78118124D01*
X168797152Y-78107202D01*
X168791630Y-78089343D01*
X168781523Y-78073616D01*
X168776964Y-78041909D01*
X168776513Y-78040450D01*
X168776500Y-78038681D01*
X168776500Y-77811319D01*
X168796185Y-77744280D01*
X168848989Y-77698525D01*
X168918147Y-77688581D01*
X168919899Y-77688846D01*
X168953759Y-77694208D01*
X168993481Y-77700500D01*
X169606518Y-77700499D01*
X169700304Y-77685646D01*
X169813342Y-77628050D01*
X169903050Y-77538342D01*
X169960646Y-77425304D01*
X169960646Y-77425302D01*
X169960647Y-77425301D01*
X169975499Y-77331524D01*
X169975500Y-77331519D01*
X169975499Y-76900831D01*
X169995183Y-76833793D01*
X170011813Y-76813156D01*
X171790862Y-75034108D01*
X176699500Y-75034108D01*
X176699500Y-75165892D01*
X176701752Y-75174297D01*
X176733608Y-75293187D01*
X176760902Y-75340460D01*
X176799500Y-75407314D01*
X176892686Y-75500500D01*
X176991521Y-75557563D01*
X176996170Y-75560247D01*
X177006814Y-75566392D01*
X177134108Y-75600500D01*
X177134110Y-75600500D01*
X177265890Y-75600500D01*
X177265892Y-75600500D01*
X177393186Y-75566392D01*
X177507314Y-75500500D01*
X177570995Y-75436819D01*
X177632318Y-75403334D01*
X177658676Y-75400500D01*
X177739560Y-75400500D01*
X177739562Y-75400500D01*
X177815989Y-75380021D01*
X177884511Y-75340460D01*
X177940460Y-75284511D01*
X178327323Y-74897648D01*
X180699500Y-74897648D01*
X180699500Y-75102351D01*
X180731522Y-75304534D01*
X180794781Y-75499223D01*
X180887715Y-75681613D01*
X181008028Y-75847213D01*
X181152786Y-75991971D01*
X181301060Y-76099696D01*
X181318390Y-76112287D01*
X181434410Y-76171402D01*
X181500776Y-76205218D01*
X181500778Y-76205218D01*
X181500781Y-76205220D01*
X181605137Y-76239127D01*
X181695465Y-76268477D01*
X181796557Y-76284488D01*
X181897648Y-76300500D01*
X181897649Y-76300500D01*
X182102351Y-76300500D01*
X182102352Y-76300500D01*
X182304534Y-76268477D01*
X182499219Y-76205220D01*
X182681610Y-76112287D01*
X182774590Y-76044732D01*
X182847213Y-75991971D01*
X182847215Y-75991968D01*
X182847219Y-75991966D01*
X182991966Y-75847219D01*
X182991968Y-75847215D01*
X182991971Y-75847213D01*
X183084235Y-75720220D01*
X183112287Y-75681610D01*
X183205220Y-75499219D01*
X183268477Y-75304534D01*
X183300500Y-75102352D01*
X183300500Y-74897648D01*
X183282581Y-74784511D01*
X183268477Y-74695465D01*
X183224604Y-74560438D01*
X183205220Y-74500781D01*
X183205218Y-74500778D01*
X183205218Y-74500776D01*
X183154124Y-74400500D01*
X183112287Y-74318390D01*
X183079985Y-74273930D01*
X182991971Y-74152786D01*
X182847213Y-74008028D01*
X182681613Y-73887715D01*
X182681612Y-73887714D01*
X182681610Y-73887713D01*
X182624653Y-73858691D01*
X182499223Y-73794781D01*
X182304534Y-73731522D01*
X182129995Y-73703878D01*
X182102352Y-73699500D01*
X181897648Y-73699500D01*
X181873329Y-73703351D01*
X181695465Y-73731522D01*
X181500776Y-73794781D01*
X181318386Y-73887715D01*
X181152786Y-74008028D01*
X181008028Y-74152786D01*
X180887715Y-74318386D01*
X180794781Y-74500776D01*
X180731522Y-74695465D01*
X180699500Y-74897648D01*
X178327323Y-74897648D01*
X178440460Y-74784511D01*
X178480022Y-74715988D01*
X178500500Y-74639562D01*
X178500500Y-74560438D01*
X178500500Y-74495037D01*
X178520185Y-74427998D01*
X178572989Y-74382243D01*
X178583527Y-74378002D01*
X178653679Y-74353455D01*
X178761430Y-74273930D01*
X178840955Y-74166179D01*
X178885186Y-74039774D01*
X178888000Y-74009764D01*
X178888000Y-72990236D01*
X178885186Y-72960226D01*
X178885184Y-72960222D01*
X178885184Y-72960218D01*
X178840955Y-72833821D01*
X178840954Y-72833819D01*
X178761430Y-72726069D01*
X178653680Y-72646545D01*
X178653678Y-72646544D01*
X178527281Y-72602315D01*
X178527269Y-72602313D01*
X178497268Y-72599500D01*
X178497264Y-72599500D01*
X177902736Y-72599500D01*
X177902732Y-72599500D01*
X177872730Y-72602313D01*
X177872718Y-72602315D01*
X177746321Y-72646544D01*
X177746319Y-72646545D01*
X177638569Y-72726069D01*
X177559045Y-72833819D01*
X177559044Y-72833821D01*
X177514815Y-72960218D01*
X177514813Y-72960230D01*
X177512000Y-72990231D01*
X177512000Y-74009768D01*
X177514813Y-74039769D01*
X177514815Y-74039781D01*
X177559044Y-74166178D01*
X177559045Y-74166180D01*
X177638569Y-74273930D01*
X177689297Y-74311369D01*
X177746321Y-74353455D01*
X177763954Y-74359625D01*
X177765021Y-74360390D01*
X177766334Y-74360484D01*
X177793324Y-74380689D01*
X177820729Y-74400344D01*
X177821214Y-74401567D01*
X177822267Y-74402356D01*
X177834047Y-74433940D01*
X177846478Y-74465297D01*
X177846224Y-74466588D01*
X177846684Y-74467820D01*
X177839520Y-74500748D01*
X177833023Y-74533859D01*
X177832020Y-74535227D01*
X177831832Y-74536093D01*
X177810681Y-74564347D01*
X177679102Y-74695926D01*
X177617779Y-74729411D01*
X177548087Y-74724427D01*
X177514829Y-74703053D01*
X177513760Y-74704447D01*
X177507316Y-74699502D01*
X177507314Y-74699500D01*
X177403499Y-74639562D01*
X177393187Y-74633608D01*
X177310550Y-74611466D01*
X177265892Y-74599500D01*
X177134108Y-74599500D01*
X177006812Y-74633608D01*
X176892686Y-74699500D01*
X176892683Y-74699502D01*
X176799502Y-74792683D01*
X176799500Y-74792686D01*
X176733608Y-74906812D01*
X176704829Y-75014219D01*
X176699500Y-75034108D01*
X171790862Y-75034108D01*
X172988152Y-73836819D01*
X173049475Y-73803334D01*
X173075833Y-73800500D01*
X175513000Y-73800500D01*
X175580039Y-73820185D01*
X175625794Y-73872989D01*
X175637000Y-73924500D01*
X175637000Y-74009768D01*
X175639813Y-74039769D01*
X175639815Y-74039781D01*
X175684044Y-74166178D01*
X175684045Y-74166180D01*
X175763569Y-74273930D01*
X175871319Y-74353454D01*
X175871321Y-74353455D01*
X175997718Y-74397684D01*
X175997722Y-74397684D01*
X175997726Y-74397686D01*
X176012731Y-74399093D01*
X176027732Y-74400500D01*
X176027736Y-74400500D01*
X176622268Y-74400500D01*
X176635601Y-74399249D01*
X176652274Y-74397686D01*
X176652278Y-74397684D01*
X176652281Y-74397684D01*
X176758591Y-74360484D01*
X176778679Y-74353455D01*
X176886430Y-74273930D01*
X176965955Y-74166179D01*
X177010186Y-74039774D01*
X177013000Y-74009764D01*
X177013000Y-72990236D01*
X177010186Y-72960226D01*
X177010184Y-72960222D01*
X177010184Y-72960218D01*
X176965955Y-72833821D01*
X176965954Y-72833819D01*
X176886430Y-72726069D01*
X176778680Y-72646545D01*
X176778678Y-72646544D01*
X176652281Y-72602315D01*
X176652269Y-72602313D01*
X176622268Y-72599500D01*
X176622264Y-72599500D01*
X176027736Y-72599500D01*
X176027732Y-72599500D01*
X175997730Y-72602313D01*
X175997718Y-72602315D01*
X175871321Y-72646544D01*
X175871319Y-72646545D01*
X175763569Y-72726069D01*
X175684045Y-72833819D01*
X175684044Y-72833821D01*
X175639815Y-72960218D01*
X175639813Y-72960230D01*
X175637000Y-72990231D01*
X175637000Y-73075500D01*
X175617315Y-73142539D01*
X175564511Y-73188294D01*
X175513000Y-73199500D01*
X172860438Y-73199500D01*
X172822224Y-73209739D01*
X172784009Y-73219979D01*
X172784004Y-73219982D01*
X172715495Y-73259535D01*
X172715487Y-73259541D01*
X169511846Y-76463181D01*
X169450523Y-76496666D01*
X169424165Y-76499500D01*
X168993482Y-76499500D01*
X168934910Y-76508777D01*
X168919896Y-76511154D01*
X168850603Y-76502199D01*
X168797152Y-76457202D01*
X168776513Y-76390450D01*
X168776500Y-76388681D01*
X168776500Y-74141235D01*
X168775500Y-74125969D01*
X168775500Y-73716506D01*
X168759720Y-73616878D01*
X168759719Y-73616876D01*
X168759719Y-73616874D01*
X168698528Y-73496780D01*
X168698526Y-73496778D01*
X168698523Y-73496774D01*
X168603225Y-73401476D01*
X168603221Y-73401473D01*
X168603220Y-73401472D01*
X168483126Y-73340281D01*
X168483124Y-73340280D01*
X168483121Y-73340279D01*
X168383493Y-73324500D01*
X168383488Y-73324500D01*
X167866512Y-73324500D01*
X167866507Y-73324500D01*
X167766878Y-73340279D01*
X167646778Y-73401473D01*
X167646774Y-73401476D01*
X167551476Y-73496774D01*
X167551473Y-73496778D01*
X167490279Y-73616878D01*
X167474500Y-73716506D01*
X167474500Y-73925500D01*
X167454815Y-73992539D01*
X167402011Y-74038294D01*
X167350500Y-74049500D01*
X157934925Y-74049500D01*
X157867886Y-74029815D01*
X157822131Y-73977011D01*
X157815152Y-73957599D01*
X157813712Y-73952227D01*
X157813710Y-73952219D01*
X157802228Y-73924500D01*
X157765910Y-73836819D01*
X157728405Y-73746274D01*
X157616948Y-73553226D01*
X157500507Y-73401476D01*
X157481248Y-73376377D01*
X157481242Y-73376370D01*
X157323629Y-73218757D01*
X157323622Y-73218751D01*
X157146782Y-73083058D01*
X157146780Y-73083057D01*
X157146774Y-73083052D01*
X156953726Y-72971595D01*
X156953722Y-72971593D01*
X156747790Y-72886293D01*
X156747783Y-72886291D01*
X156747781Y-72886290D01*
X156532463Y-72828596D01*
X156532457Y-72828595D01*
X156532452Y-72828594D01*
X156311466Y-72799501D01*
X156311463Y-72799500D01*
X156311457Y-72799500D01*
X156088543Y-72799500D01*
X156088537Y-72799500D01*
X156088533Y-72799501D01*
X155867547Y-72828594D01*
X155867540Y-72828595D01*
X155867537Y-72828596D01*
X155652219Y-72886290D01*
X155652209Y-72886293D01*
X155446277Y-72971593D01*
X155446273Y-72971595D01*
X155253226Y-73083052D01*
X155253217Y-73083058D01*
X155076377Y-73218751D01*
X155076370Y-73218757D01*
X154918757Y-73376370D01*
X154918751Y-73376377D01*
X154783058Y-73553217D01*
X154783052Y-73553226D01*
X154671595Y-73746273D01*
X154671593Y-73746277D01*
X154586293Y-73952209D01*
X154586290Y-73952219D01*
X154532549Y-74152786D01*
X154528597Y-74167534D01*
X154528594Y-74167547D01*
X154499501Y-74388533D01*
X154499500Y-74388549D01*
X145661683Y-74388549D01*
X145633477Y-74210466D01*
X145570220Y-74015781D01*
X145570218Y-74015778D01*
X145570218Y-74015776D01*
X145504967Y-73887715D01*
X145477287Y-73833390D01*
X145449236Y-73794781D01*
X145356971Y-73667786D01*
X145212213Y-73523028D01*
X145046613Y-73402715D01*
X145046612Y-73402714D01*
X145046610Y-73402713D01*
X144989653Y-73373691D01*
X144864223Y-73309781D01*
X144669534Y-73246522D01*
X144494191Y-73218751D01*
X144467352Y-73214500D01*
X144262648Y-73214500D01*
X144238329Y-73218351D01*
X144060465Y-73246522D01*
X143865776Y-73309781D01*
X143683386Y-73402715D01*
X143517786Y-73523028D01*
X143373028Y-73667786D01*
X143252715Y-73833386D01*
X143159781Y-74015776D01*
X143096522Y-74210465D01*
X143064500Y-74412648D01*
X132000500Y-74412648D01*
X132000500Y-73495249D01*
X132000499Y-73495247D01*
X131988868Y-73436770D01*
X131988867Y-73436769D01*
X131944552Y-73370447D01*
X131878230Y-73326132D01*
X131878229Y-73326131D01*
X131819752Y-73314500D01*
X131819748Y-73314500D01*
X130880252Y-73314500D01*
X130880247Y-73314500D01*
X130821770Y-73326131D01*
X130821769Y-73326132D01*
X130783891Y-73351442D01*
X130717213Y-73372320D01*
X130649833Y-73353835D01*
X130646109Y-73351442D01*
X130608230Y-73326132D01*
X130608229Y-73326131D01*
X130549752Y-73314500D01*
X130549748Y-73314500D01*
X129610252Y-73314500D01*
X129610247Y-73314500D01*
X129551770Y-73326131D01*
X129551769Y-73326132D01*
X129513891Y-73351442D01*
X129447213Y-73372320D01*
X129379833Y-73353835D01*
X129376109Y-73351442D01*
X129338230Y-73326132D01*
X129338229Y-73326131D01*
X129279752Y-73314500D01*
X129279748Y-73314500D01*
X128340252Y-73314500D01*
X128340247Y-73314500D01*
X128281770Y-73326131D01*
X128281769Y-73326132D01*
X128243891Y-73351442D01*
X128177213Y-73372320D01*
X128109833Y-73353835D01*
X128106109Y-73351442D01*
X128068230Y-73326132D01*
X128068229Y-73326131D01*
X128009752Y-73314500D01*
X128009748Y-73314500D01*
X127070252Y-73314500D01*
X127070247Y-73314500D01*
X127011770Y-73326131D01*
X127011769Y-73326132D01*
X126973891Y-73351442D01*
X126907213Y-73372320D01*
X126839833Y-73353835D01*
X126836109Y-73351442D01*
X126798230Y-73326132D01*
X126798229Y-73326131D01*
X126739752Y-73314500D01*
X126739748Y-73314500D01*
X125800252Y-73314500D01*
X125800247Y-73314500D01*
X125741770Y-73326131D01*
X125741769Y-73326132D01*
X125703891Y-73351442D01*
X125637213Y-73372320D01*
X125569833Y-73353835D01*
X125566109Y-73351442D01*
X125528230Y-73326132D01*
X125528229Y-73326131D01*
X125469752Y-73314500D01*
X125469748Y-73314500D01*
X124530252Y-73314500D01*
X124530247Y-73314500D01*
X124471770Y-73326131D01*
X124471769Y-73326132D01*
X124433891Y-73351442D01*
X124367213Y-73372320D01*
X124299833Y-73353835D01*
X124296109Y-73351442D01*
X124258230Y-73326132D01*
X124258229Y-73326131D01*
X124199752Y-73314500D01*
X124199748Y-73314500D01*
X123260252Y-73314500D01*
X123260247Y-73314500D01*
X123201770Y-73326131D01*
X123201769Y-73326132D01*
X123163891Y-73351442D01*
X123097213Y-73372320D01*
X123029833Y-73353835D01*
X123026109Y-73351442D01*
X122988230Y-73326132D01*
X122988229Y-73326131D01*
X122929752Y-73314500D01*
X122929748Y-73314500D01*
X121990252Y-73314500D01*
X121990247Y-73314500D01*
X121931770Y-73326131D01*
X121931769Y-73326132D01*
X121893891Y-73351442D01*
X121827213Y-73372320D01*
X121759833Y-73353835D01*
X121756109Y-73351442D01*
X121718230Y-73326132D01*
X121718229Y-73326131D01*
X121659752Y-73314500D01*
X121659748Y-73314500D01*
X120720252Y-73314500D01*
X120720247Y-73314500D01*
X120661770Y-73326131D01*
X120661769Y-73326132D01*
X120623891Y-73351442D01*
X120557213Y-73372320D01*
X120489833Y-73353835D01*
X120486109Y-73351442D01*
X120448230Y-73326132D01*
X120448229Y-73326131D01*
X120389752Y-73314500D01*
X120389748Y-73314500D01*
X119450252Y-73314500D01*
X119450247Y-73314500D01*
X119391770Y-73326131D01*
X119391769Y-73326132D01*
X119353891Y-73351442D01*
X119287213Y-73372320D01*
X119219833Y-73353835D01*
X119216109Y-73351442D01*
X119178230Y-73326132D01*
X119178229Y-73326131D01*
X119119752Y-73314500D01*
X119119748Y-73314500D01*
X118180252Y-73314500D01*
X118180247Y-73314500D01*
X118121770Y-73326131D01*
X118121769Y-73326132D01*
X118083891Y-73351442D01*
X118017213Y-73372320D01*
X117949833Y-73353835D01*
X117946109Y-73351442D01*
X117908230Y-73326132D01*
X117908229Y-73326131D01*
X117849752Y-73314500D01*
X117849748Y-73314500D01*
X116910252Y-73314500D01*
X116910247Y-73314500D01*
X116851770Y-73326131D01*
X116851769Y-73326132D01*
X116813891Y-73351442D01*
X116747213Y-73372320D01*
X116679833Y-73353835D01*
X116676109Y-73351442D01*
X116638230Y-73326132D01*
X116638229Y-73326131D01*
X116579752Y-73314500D01*
X116579748Y-73314500D01*
X115640252Y-73314500D01*
X115640247Y-73314500D01*
X115581770Y-73326131D01*
X115581769Y-73326132D01*
X115515447Y-73370447D01*
X115471132Y-73436769D01*
X115471131Y-73436770D01*
X115459500Y-73495247D01*
X114200000Y-73495247D01*
X114200000Y-71624500D01*
X114219685Y-71557461D01*
X114272489Y-71511706D01*
X114324000Y-71500500D01*
X181934108Y-71500500D01*
X181996949Y-71500500D01*
X182003032Y-71500648D01*
G37*
%TD.AperFunction*%
%TD*%
M02*
